<?xml version="1.0" encoding="utf-8"?>
<!-- Generator: Adobe Illustrator 24.0.1, SVG Export Plug-In . SVG Version: 6.00 Build 0)  -->
<svg version="1.1" id="OUTLINED" xmlns="http://www.w3.org/2000/svg" xmlns:xlink="http://www.w3.org/1999/xlink" x="0px" y="0px"
	 viewBox="0 0 74 74" xml:space="preserve">
<style type="text/css">
	.st0{fill:#B3E5FF;}
	.st1{fill-rule:evenodd;clip-rule:evenodd;fill:#2E8EE2;}
	.st2{fill-rule:evenodd;clip-rule:evenodd;fill:#53A6F0;}
</style>
<circle class="st0" cx="37" cy="37" r="37"/>
<polygon class="st1" points="42.5,31.5 51,37.5 51,52.5 41,52.5 41,32.6 "/>
<polygon class="st2" points="22.6,27.8 34.9,21.5 36,22.5 36.5,52.5 33,52.5 33,47.8 32,45.5 30.5,45.5 29,46.4 28,49 28,52.5
	22,52.5 22,28.7 "/>
<path d="M53.5,51.5h-1V38.3c0-0.6-0.3-1.2-0.8-1.6l-1.2-0.9c0-0.1,0-0.2,0-0.2v-4c0-0.6-0.4-1-1-1s-1,0.4-1,1v2.8l-4.6-3.4
	c-0.6-0.5-1.5-0.5-2.2-0.2c-0.7,0.3-1.2,1.1-1.2,1.9v5.9c-0.6,0-1,0.4-1,1s0.4,1,1,1v1c-0.6,0-1,0.4-1,1s0.4,1,1,1v8h-3v-29
	c0-0.7-0.4-1.4-1-1.8c-0.6-0.4-1.4-0.4-2,0l-7,3.6v-2.8c0-0.6-0.4-1-1-1s-1,0.4-1,1v3.9l-2.9,1.5c-0.7,0.4-1.1,1-1.1,1.8v22.8h-1
	c-0.6,0-1,0.4-1,1s0.4,1,1,1h8h5h20c0.6,0,1-0.4,1-1S54.1,51.5,53.5,51.5z M42.5,43.5h4c0.6,0,1-0.4,1-1s-0.4-1-1-1h-4l0-1h3
	c0.6,0,1-0.4,1-1s-0.4-1-1-1h-3l0-6c0,0,0.1,0,0.2,0l7.8,5.7v13.2h-8L42.5,43.5z M23.5,28.6l11.8-6.1c0,0,0.1,0,0.1,0v8h-6
	c-0.6,0-1,0.4-1,1s0.4,1,1,1h6v2h-7c-0.6,0-1,0.4-1,1s0.4,1,1,1h7v15h-1v-3.7c0-1.8-1.6-3.3-3.5-3.3s-3.5,1.5-3.5,3.3v3.7h-4
	L23.5,28.6z M29.5,51.5v-3.7c0-0.7,0.7-1.3,1.5-1.3s1.5,0.6,1.5,1.3v3.7H29.5z"/>
</svg>
