<?xml version="1.0" encoding="utf-8"?>
<!-- Generator: Adobe Illustrator 24.0.1, SVG Export Plug-In . SVG Version: 6.00 Build 0)  -->
<svg version="1.1" id="OUTLINED" xmlns="http://www.w3.org/2000/svg" xmlns:xlink="http://www.w3.org/1999/xlink" x="0px" y="0px"
	 viewBox="0 0 74 74" xml:space="preserve">
<style type="text/css">
	.st0{fill:#B3E5FF;}
	.st1{fill-rule:evenodd;clip-rule:evenodd;fill:#53A6F0;}
	.st2{fill:none;stroke:#000000;stroke-width:2;stroke-linecap:round;stroke-linejoin:round;stroke-miterlimit:10;}
</style>
<circle class="st0" cx="37" cy="37" r="37"/>
<path class="st1" d="M23,36.3l33-0.4c-3-10-8-16.6-18-16.1C29.4,20.2,24.4,25.3,23,36.3z"/>
<g>
	<path class="st2" d="M23,36.5c0-9.4,7.2-17,16-17s16,7.6,16,17H23z"/>
	<line class="st2" x1="19" y1="36.5" x2="57" y2="36.5"/>
	<line class="st2" x1="38" y1="17.5" x2="38" y2="19.5"/>
	<path class="st2" d="M17,55l6.8-6.4l9.5,7.9l21.8-15.4c0.6-0.4,0.9-1.1,0.9-1.8c0-0.7-0.4-1.3-1-1.7c-2.5-1.5-5.6-1.5-8.1-0.1
		l-5.3,2.9c-3.2,1.7-7.2,1.2-9.8-1.4l-1.1-1c-1.7-1.6-4.2-2-6.3-1c-0.4,0.2-0.8,0.6-0.8,1.1c-0.1,0.5,0.1,1,0.4,1.3l0.8,0.8
		c1.9,1.9,2.8,4.6,2.2,7.2l-0.7,3.2"/>
</g>
</svg>
