<?xml version="1.0" encoding="iso-8859-1"?>
<!-- Generator: Adobe Illustrator 19.0.0, SVG Export Plug-In . SVG Version: 6.00 Build 0)  -->
<svg version="1.1" id="Layer_1" xmlns="http://www.w3.org/2000/svg" xmlns:xlink="http://www.w3.org/1999/xlink" x="0px" y="0px"
	 viewBox="0 0 508.053 508.053" style="enable-background:new 0 0 508.053 508.053;" xml:space="preserve">
<g>
	<g>
		<path d="M383.539,334.9c-27.3,0-49.4,22.1-49.4,49.4s22.1,49.4,49.4,49.4s49.4-22.1,49.4-49.4S410.839,334.9,383.539,334.9z
			 M383.439,405.5c-11.7,0-21.2-9.5-21.2-21.2s9.5-21.2,21.2-21.2s21.2,9.5,21.2,21.2S395.139,405.5,383.439,405.5z"/>
	</g>
</g>
<g>
	<g>
		<path d="M155.339,56.5h-84.7c-7.8,0-14.1,6.3-14.1,14.1v211.6c0,7.8,6.3,14.1,14.1,14.1h84.7c7.8,0,14.1-6.3,14.1-14.1V70.6
			C169.439,62.8,163.139,56.5,155.339,56.5z M141.139,268.1h-56.4V84.7h56.4V268.1z"/>
	</g>
</g>
<g>
	<g>
		<path d="M112.939,338.7c-31.1,0-56.5,25.3-56.5,56.4c0.1,31.1,25.4,56.4,56.5,56.4c31.1,0,56.5-25.3,56.5-56.4
			C169.439,364,144.139,338.7,112.939,338.7z M112.939,423.3c-15.6,0-28.2-12.7-28.2-28.2c0-15.6,12.7-28.2,28.2-28.2
			c15.6,0,28.2,12.7,28.2,28.2C141.139,410.7,128.439,423.3,112.939,423.3z"/>
	</g>
</g>
<g>
	<g>
		<path d="M507.739,447.1l-100.2-411.3c-0.9-3.6-3.7-12.6-17.1-10.4l-164.6,40.1V14.1c0-7.8-6.3-14.1-14.1-14.1h-197.6
			c-7.8,0-14.1,6.3-14.1,14.1v479.7c0,7.8,6.3,14.1,14.1,14.1h197.6c7.8,0,14.1-6.3,14.1-14.1V184.4l76.2,312.8
			c1.6,6.4,7.5,12.6,17.1,10.4l178.3-43.4C507.839,461.2,508.639,450.7,507.739,447.1z M28.239,479.7V28.2h169.4v451.5H28.239z
			 M326.139,476.8l-93.5-383.9l150.8-36.7l93.6,383.9L326.139,476.8z"/>
	</g>
</g>
<g>
	<g>
		<path d="M403.539,257.4l-37.5-153.4c-1.8-7.5-9.4-12.2-17-10.3l-68.6,16.7c-10.4,2.6-11.3,13.4-10.4,17.1l37.4,153.3
			c0.9,3.6,6.5,13,17.1,10.4l68.6-16.7C400.739,272.7,405.339,265,403.539,257.4z M331.539,260.3l-30.7-125.9l41.1-10l30.7,125.9
			L331.539,260.3z"/>
	</g>
</g>
<g>
</g>
<g>
</g>
<g>
</g>
<g>
</g>
<g>
</g>
<g>
</g>
<g>
</g>
<g>
</g>
<g>
</g>
<g>
</g>
<g>
</g>
<g>
</g>
<g>
</g>
<g>
</g>
<g>
</g>
</svg>
