<?xml version="1.0" encoding="UTF-8"?>
<svg width="24px" height="24px" viewBox="0 0 24 24" version="1.1" xmlns="http://www.w3.org/2000/svg" xmlns:xlink="http://www.w3.org/1999/xlink"
        class="award-ribbon">
    <g id="Collect---Collecties" stroke="none" stroke-width="1" fill="none" fill-rule="evenodd" stroke-linecap="round" stroke-linejoin="round">
        <g id="VD---COLLECTIES-|-BADGE-VIEW" transform="translate(-472.000000, -162.000000)" stroke="#5e6873" stroke-width="1.5">
            <g id="Group" transform="translate(460.000000, 82.000000)">
                <g id="nav-/-left-menu-/-menu" transform="translate(0.000000, 16.000000)">
                    <g id="Group-6" transform="translate(0.000000, 44.000000)">
                        <g id="sidenav/unselect-copy-2" transform="translate(12.000000, 16.000000)">
                            <g id="award-ribbon-star-1" transform="translate(0.000000, 4.000000)">
                                <polyline id="Path" points="4.807 13.042 0.75 18 4.5 18.75 6 23.25 9.944 16.992"></polyline>
                                <polyline id="Path" points="19.193 13.042 23.25 18 19.5 18.75 18 23.25 14.056 16.992"></polyline>
                                <circle id="Oval" cx="12" cy="9" r="8.25"></circle>
                                <path d="M12.531,4.292 L13.779,6.75 L15.906,6.75 C16.1456413,6.74414721 16.3643585,6.88582387 16.4569951,7.10691357 C16.5496316,7.32800327 16.4972363,7.5832761 16.325,7.75 L14.372,9.668 L15.454,12.153 C15.551803,12.3863853 15.4896042,12.6561592 15.2994882,12.8231623 C15.1093721,12.9901653 14.8338313,13.0170708 14.615,12.89 L12,11.419 L9.385,12.89 C9.16616873,13.0170708 8.89062787,12.9901653 8.70051182,12.8231623 C8.51039578,12.6561592 8.44819701,12.3863853 8.546,12.153 L9.628,9.668 L7.675,7.746 C7.50276373,7.5792761 7.45036836,7.32400327 7.54300494,7.10291357 C7.63564152,6.88182387 7.85435874,6.74014721 8.094,6.746 L10.221,6.746 L11.47,4.292 C11.5739085,4.09534331 11.7780796,3.97230296 12.0005,3.97230296 C12.2229204,3.97230296 12.4270915,4.09534331 12.531,4.292 Z" id="Path"></path>
                            </g>
                        </g>
                    </g>
                </g>
            </g>
        </g>
    </g>
</svg>