<?xml version="1.0" encoding="UTF-8"?>
<svg width="48px" height="48px" viewBox="0 0 48 48" version="1.1" xmlns="http://www.w3.org/2000/svg" xmlns:xlink="http://www.w3.org/1999/xlink">
    <defs>
        <path d="M7.6918,13.0603 C8.98308475,13.0603 10.0298,14.1070153 10.0298,15.3983 L10.0298,20.7513 C10.0298,22.0425847 8.98308475,23.0893 7.6918,23.0893 L2.3378,23.0893 C1.04728538,23.0893 -0.000199999995,22.0423551 -0.000199999995,20.7513 L-0.000199999995,15.3983 C-0.000199999995,14.1072449 1.04728538,13.0603 2.3378,13.0603 L7.6918,13.0603 Z M20.7518,13.0603 C22.0430847,13.0603 23.0898,14.1070153 23.0898,15.3983 L23.0898,20.7513 C23.0898,22.0425847 22.0430847,23.0893 20.7518,23.0893 L15.3978,23.0893 C14.1065153,23.0893 13.0598,22.0425847 13.0598,20.7513 L13.0598,15.3983 C13.0598,14.1070153 14.1065153,13.0603 15.3978,13.0603 L20.7518,13.0603 Z M7.6918,15.0603 L2.3378,15.0603 C2.15162386,15.0603 1.9998,15.2120455 1.9998,15.3983 L1.9998,20.7513 C1.9998,20.9375545 2.15162386,21.0893 2.3378,21.0893 L7.6918,21.0893 C7.87851525,21.0893 8.0298,20.9380153 8.0298,20.7513 L8.0298,15.3983 C8.0298,15.2115847 7.87851525,15.0603 7.6918,15.0603 Z M20.7518,15.0603 L15.3978,15.0603 C15.2110847,15.0603 15.0598,15.2115847 15.0598,15.3983 L15.0598,20.7513 C15.0598,20.9380153 15.2110847,21.0893 15.3978,21.0893 L20.7518,21.0893 C20.9385153,21.0893 21.0898,20.9380153 21.0898,20.7513 L21.0898,15.3983 C21.0898,15.2115847 20.9385153,15.0603 20.7518,15.0603 Z M7.6918,0.0003 C8.98308475,0.0003 10.0298,1.04701525 10.0298,2.3383 L10.0298,7.6923 C10.0298,8.98281462 8.98285512,10.0303 7.6918,10.0303 L2.3378,10.0303 C1.04751525,10.0303 -0.000199999995,8.98258475 -0.000199999995,7.6923 L-0.000199999995,2.3383 C-0.000199999995,1.04724488 1.04728538,0.0003 2.3378,0.0003 L7.6918,0.0003 Z M20.7518,0.0003 C22.0430847,0.0003 23.0898,1.04701525 23.0898,2.3383 L23.0898,7.6923 C23.0898,8.98281462 22.0428551,10.0303 20.7518,10.0303 L15.3978,10.0303 C14.1067449,10.0303 13.0598,8.98281462 13.0598,7.6923 L13.0598,2.3383 C13.0598,1.04701525 14.1065153,0.0003 15.3978,0.0003 L20.7518,0.0003 Z M7.6918,2.0003 L2.3378,2.0003 C2.15162386,2.0003 1.9998,2.15204552 1.9998,2.3383 L1.9998,7.6923 C1.9998,7.87801525 2.15208475,8.0303 2.3378,8.0303 L7.6918,8.0303 C7.87805448,8.0303 8.0298,7.87847614 8.0298,7.6923 L8.0298,2.3383 C8.0298,2.15158475 7.87851525,2.0003 7.6918,2.0003 Z M20.7518,2.0003 L15.3978,2.0003 C15.2110847,2.0003 15.0598,2.15158475 15.0598,2.3383 L15.0598,7.6923 C15.0598,7.87847614 15.2115455,8.0303 15.3978,8.0303 L20.7518,8.0303 C20.9380545,8.0303 21.0898,7.87847614 21.0898,7.6923 L21.0898,2.3383 C21.0898,2.15158475 20.9385153,2.0003 20.7518,2.0003 Z" id="cards-unselected-path1"></path>
    </defs>
    <g id="Page-1" stroke="none" stroke-width="1" fill="none" fill-rule="evenodd">
        <g id="BADGES-HOME--|-admin-Copy-2" transform="translate(-916.000000, -92.000000)">
            <g id="button-/-button-icon-/-primary-/-01-button-icon-DEFAULT-Copy-3" transform="translate(916.000000, 92.000000)">
                <rect id="Rectangle-Copy-14" stroke="#5E6873" x="0.5" y="0.5" width="47" height="47" rx="8"></rect>
                <g id="basis-/-search" transform="translate(12.000000, 12.000000)">
                    <mask id="mask-2" fill="white">
                        <use xlink:href="#cards-unselected-path1"></use>
                    </mask>
                    <use id="Combined-Shape" fill="#772583" fill-rule="nonzero" xlink:href="#cards-unselected-path1"></use>
                </g>
            </g>
        </g>
    </g>
</svg>