<?xml version="1.0" encoding="UTF-8"?>
<svg width="48px" height="48px" viewBox="0 0 48 48" version="1.1" xmlns="http://www.w3.org/2000/svg" xmlns:xlink="http://www.w3.org/1999/xlink">
    <title>button / button-icon / primary / 01 button-icon DEFAULT Copy</title>
    <defs>
        <path d="M11.6918,17.0603 C12.9830847,17.0603 14.0298,18.1070153 14.0298,19.3983 L14.0298,24.7513 C14.0298,26.0425847 12.9830847,27.0893 11.6918,27.0893 L6.3378,27.0893 C5.04728538,27.0893 3.9998,26.0423551 3.9998,24.7513 L3.9998,19.3983 C3.9998,18.1072449 5.04728538,17.0603 6.3378,17.0603 L11.6918,17.0603 Z M24.7518,17.0603 C26.0430847,17.0603 27.0898,18.1070153 27.0898,19.3983 L27.0898,24.7513 C27.0898,26.0425847 26.0430847,27.0893 24.7518,27.0893 L19.3978,27.0893 C18.1065153,27.0893 17.0598,26.0425847 17.0598,24.7513 L17.0598,19.3983 C17.0598,18.1070153 18.1065153,17.0603 19.3978,17.0603 L24.7518,17.0603 Z M11.6918,19.0603 L6.3378,19.0603 C6.15162386,19.0603 5.9998,19.2120455 5.9998,19.3983 L5.9998,24.7513 C5.9998,24.9375545 6.15162386,25.0893 6.3378,25.0893 L11.6918,25.0893 C11.8785153,25.0893 12.0298,24.9380153 12.0298,24.7513 L12.0298,19.3983 C12.0298,19.2115847 11.8785153,19.0603 11.6918,19.0603 Z M24.7518,19.0603 L19.3978,19.0603 C19.2110847,19.0603 19.0598,19.2115847 19.0598,19.3983 L19.0598,24.7513 C19.0598,24.9380153 19.2110847,25.0893 19.3978,25.0893 L24.7518,25.0893 C24.9385153,25.0893 25.0898,24.9380153 25.0898,24.7513 L25.0898,19.3983 C25.0898,19.2115847 24.9385153,19.0603 24.7518,19.0603 Z M11.6918,4.0003 C12.9830847,4.0003 14.0298,5.04701525 14.0298,6.3383 L14.0298,11.6923 C14.0298,12.9828146 12.9828551,14.0303 11.6918,14.0303 L6.3378,14.0303 C5.04751525,14.0303 3.9998,12.9825847 3.9998,11.6923 L3.9998,6.3383 C3.9998,5.04724488 5.04728538,4.0003 6.3378,4.0003 L11.6918,4.0003 Z M24.7518,4.0003 C26.0430847,4.0003 27.0898,5.04701525 27.0898,6.3383 L27.0898,11.6923 C27.0898,12.9828146 26.0428551,14.0303 24.7518,14.0303 L19.3978,14.0303 C18.1067449,14.0303 17.0598,12.9828146 17.0598,11.6923 L17.0598,6.3383 C17.0598,5.04701525 18.1065153,4.0003 19.3978,4.0003 L24.7518,4.0003 Z M11.6918,6.0003 L6.3378,6.0003 C6.15162386,6.0003 5.9998,6.15204552 5.9998,6.3383 L5.9998,11.6923 C5.9998,11.8780153 6.15208475,12.0303 6.3378,12.0303 L11.6918,12.0303 C11.8780545,12.0303 12.0298,11.8784761 12.0298,11.6923 L12.0298,6.3383 C12.0298,6.15158475 11.8785153,6.0003 11.6918,6.0003 Z M24.7518,6.0003 L19.3978,6.0003 C19.2110847,6.0003 19.0598,6.15158475 19.0598,6.3383 L19.0598,11.6923 C19.0598,11.8784761 19.2115455,12.0303 19.3978,12.0303 L24.7518,12.0303 C24.9380545,12.0303 25.0898,11.8784761 25.0898,11.6923 L25.0898,6.3383 C25.0898,6.15158475 24.9385153,6.0003 24.7518,6.0003 Z" id="path-1"></path>
    </defs>
    <g id="Page-1" stroke="none" stroke-width="1" fill="none" fill-rule="evenodd">
        <g id="BADGES-HOME--|-admin" transform="translate(-916.000000, -92.000000)">
            <g id="button-/-button-icon-/-primary-/-01-button-icon-DEFAULT-Copy" transform="translate(916.000000, 92.000000)">
                <rect id="Rectangle-Copy-14" fill="#480056" x="0" y="0" width="48" height="48" rx="8"></rect>
                <g id="basis-/-search" transform="translate(8.000000, 8.000000)">
                    <mask id="mask-2" fill="white">
                        <use xlink:href="#path-1"></use>
                    </mask>
                    <use id="Combined-Shape" fill="#FFFFFF" fill-rule="nonzero" xlink:href="#path-1"></use>
                </g>
            </g>
        </g>
    </g>
</svg>