<?xml version="1.0" encoding="UTF-8"?>
<svg width="100px" height="100px" viewBox="0 0 100 100" version="1.1" xmlns="http://www.w3.org/2000/svg" xmlns:xlink="http://www.w3.org/1999/xlink">
    <title>Group 2</title>
    <g id="Page-1" stroke="none" stroke-width="1" fill="none" fill-rule="evenodd">
        <g id="edubadges-2021-+-catalogus-copy" transform="translate(-670.000000, -378.000000)">
            <g id="Group-2" transform="translate(670.000000, 378.000000)">
                <circle id="Oval-Copy" fill="#CEA0E5" cx="50" cy="50" r="50"></circle>
                <g id="Group-14" transform="translate(17.000000, 17.000000)" stroke-linecap="round" stroke-linejoin="round">
                    <g id="road-sign-crossroad-1" stroke="#000000" stroke-width="2">
                        <line x1="33" y1="0" x2="33" y2="66" id="Path"></line>
                        <line x1="0" y1="33" x2="66" y2="33" id="Path"></line>
                    </g>
                    <g id="sign-badge-badge-1" transform="translate(4.000000, 5.000000)" fill="#EBCEFF" stroke="#000000" stroke-width="1.5">
                        <path d="M11.25,22.5 C11.6182131,22.5 11.983261,22.4320021 12.327,22.3000004 L13.368,21.9000004 C15.6086298,21.1263621 17.7111639,19.9994741 19.596,18.5620004 C22.1182761,16.4515073 22.455618,12.6973476 20.35,10.1710004 C19.4223886,9.0583054 19.4223886,7.44169536 20.35,6.32900038 L22.5,3.75000038 L20.132,0 L16.218,3.61900038 C15.941764,3.80621078 15.5751294,3.78869379 15.318,3.57600038 L11.73,0.174000377 C11.5954023,0.0614245379 11.4254703,0 11.25,0 L11.25,0 C11.0745297,0 10.9045977,0.0614245379 10.77,0.174000377 L7.186,3.57400038 C6.92887056,3.78669379 6.56223595,3.80421078 6.286,3.61700038 L2.368,0 L0,3.75000038 L2.15,6.32900038 C3.07761143,7.44169536 3.07761143,9.0583054 2.15,10.1710004 C0.0443819853,12.6973476 0.381723941,16.4515073 2.904,18.5620004 C4.78883615,19.9994741 6.8913702,21.1263621 9.132,21.9000004 L10.173,22.3000004 C10.516739,22.4320021 10.8817869,22.5 11.25,22.5 Z" id="Path"></path>
                    </g>
                    <g id="check-badge" transform="translate(39.000000, 4.000000)" stroke-width="1.5">
                        <path d="M10.73,1.357 C11.039406,0.97242394 11.5064103,0.748763182 12,0.748763182 C12.4935897,0.748763182 12.960594,0.97242394 13.27,1.357 L14.782,3.238 C15.1300067,3.67168334 15.6751872,3.8978993 16.228,3.838 L18.628,3.577 C19.1201268,3.52233096 19.6104226,3.6943239 19.9605493,4.04445067 C20.3106761,4.39457744 20.482669,4.88487318 20.428,5.377 L20.167,7.777 C20.1071007,8.32981281 20.3333167,8.87499326 20.767,9.223 L22.648,10.735 C23.0325761,11.044406 23.2562368,11.5114103 23.2562368,12.005 C23.2562368,12.4985897 23.0325761,12.965594 22.648,13.275 L20.761,14.78 C20.3274604,15.128554 20.1013191,15.6739316 20.161,16.227 L20.422,18.627 C20.4770618,19.1192186 20.3051967,19.6097526 19.9549747,19.9599747 C19.6047526,20.3101967 19.1142186,20.4820618 18.622,20.427 L16.222,20.166 C15.6691597,20.1059095 15.1238907,20.3321621 14.776,20.766 L13.27,22.64 C12.9608043,23.0249159 12.4937228,23.2488329 12,23.2488329 C11.5062772,23.2488329 11.0391957,23.0249159 10.73,22.64 L9.219,20.76 C8.87056152,20.3263063 8.32509583,20.1001284 7.772,20.16 L5.372,20.421 C4.87968957,20.4764556 4.38891655,20.3047187 4.03859893,19.9544011 C3.6882813,19.6040834 3.5165444,19.1133104 3.572,18.621 L3.833,16.221 C3.8928716,15.6679042 3.6666937,15.1224385 3.233,14.774 L1.353,13.263 C0.968084094,12.9538043 0.744167143,12.4867228 0.744167143,11.993 C0.744167143,11.4992772 0.968084094,11.0321957 1.353,10.723 L3.233,9.211 C3.66683785,8.86310927 3.89309055,8.31784027 3.833,7.765 L3.572,5.365 C3.51693821,4.87278141 3.68880331,4.38224738 4.03902534,4.03202534 C4.38924738,3.68180331 4.87978141,3.50993821 5.372,3.565 L7.772,3.826 C8.32506844,3.88568095 8.87044596,3.65953961 9.219,3.226 L10.73,1.357 Z" id="Path" stroke="#000000" fill="#772583"></path>
                        <path d="M15.75,9.749 L11.769,15.057 C11.638496,15.2307777 11.4390298,15.339403 11.2222478,15.3547504 C11.0054658,15.3700978 10.7926853,15.2906581 10.639,15.137 L8.25,12.749" id="Path" stroke="#EBCEFF"></path>
                    </g>
                    <g id="army-shield-copy-4" transform="translate(5.000000, 15.000000)" stroke-width="1.5">
                        <path d="M0,29.1739337 L0,36.7879337 C0,41.7144277 3.03401314,46.1321622 7.63203347,47.9009337 L8.67303347,48.3009337 C9.36627648,48.5675834 10.1337905,48.5675834 10.8270335,48.3009337 L11.8680335,47.9009337 C16.4660538,46.1321622 19.5000669,41.7144277 19.5000669,36.7879337 L19.5000669,29.1739337 C19.5039483,28.5886762 19.1641903,28.0555537 18.6320335,27.8119337 C15.8318713,26.5897228 12.8051774,25.9725935 9.75003347,26.0009337 C6.69488957,25.9725935 3.66819564,26.5897228 0.868033473,27.8119337 C0.33587662,28.0555537 -0.00388131008,28.5886762 0,29.1739337 Z" id="Path" stroke="#000000" fill="#772583"></path>
                        <path d="M13.5,34 L9.519,39.308 C9.38849596,39.4817777 9.18902983,39.590403 8.97224781,39.6057504 C8.7554658,39.6210978 8.54268534,39.5416581 8.389,39.388 L6,37" id="Path" stroke="#EBCEFF"></path>
                        <path d="M14.5,0 L10.519,5.308 C10.388496,5.48177767 10.1890298,5.59040295 9.97224781,5.60575035 C9.7554658,5.62109775 9.54268534,5.54165807 9.389,5.388 L7,3" id="Path-Copy-3" stroke="#772583"></path>
                    </g>
                    <g id="certified-diploma" transform="translate(38.000000, 39.000000)" stroke="#000000" stroke-width="1.5">
                        <path d="M5.565,13.933 L1.383,17.04 C1.02219046,17.2954001 0.792408145,17.6969478 0.755011528,18.1374183 C0.71761491,18.5778887 0.876412214,19.0124274 1.189,19.325 L4.675,22.811 C4.98757258,23.1235878 5.42211126,23.2823851 5.86258173,23.2449885 C6.30305221,23.2075919 6.70459988,22.9778095 6.96,22.617 L10.067,18.435" id="Path"></path>
                        <path d="M18.435,10.067 L22.617,6.96 C22.9778095,6.70459988 23.2075919,6.30305221 23.2449885,5.86258173 C23.2823851,5.42211126 23.1235878,4.98757258 22.811,4.675 L19.325,1.19 C19.0125658,0.877306238 18.5781171,0.718338535 18.1376532,0.755541831 C17.6971893,0.792745126 17.2955594,1.02233129 17.04,1.383 L13.933,5.565" id="Path"></path>
                        <polyline id="Path" points="12.393 15.729 17.25 22.5 17.25 17.25 22.5 17.25 15.729 12.393"></polyline>
                        <circle id="Oval" fill="#EBCEFF" cx="12" cy="12" r="3.75"></circle>
                    </g>
                </g>
            </g>
        </g>
    </g>
</svg>