<?xml version="1.0" encoding="utf-8"?>
<!-- Generator: Adobe Illustrator 24.0.1, SVG Export Plug-In . SVG Version: 6.00 Build 0)  -->
<svg version="1.1" id="OUTLINED" xmlns="http://www.w3.org/2000/svg" xmlns:xlink="http://www.w3.org/1999/xlink" x="0px" y="0px"
	 viewBox="0 0 32 32"  xml:space="preserve">
<path d="M24.1,10c1.7,1.7,1.7,4.3,0.2,6l-0.2,0.2l-3.6,3.6c-1.6,1.6-4.2,1.7-5.9,0.2c-1.7-1.5-1.9-3.5-0.6-5.4
	c0.3-0.4,1-0.5,1.4-0.2c0.4,0.3,0.5,1,0.2,1.4c-0.7,1-0.7,1.9,0.3,2.7c0.9,0.8,2.2,0.8,3.1,0l0.1-0.1l3.6-3.6c0.9-0.9,0.9-2.4,0-3.4
	c-0.9-0.9-2.4-0.9-3.4,0c-0.4,0.4-1,0.4-1.4,0c-0.4-0.4-0.4-1,0-1.4C19.6,8.3,22.4,8.3,24.1,10z M17.4,12c1.8,1.5,2.1,3.5,0.8,5.4
	c-0.3,0.4-1,0.5-1.4,0.2c-0.4-0.3-0.5-1-0.2-1.4c0.7-0.9,0.5-1.8-0.5-2.7c-0.9-0.8-2.2-0.8-3.1,0l-0.1,0.1l-3.6,3.6
	c-0.9,0.9-0.9,2.4,0,3.4c0.9,0.9,2.4,0.9,3.4,0c0.4-0.4,1-0.4,1.4,0c0.4,0.4,0.4,1,0,1.4c-1.7,1.7-4.5,1.7-6.2,0
	c-1.7-1.7-1.7-4.3-0.2-6l0.2-0.2l3.6-3.6C13.1,10.6,15.7,10.5,17.4,12z"/>
</svg>
