<svg xmlns="http://www.w3.org/2000/svg" width="30px" viewBox="0 0 32 32" fill="#000000" class="menu-link" >
    <g>
        <path d="M11.7,18.6l1.1-4.6c0.1-0.6,0-1.2-0.3-1.7c-0.3-0.5-0.9-0.8-1.4-0.9l-1.2-0.2c-1.1-0.2-2.3,0.5-2.6,1.6l-1.1,4.6
		c-0.1,0.6,0,1.2,0.3,1.7c0.3,0.5,0.9,0.8,1.4,0.8l1.2,0.2C10.3,20.4,11.4,19.7,11.7,18.6z M9.7,18.1c0,0-0.1,0.1-0.3,0.1L8.2,18
		C8.1,18,8.1,18,8,18l1.1-4.6c0,0,0.1-0.1,0.3-0.1l1.2,0.2c0.1,0,0.1,0,0.2,0.1L9.7,18.1z"/>
        <path d="M25.9,26l-2-7l0-0.1c0.7-0.6,1.1-1.4,1.1-2.4c0-1.8-1.5-3.2-3.3-3.2c-0.9,0-1.8-0.5-2.5-1.3c-0.1-0.1-0.2-0.2-0.2-0.3
		c1.2-0.7,2-2,2-3.4c0-2.2-1.8-4-4-4c-2.2,0-4,1.8-4,4c0,1.3,0.7,2.5,1.7,3.3c-0.5,0.4-0.9,1-1.1,1.7L11,23.8
		c-0.4,1.7,0.7,3.5,2.4,3.9c0.2,0.1,0.5,0.1,0.7,0.1l0.2,0c0.9,0,1.7-0.4,2.2-1.1l0.1-0.1l0,0c0.5,0.6,1.1,1,1.8,1.1
		c1.1,0.2,2.3-0.2,3.1-1c0.8-0.9,1-2.1,0.7-3.2l-1-2.9l-0.1-0.3c0-0.1-0.1-0.2-0.1-0.3l-0.1-0.3l0,0c0.2,0,0.5,0,0.7,0
		c0.1,0,0.2,0,0.3,0l2,6.8l0,0.1c0.2,0.5,0.7,0.7,1.2,0.6C25.8,27.1,26.1,26.5,25.9,26z M17,6.2c1.1,0,2,0.9,2,2s-0.9,2-2,2
		s-2-0.9-2-2S15.9,6.2,17,6.2z M21.7,17.7c-1.4,0-2.8-0.4-4-1.2l-0.3-0.2l-0.3,1.4l1.3,1.6c0.4,0.5,0.7,1,0.9,1.6l0.1,0.3l1,2.9
		c0.1,0.4,0,0.9-0.3,1.2c-0.3,0.3-0.7,0.5-1.2,0.4c-0.4-0.1-0.7-0.3-0.9-0.7l0-0.1l-1-2.9c-0.1-0.3-0.3-0.6-0.5-0.9l-0.2-0.2
		l-0.1-0.1l-1,4c-0.1,0.6-0.6,1-1.2,1c-0.1,0-0.2,0-0.3,0c-0.6-0.1-1-0.7-1-1.4l0-0.1l2.5-10.5c0.1-0.5,0.5-0.8,1-0.9
		c0.4-0.1,0.9,0.1,1.2,0.4l0.1,0.1c1,1.2,2.4,1.9,4,2c0.7,0,1.3,0.6,1.3,1.2C23,17.1,22.4,17.7,21.7,17.7z"/>
    </g>
</svg>
