<?xml version="1.0" encoding="UTF-8"?>
<svg width="185px" height="185px" viewBox="0 0 137 137" version="1.1" xmlns="http://www.w3.org/2000/svg" xmlns:xlink="http://www.w3.org/1999/xlink">
    <!-- Generator: Sketch 64 (93537) - https://sketch.com -->
    <title>icon2</title>
    <desc>Created with Sketch.</desc>
    <g id="Page-1" stroke="none" stroke-width="1" fill="none" fill-rule="evenodd">
        <g id="edubadges-home" transform="translate(-838.000000, -360.000000)">
            <g id="Group-2" transform="translate(741.000000, 251.000000)">
                <g id="icon2" transform="translate(97.000000, 109.000000)">
                    <circle id="Oval-Copy" fill="#CEA0E5" cx="68.5" cy="68.5" r="68.5"></circle>
                    <g id="Group-4" transform="translate(30.000000, 32.000000)">
                        <path d="M11,35.0588235 L72,36 C66.7819978,14.6666667 55.9799144,4 39.59375,4 C23.2075856,4 13.6763356,14.3529412 11,35.0588235 Z" id="Path-3" fill="#772583"></path>
                        <path d="M11,36 C11,18.326888 24.4314575,4 41,4 C57.5685425,4 71,18.326888 71,36 L11,36 Z" id="Shape" stroke="#000000" stroke-width="2" stroke-linecap="round" stroke-linejoin="round"></path>
                        <line x1="4" y1="35" x2="75" y2="35" id="Shape" stroke="#000000" stroke-width="2" stroke-linecap="round" stroke-linejoin="round"></line>
                        <line x1="39" y1="0" x2="39" y2="4" id="Shape" stroke="#000000" stroke-width="2" stroke-linecap="round" stroke-linejoin="round"></line>
                        <path d="M1.42108547e-14,70.1532157 L12.7046738,57.9287889 L30.491217,73 L71.3562237,43.8254845 C72.4367724,43.0543742 73.0530267,41.798099 72.9964116,40.4818526 C72.9397966,39.1656062 72.2178905,37.9655793 71.0750269,37.2879281 C66.403533,34.5175682 60.5917058,34.4218125 55.8294184,37.0367412 L45.9062212,42.479123 C39.8668611,45.7298302 32.3860823,44.6832876 27.496302,39.9036205 L25.4974333,37.9309664 C22.4025777,34.8819629 17.6828031,34.1295041 13.7752543,36.0621362 C12.9428594,36.4748104 12.3615569,37.2575281 12.2126037,38.1662291 C12.0636504,39.0749301 12.3651672,39.9990668 13.0231376,40.6504827 L14.5748017,42.1843971 C18.1707783,45.7488128 19.7290847,50.8527542 18.7283831,55.788677 L12.7046738,57.9287889" id="Shape" stroke="#000000" stroke-width="2" fill="#EBCEFF" stroke-linecap="round" stroke-linejoin="round"></path>
                    </g>
                </g>
            </g>
        </g>
    </g>
</svg>
