<?xml version="1.0" encoding="utf-8"?>
<!-- Generator: Adobe Illustrator 24.0.1, SVG Export Plug-In . SVG Version: 6.00 Build 0)  -->
<svg version="1.1" id="OUTLINED" xmlns="http://www.w3.org/2000/svg" xmlns:xlink="http://www.w3.org/1999/xlink" x="0px" y="0px"
	 viewBox="0 0 32 32"  xml:space="preserve">
<path d="M16,8.3l8,6l0,9.7h-4v-3.2c0-2.2-1.8-4-4-4l-0.2,0c-2.1,0.1-3.8,1.9-3.8,4V24H8l0-9.7L16,8.3z M15.4,6.2l-8.7,6.6
	C6.3,13.2,6,13.6,6,14.1l0,10.1c0,1,0.8,1.8,1.8,1.8l5.2,0c0.6,0,1-0.4,1-1v-4.2c0-1.1,0.9-2,2-2s2,0.9,2,2V25c0,0.6,0.4,1,1,1h5.2
	c1,0,1.8-0.8,1.8-1.8v-10c0-0.6-0.3-1-0.6-1.4l-0.1-0.1l-8.7-6.6C16.2,5.9,15.8,5.9,15.4,6.2z"/>
</svg>
