<?xml version="1.0" encoding="UTF-8"?>
<svg width="28px" height="28px" viewBox="0 0 28 28" version="1.1" xmlns="http://www.w3.org/2000/svg" xmlns:xlink="http://www.w3.org/1999/xlink">
    <defs>
        <path d="M16,4 C22.624447,4.00716485 27.9928352,9.37555305 28,16 C28,22.627417 22.627417,28 16,28 C9.372583,28 4,22.627417 4,16 C4,9.372583 9.372583,4 16,4 Z M15.4168,12.75 L14.75,12.75 L14.6333789,12.7567277 C14.1360402,12.8144928 13.75,13.2371642 13.75,13.75 C13.75,14.3022847 14.1977153,14.75 14.75,14.75 L14.75,14.75 L15.4168,14.75 L15.4168,19.75 L15.4202219,19.9407864 C15.4795385,21.5768167 16.3101235,22.75 17.9199219,22.75 L17.9199219,22.75 L18.75,22.75 L18.8666211,22.7432723 C19.3639598,22.6855072 19.75,22.2628358 19.75,21.75 C19.75,21.1977153 19.3022847,20.75 18.75,20.75 L18.75,20.75 L17.9199219,20.75 L17.8483861,20.7462692 C17.5510068,20.7134789 17.4168,20.4586379 17.4168,19.75 L17.4168,19.75 L17.4168,14.75 L17.4113126,14.600773 C17.3349404,13.5661372 16.47089,12.75 15.4168,12.75 L15.4168,12.75 Z M16.25,7.75 C15.4217153,7.75 14.75,8.42171525 14.75,9.25 C14.75,10.0782847 15.4217153,10.75 16.25,10.75 C17.0782847,10.75 17.75,10.0782847 17.75,9.25 C17.75,8.42171525 17.0782847,7.75 16.25,7.75 Z" id="informational-link-path-id"></path>
    </defs>
    <g id="informational" stroke="none" stroke-width="1" fill="none" fill-rule="evenodd">
        <g id="informational_styleboard" transform="translate(-627.000000, -5738.000000)">
            <g id="notifications" transform="translate(483.000000, 5503.000000)">
                <g id="notificaties" transform="translate(129.000000, 124.000000)">
                    <g id="info-components-/-notification-/-02-informational" transform="translate(0.000000, 102.000000)">
                        <g id="basis-/-info" transform="translate(13.000000, 7.000000)">
                            <path d="M16.0010816,3.00000058 C12.4101491,3 9.16014913,4.45507456 6.80761184,6.80761184 C4.45507456,9.16014913 3,12.4101491 3,16 C3,19.5898509 4.45507456,22.8398509 6.80761184,25.1923882 C9.16014913,27.5449254 12.4101491,29 16,29 C19.5898509,29 22.8398509,27.5449254 25.1923882,25.1923882 C27.5449254,22.8398509 29,19.5898509 29,16 C28.9961188,12.410975 27.540361,9.16318588 25.1885876,6.81141243 C22.8368141,4.45963898 19.589025,3.00388122 16.0010816,3.00000058 Z" id="Path" stroke="#FFFFFF" stroke-width="2" fill="#FFFFFF" fill-rule="nonzero"></path>
                            <mask id="mask-informational-2" fill="white">
                                <use xlink:href="#informational-link-path-id"></use>
                            </mask>
                            <use id="Shape" fill="#000000" fill-rule="nonzero" xlink:href="#informational-link-path-id"></use>
                            <g id="colors-/-Signal-/-Info" mask="url(#mask-informational-2)" fill="#00A8CA" fill-rule="evenodd">
                                <path d="M0,0 L32,0 L32,32 L0,32 L0,0 Z" id="Colors/Your_color_2"></path>
                            </g>
                        </g>
                    </g>
                </g>
            </g>
        </g>
    </g>
</svg>