<?xml version="1.0" encoding="utf-8"?>
<!-- Generator: Adobe Illustrator 22.1.0, SVG Export Plug-In . SVG Version: 6.00 Build 0)  -->
<svg class="icon-institution" version="1.1" id="Layer_1" xmlns="http://www.w3.org/2000/svg" xmlns:xlink="http://www.w3.org/1999/xlink" x="0px" y="0px"
     height="100%" width="100%" viewBox="0 0 24 24" style="enable-background:new 0 0 24 24;" xml:space="preserve">
<title>Institution</title>
<g>
	<path d="M1.5,23.912c-0.414,0-0.75-0.336-0.75-0.75s0.336-0.75,0.75-0.75h21c0.414,0,0.75,0.336,0.75,0.75s-0.336,0.75-0.75,0.75
		H1.5z"/>
	<path d="M1.5,20.912c-0.414,0-0.75-0.336-0.75-0.75s0.336-0.75,0.75-0.75h0.75v-1.5c0-0.827,0.673-1.5,1.5-1.5v-7.5
		c-0.827,0-1.5-0.673-1.5-1.5v-2.25c0-0.06,0.008-0.121,0.025-0.187c0.002-0.009,0.01-0.036,0.013-0.044
		C2.305,4.881,2.325,4.834,2.35,4.791c0.003-0.005,0.015-0.027,0.018-0.031C2.402,4.707,2.44,4.66,2.484,4.619
		C2.493,4.611,2.51,4.596,2.52,4.589c0.028-0.024,0.064-0.05,0.102-0.072C2.635,4.508,2.649,4.5,2.661,4.493l8.669-4.334
		C11.537,0.056,11.768,0.002,12,0.002s0.463,0.054,0.669,0.157l8.666,4.332c0.014,0.007,0.029,0.016,0.044,0.026
		c0.037,0.022,0.073,0.047,0.107,0.076c0.004,0.003,0.023,0.019,0.027,0.023c0.049,0.047,0.087,0.094,0.119,0.143
		c0.006,0.01,0.018,0.03,0.023,0.04c0.02,0.036,0.04,0.08,0.056,0.127c0.003,0.01,0.013,0.043,0.016,0.053
		c0.016,0.061,0.024,0.122,0.024,0.183v2.25c0,0.827-0.673,1.5-1.5,1.5v7.5c0.827,0,1.5,0.673,1.5,1.5v1.5h0.75
		c0.414,0,0.75,0.336,0.75,0.75s-0.336,0.75-0.75,0.75H1.5z M20.25,19.412v-1.5H3.75l0,1.5H20.25z M18.75,16.412v-7.5h-1.5v7.5
		H18.75z M15.75,16.412v-7.5h-1.5v7.5H15.75z M12.75,16.412v-7.5h-1.5v7.5H12.75z M9.75,16.412v-7.5h-1.5v7.5H9.75z M6.75,16.412
		v-7.5h-1.5v7.5H6.75z M3.75,7.412h16.5v-1.5H3.75V7.412z M17.823,4.412L12,1.501L6.177,4.412H17.823z"/>
</g>
</svg>
