<?xml version="1.0" encoding="UTF-8"?>
<svg width="54px" height="54px" viewBox="0 0 24 24" version="1.1" xmlns="http://www.w3.org/2000/svg" xmlns:xlink="http://www.w3.org/1999/xlink">
    <g id="shield-unlock-id" stroke="none" stroke-width="1" fill="none" fill-rule="evenodd">
        <g id="shield-unlock">
            <path d="M24,1.954 C23.9934096,0.877380133 23.1196388,0.00762774718 22.043,0.006 L1.96,0.006 C0.883218756,0.0131372071 0.0136236768,0.887196327 0.012,1.964 L0,9.306 C0.0540270992,16.3613744 4.97315974,22.444659 11.861,23.974 C11.9929034,24.0016154 12.1290966,24.0016154 12.261,23.974 C19.1341415,22.3821423 23.9975632,16.2550687 23.988,9.2 L24,1.954 Z" id="Path" fill="#FFFFFF"></path>
            <circle id="Oval" fill="black" fill-rule="nonzero" cx="11.5" cy="12.244" r="1.5"></circle>
            <path d="M24,1.954 C23.9934096,0.877380133 23.1196388,0.00762774718 22.043,0.006 L1.96,0.006 C0.883218756,0.0131372071 0.0136236768,0.887196327 0.012,1.964 L0,9.306 C0.0540270992,16.3613744 4.97315974,22.444659 11.861,23.974 C11.9929034,24.0016154 12.1290966,24.0016154 12.261,23.974 C19.1341415,22.3821423 23.9975632,16.2550687 23.988,9.2 L24,1.954 Z M19.75,8.743 C19.75,9.15721356 19.4142136,9.493 19,9.493 C18.5857864,9.493 18.25,9.15721356 18.25,8.743 L18.25,6.743 C18.25,5.77650169 17.4664983,4.993 16.5,4.993 C15.5335017,4.993 14.75,5.77650169 14.75,6.743 L14.75,8.243 C14.75,8.38107119 14.8619288,8.493 15,8.493 C15.5522847,8.493 16,8.94071525 16,9.493 L16,14.993 C16,15.5452847 15.5522847,15.993 15,15.993 L8,15.993 C7.44771525,15.993 7,15.5452847 7,14.993 L7,9.493 C7,8.94071525 7.44771525,8.493 8,8.493 L13,8.493 C13.1380712,8.493 13.25,8.38107119 13.25,8.243 L13.25,6.743 C13.25,4.94807456 14.7050746,3.493 16.5,3.493 C18.2949254,3.493 19.75,4.94807456 19.75,6.743 L19.75,8.743 Z" id="Shape" fill="black" fill-rule="nonzero"></path>
        </g>
    </g>
</svg>
