<?xml version="1.0" encoding="UTF-8"?>
<svg width="128px" height="128px" viewBox="0 0 128 128" version="1.1" xmlns="http://www.w3.org/2000/svg" xmlns:xlink="http://www.w3.org/1999/xlink">
    <title>Group 12</title>
    <g id="EduBadges" stroke="none" stroke-width="1" fill="none" fill-rule="evenodd">
        <g id="BADGES-HOME--|-admin" transform="translate(-1584.000000, -850.000000)">
            <g id="Group-10" transform="translate(495.000000, 753.000000)">
                <g id="badge-/-small-/-badge-copy-4" transform="translate(1065.000000, 73.000000)">
                    <g id="Group-12" transform="translate(24.000000, 24.000000)">
                        <circle id="Oval" fill="#CEA0E5" cx="64" cy="64" r="64"></circle>
                        <g id="Regular" transform="translate(28.000000, 24.000000)" stroke-linecap="round" stroke-linejoin="round" stroke-width="2">
                            <path d="M64.4782418,59.636044 L77.447033,46.6707692 C78.8917993,45.2260029 79.4560448,43.1202101 78.9272236,41.1466225 C78.3984024,39.173035 76.8568551,37.6314877 74.8832676,37.1026665 C72.90968,36.5738453 70.8038872,37.1380908 69.3591209,38.5828571 L56.4043956,51.5621978 C50.1107769,49.0975675 42.9512728,51.3839335 39.2510004,57.0400827 C35.5507281,62.696232 36.323754,70.1720864 41.1030865,74.951419 C45.8824191,79.7307515 53.3582735,80.5037774 59.0144228,76.8035051 C64.670572,73.1032327 66.956938,65.9437286 64.4923077,59.6501099 L64.4782418,59.636044 Z" id="Shape" stroke="#000000" fill="#772583"></path>
                            <path d="M50.2646154,63.9085714 C50.7799358,63.3945521 51.6142724,63.3952552 52.1287258,63.9101423 C52.6431792,64.4250293 52.6431792,65.2593663 52.1287258,65.7742534 C51.6142724,66.2891404 50.7799358,66.2898435 50.2646154,65.7758242 C49.7519316,65.2589807 49.7519316,64.4254149 50.2646154,63.9085714" id="Shape" stroke="#EBCFFF" fill="#EBCFFF"></path>
                            <circle id="Oval" stroke="#000000" fill="#EBCFFF" cx="18.4615385" cy="10.5494505" r="10.5494505"></circle>
                            <path d="M36.1564835,39.5604396 C33.541343,30.7708332 24.8708059,25.2331717 15.7964661,26.556991 C6.72212636,27.8808103 -0.00497231616,35.6647714 -2.75463997e-06,44.8351648 L-2.75463997e-06,52.7472527 L7.91208791,52.7472527 L10.5494505,79.1208791 L26.3736264,79.1208791 L28.2197802,60.6593407" id="Shape" stroke="#000000" fill="#EBCFFF"></path>
                        </g>
                    </g>
                </g>
            </g>
        </g>
    </g>
</svg>