<?xml version="1.0" encoding="UTF-8"?>
<svg width="128px" height="128px" viewBox="0 0 128 128" version="1.1" xmlns="http://www.w3.org/2000/svg" xmlns:xlink="http://www.w3.org/1999/xlink">
    <title>Group 12</title>
    <g id="EduBadges" stroke="none" stroke-width="1" fill="none" fill-rule="evenodd">
        <g id="BADGES-HOME--|-admin" transform="translate(-874.000000, -850.000000)">
            <g id="Group-10" transform="translate(495.000000, 753.000000)">
                <g id="badge-/-small-/-badge-copy-3" transform="translate(355.000000, 73.000000)">
                    <g id="Group-12" transform="translate(24.000000, 24.000000)">
                        <circle id="Oval" fill="#CEA0E5" cx="64" cy="64" r="64"></circle>
                        <g id="rating-star-give-1" transform="translate(32.000000, 31.000000)" stroke="#000000" stroke-linecap="round" stroke-linejoin="round" stroke-width="2">
                            <path d="M0,60.4444444 L42.6666667,60.4444444 C42.6666667,55.7316146 38.8461632,51.9111111 34.1333333,51.9111111 L23.4666667,51.9111111 C23.4666667,47.1982812 19.6461632,43.3777778 14.9333333,43.3777778 L0,43.3777778" id="Shape" fill="#EBCFFF"></path>
                            <line x1="0" y1="39.1111111" x2="0" y2="64.7111111" id="Shape"></line>
                            <line x1="14.9333333" y1="51.9111111" x2="23.4666667" y2="51.9111111" id="Shape"></line>
                            <path d="M46.0288,2.08497778 L51.7319111,13.3091556 L61.4826667,13.3091556 C62.5019701,13.3104693 63.4196393,13.9270118 63.8061396,14.8701972 C64.1926399,15.8133826 63.9714972,16.8965896 63.2462222,17.6128 L54.3800889,26.3395556 L59.3322667,37.7173333 C59.7635673,38.7070767 59.5141072,39.8617183 58.7126795,40.5851309 C57.9112517,41.3085436 56.7371797,41.4388602 55.7966222,40.9088 L43.7873778,34.1560889 L31.7781333,40.9088 C30.8375758,41.4388602 29.6635038,41.3085436 28.8620761,40.5851309 C28.0606484,39.8617183 27.8111882,38.7070767 28.2424889,37.7173333 L33.1975111,26.3395556 L24.32,17.6128 C23.5917684,16.8976332 23.3687503,15.8128878 23.7557717,14.8684307 C24.1427931,13.9239736 25.0628781,13.3076511 26.0835556,13.3091556 L35.8343111,13.3091556 L41.5232,2.08497778 C41.9460967,1.22708833 42.8195399,0.683851219 43.776,0.683851219 C44.7324601,0.683851219 45.6059033,1.22708833 46.0288,2.08497778 L46.0288,2.08497778 Z" id="Shape" fill="#772583"></path>
                        </g>
                    </g>
                </g>
            </g>
        </g>
    </g>
</svg>