<?xml version="1.0" encoding="UTF-8"?>
<svg width="128px" height="128px" viewBox="0 0 128 128" version="1.1" xmlns="http://www.w3.org/2000/svg" xmlns:xlink="http://www.w3.org/1999/xlink">
    <title>Group 12</title>
    <g id="EduBadges" stroke="none" stroke-width="1" fill="none" fill-rule="evenodd">
        <g id="BADGES-HOME--|-admin" transform="translate(-1229.000000, -850.000000)">
            <g id="Group-10" transform="translate(495.000000, 753.000000)">
                <g id="badge-/-small-/-badge-copy-2" transform="translate(710.000000, 73.000000)">
                    <g id="Group-12" transform="translate(24.000000, 24.000000)">
                        <circle id="Oval" fill="#CEA0E5" cx="64" cy="64" r="64"></circle>
                        <g id="Group-13" transform="translate(32.000000, 36.000000)" fill-rule="nonzero">
                            <path d="M6.52533333,56 C6.32266667,56 6.12266667,55.9706667 5.93066667,55.9093333 C2.64,55.608 0.0453333333,52.816 0,49.4933333 L0,6 C0,2.69066667 2.69066667,0 6,0 L18,0 C21.3066667,0 24,2.69066667 24,6 L24,8 L50,8 C53.3066667,8 56,10.6906667 56,14 L56,20 L58,20 C59.6026667,20 61.1093333,20.624 62.2426667,21.7546667 C63.376,22.888 64,24.3946667 64,25.9973333 C64,26.5173333 63.9333333,27.04 63.7973333,27.544 L57.9413333,51.504 C57.2373333,54.16 54.8506667,56 52.1333333,56 L6.52533333,56 Z" id="Path" fill="#000000"></path>
                            <path d="M52.1333333,52 C53.04,52 53.8346667,51.3893333 54.0666667,50.5146667 L59.9226667,26.5546667 C59.976,26.3493333 60,26.176 60,26.0026667 C60,25.464 59.792,24.9626667 59.4133333,24.584 C59.0346667,24.2053333 58.5333333,24 58,24 L21.008,24 C20.1226667,24 19.3333333,24.592 19.0853333,25.4426667 L12.84,51.1093333 C12.752,51.416 12.6453333,51.7146667 12.5226667,52 L52.1333333,52 Z" id="Path" fill="#772583"></path>
                            <path d="M6,4 C4.896,4 4,4.896 4,6 L4,49.4666667 C4.01866667,50.824 5.15466667,51.9386667 6.53333333,51.9386667 C7.68266667,51.9226667 8.66933333,51.1653333 8.97066667,50.0933333 L15.2213333,24.4106667 C15.9786667,21.7946667 18.3546667,20 21.0053333,20 L52,20 L52,14 C52,12.896 51.1013333,12 50,12 L22,12 C20.896,12 20,11.104 20,10 L20,6 C20,4.896 19.1013333,4 18,4 L6,4 Z" id="Path" fill="#EBCFFF"></path>
                        </g>
                    </g>
                </g>
            </g>
        </g>
    </g>
</svg>