<?xml version="1.0" encoding="UTF-8"?>
<svg width="48px" height="48px" viewBox="0 0 48 48" version="1.1" xmlns="http://www.w3.org/2000/svg"
     xmlns:xlink="http://www.w3.org/1999/xlink">
    <defs>
        <path d="M6.141,12.3107 C6.693,12.3107 7.141,12.7587 7.141,13.3107 L7.141,18.4517 C7.141,19.0047 6.693,19.4517 6.141,19.4517 L1,19.4517 C0.448,19.4517 0,19.0047 0,18.4517 L0,13.3107 C0,12.7587 0.448,12.3107 1,12.3107 L6.141,12.3107 Z M15.8848,16.4517 C16.4378,16.4517 16.8848,16.8987 16.8848,17.4517 C16.8848,18.0047 16.4378,18.4517 15.8848,18.4517 L9.5678,18.4517 C9.0158,18.4517 8.5678,18.0047 8.5678,17.4517 C8.5678,16.8987 9.0158,16.4517 9.5678,16.4517 L15.8848,16.4517 Z M5.141,14.3107 L2,14.3107 L2,17.4517 L5.141,17.4517 L5.141,14.3107 Z M23.201,12.3111 L23.201,14.3111 L8.5682,14.3111 L8.5682,12.3111 L23.201,12.3111 Z M6.141,-0.0003 C6.693,-0.0003 7.141,0.4477 7.141,0.9997 L7.141,6.1407 C7.141,6.6927 6.693,7.1407 6.141,7.1407 L1,7.1407 C0.448,7.1407 0,6.6927 0,6.1407 L0,0.9997 C0,0.4477 0.448,-0.0003 1,-0.0003 L6.141,-0.0003 Z M15.8848,4.1407 C16.4378,4.1407 16.8848,4.5887 16.8848,5.1407 C16.8848,5.6927 16.4378,6.1407 15.8848,6.1407 L9.5678,6.1407 C9.0158,6.1407 8.5678,5.6927 8.5678,5.1407 C8.5678,4.5887 9.0158,4.1407 9.5678,4.1407 L15.8848,4.1407 Z M5.141,1.9997 L2,1.9997 L2,5.1407 L5.141,5.1407 L5.141,1.9997 Z M22.2012,3.01980663e-13 C22.7542,3.01980663e-13 23.2012,0.448 23.2012,1 C23.2012,1.552 22.7542,2 22.2012,2 L9.5682,2 C9.0152,2 8.5682,1.552 8.5682,1 C8.5682,0.448 9.0152,3.01980663e-13 9.5682,3.01980663e-13 L22.2012,3.01980663e-13 Z"
              id="list-selected-path1"></path>
    </defs>
    <g id="Page-1" stroke="none" stroke-width="1" fill="none" fill-rule="evenodd">
        <g id="BADGES-HOME--|-admin-Copy-2" transform="translate(-980.000000, -92.000000)">
            <g id="button-/-button-icon-/-primary-/-01-button-icon-DEFAULT-Copy-2"
               transform="translate(980.000000, 92.000000)">
                <rect id="Rectangle-Copy-14" fill="#480056" x="0" y="0" width="48" height="48" rx="8"></rect>
                <g id="icons-/-menu-left-/-delete" transform="translate(12.000000, 15.000000)">
                    <mask id="mask-2" fill="white">
                        <use xlink:href="#list-selected-path1"></use>
                    </mask>
                    <use id="Combined-Shape" fill="#FFFFFF" fill-rule="nonzero" xlink:href="#list-selected-path1"></use>
                </g>
            </g>
        </g>
    </g>
</svg>