<?xml version="1.0" encoding="UTF-8"?>
<svg width="48px" height="48px" viewBox="0 0 48 48" version="1.1" xmlns="http://www.w3.org/2000/svg"
     xmlns:xlink="http://www.w3.org/1999/xlink">
    <defs>
        <path d="M10.141,19.3107 C10.693,19.3107 11.141,19.7587 11.141,20.3107 L11.141,25.4517 C11.141,26.0047 10.693,26.4517 10.141,26.4517 L5,26.4517 C4.448,26.4517 4,26.0047 4,25.4517 L4,20.3107 C4,19.7587 4.448,19.3107 5,19.3107 L10.141,19.3107 Z M19.8848,23.4517 C20.4378,23.4517 20.8848,23.8987 20.8848,24.4517 C20.8848,25.0047 20.4378,25.4517 19.8848,25.4517 L13.5678,25.4517 C13.0158,25.4517 12.5678,25.0047 12.5678,24.4517 C12.5678,23.8987 13.0158,23.4517 13.5678,23.4517 L19.8848,23.4517 Z M9.141,21.3107 L6,21.3107 L6,24.4517 L9.141,24.4517 L9.141,21.3107 Z M27.201,19.3111 L27.201,21.3111 L12.5682,21.3111 L12.5682,19.3111 L27.201,19.3111 Z M10.141,6.9997 C10.693,6.9997 11.141,7.4477 11.141,7.9997 L11.141,13.1407 C11.141,13.6927 10.693,14.1407 10.141,14.1407 L5,14.1407 C4.448,14.1407 4,13.6927 4,13.1407 L4,7.9997 C4,7.4477 4.448,6.9997 5,6.9997 L10.141,6.9997 Z M19.8848,11.1407 C20.4378,11.1407 20.8848,11.5887 20.8848,12.1407 C20.8848,12.6927 20.4378,13.1407 19.8848,13.1407 L13.5678,13.1407 C13.0158,13.1407 12.5678,12.6927 12.5678,12.1407 C12.5678,11.5887 13.0158,11.1407 13.5678,11.1407 L19.8848,11.1407 Z M9.141,8.9997 L6,8.9997 L6,12.1407 L9.141,12.1407 L9.141,8.9997 Z M26.2012,7 C26.7542,7 27.2012,7.448 27.2012,8 C27.2012,8.552 26.7542,9 26.2012,9 L13.5682,9 C13.0152,9 12.5682,8.552 12.5682,8 C12.5682,7.448 13.0152,7 13.5682,7 L26.2012,7 Z"
              id="list-unselected-path1"></path>
    </defs>
    <g id="Page-1" stroke="none" stroke-width="1" fill="none" fill-rule="evenodd">
        <g id="BADGES-HOME--|-admin-Copy" transform="translate(-980.000000, -92.000000)">
            <g id="button-/-button-icon-/-primary-/-01-button-icon-DEFAULT"
               transform="translate(980.000000, 92.000000)">
                <rect id="Rectangle-Copy-14" stroke="#5E6873" x="0.5" y="0.5" width="47" height="47" rx="8"></rect>
                <g id="Group" transform="translate(8.000000, 8.000000)">
                    <mask id="mask-2" fill="white">
                        <use xlink:href="#list-unselected-path1"></use>
                    </mask>
                    <use id="Combined-Shape" fill="#772583" fill-rule="nonzero"
                         xlink:href="#list-unselected-path1"></use>
                </g>
            </g>
        </g>
    </g>
</svg>