<?xml version="1.0" encoding="UTF-8"?>
<svg width="54px" height="54px" viewBox="0 0 24 24" version="1.1" xmlns="http://www.w3.org/2000/svg" xmlns:xlink="http://www.w3.org/1999/xlink">
    <g id="lock-shield-id" stroke="none" stroke-width="1" fill="none" fill-rule="evenodd">
        <g id="lock-shield">
            <path d="M24,1.953 C23.9934065,0.876542987 23.1194767,0.00707881382 22.043,0.006 L1.959,0.006 C0.881534507,0.0120531231 0.0114326996,0.887517653 0.012,1.965 L0,9.306 C0.0540390494,16.3619171 4.97360745,22.4456424 11.862,23.975 C11.9258686,23.9878046 11.9908607,23.9940033 12.056,23.9940033 C12.1232029,23.9937381 12.1902083,23.9867026 12.256,23.973 C19.1305538,22.3828876 23.9961888,16.2560528 23.988,9.2 L24,1.953 Z" id="Path" fill="#FFFFFF"></path>
            <path d="M13.75,7.244 C13.75,6.27750169 12.9664983,5.494 12,5.494 C11.0335017,5.494 10.25,6.27750169 10.25,7.244 L10.25,8.744 C10.25,8.88207119 10.3619288,8.994 10.5,8.994 L13.5,8.994 C13.6380712,8.994 13.75,8.88207119 13.75,8.744 L13.75,7.244 Z" id="Path" fill="#000000" fill-rule="nonzero"></path>
            <path d="M24,1.953 C23.9934065,0.876542987 23.1194767,0.00707881382 22.043,0.006 L1.959,0.006 C0.881534507,0.0120531231 0.0114326996,0.887517653 0.012,1.965 L0,9.306 C0.0540390494,16.3619171 4.97360745,22.4456424 11.862,23.975 C11.9258686,23.9878046 11.9908607,23.9940033 12.056,23.9940033 C12.1232029,23.9937381 12.1902083,23.9867026 12.256,23.973 C19.1305538,22.3828876 23.9961888,16.2560528 23.988,9.2 L24,1.953 Z M7.5,15.494 L7.5,9.994 C7.5,9.44171525 7.94771525,8.994 8.5,8.994 L8.75,8.994 L8.75,7.244 C8.75,5.44907456 10.2050746,3.994 12,3.994 C13.7949254,3.994 15.25,5.44907456 15.25,7.244 L15.25,8.994 L15.5,8.994 C16.0522847,8.994 16.5,9.44171525 16.5,9.994 L16.5,15.494 C16.5,15.7592165 16.3946432,16.0135704 16.2071068,16.2011068 C16.0195704,16.3886432 15.7652165,16.494 15.5,16.494 L8.5,16.494 C7.94771525,16.494 7.5,16.0462847 7.5,15.494 Z" id="Shape" fill="#000000" fill-rule="nonzero"></path>
            <circle id="Oval" fill="#000000" fill-rule="nonzero" cx="12" cy="13.244" r="1.25"></circle>
        </g>
    </g>
</svg>
