<svg id="Laag_1" xmlns="http://www.w3.org/2000/svg" width="14px" viewBox="0 0 24 16">
    <path d="M11.1,14.6a1.3,1.3,0,0,0,1.8,0l9.7-9.7a.5.5,0,0,0,0-.7L22.3,4H1.7a.4.4,0,0,0-.4.6c0,.1.1.2.1.3Z"
          transform="translate(0 -4)" style="fill:#737373"/>
    <path d="M23.9,5.8h-.2L17.5,12a.3.3,0,0,0,0,.4l5,5a.8.8,0,0,1-1.1,1.1h0l-5-5H16l-2.1,2.1a2.7,2.7,0,0,1-3.9,0L7.9,13.5H7.5l-5,5a.8.8,0,0,1-1.1,0,.7.7,0,0,1,0-1l5-5a.3.3,0,0,0,0-.4L.3,5.9c-.1-.1-.1-.1-.2,0H0V18a2,2,0,0,0,2,2H22a2,2,0,0,0,2-2V5.8Z"
          transform="translate(0 -4)" style="fill:#737373"/>
</svg>