<?xml version="1.0" encoding="UTF-8"?>
<svg width="20px" height="20px" viewBox="0 0 20 20" version="1.1" xmlns="http://www.w3.org/2000/svg" xmlns:xlink="http://www.w3.org/1999/xlink">
    <g id="Page-1" stroke="none" stroke-width="1" fill="none" fill-rule="evenodd">
        <g id="Public-page-BADGECLASS" transform="translate(-905.000000, -315.000000)" fill="#000000" fill-rule="nonzero">
            <g id="messages-bubble-square-text" transform="translate(905.000000, 315.000000)">
                <path d="M4.375,20 C4.27833333,20 4.18166667,19.9775 4.095,19.9341667 C3.8825,19.8275 3.75,19.6133333 3.75,19.375 L3.75,16.25 L1.875,16.25 C0.840833333,16.25 0,15.4091667 0,14.375 L0,1.875 C0,0.840833333 0.840833333,0 1.875,0 L18.125,0 C19.1591667,0 20,0.840833333 20,1.875 L20,14.375 C20,15.4091667 19.1591667,16.25 18.125,16.25 L9.58333333,16.25 L4.75,19.875 C4.6425,19.9558333 4.50916667,20 4.375,20 Z M1.875,1.25 C1.53,1.25 1.25,1.53 1.25,1.875 L1.25,14.375 C1.25,14.72 1.53,15 1.875,15 L4.375,15 C4.72,15 5,15.28 5,15.625 L5,18.125 L9,15.125 C9.1075,15.0441667 9.24083333,15 9.375,15 L18.125,15 C18.47,15 18.75,14.72 18.75,14.375 L18.75,1.875 C18.75,1.53 18.47,1.25 18.125,1.25 L1.875,1.25 Z" id="Shape"></path>
                <path d="M4.375,6.875 C4.03,6.875 3.75,6.595 3.75,6.25 C3.75,5.905 4.03,5.625 4.375,5.625 L15.625,5.625 C15.97,5.625 16.25,5.905 16.25,6.25 C16.25,6.595 15.97,6.875 15.625,6.875 L4.375,6.875 Z" id="Path"></path>
                <path d="M4.375,10.625 C4.03,10.625 3.75,10.345 3.75,10 C3.75,9.655 4.03,9.375 4.375,9.375 L13.125,9.375 C13.47,9.375 13.75,9.655 13.75,10 C13.75,10.345 13.47,10.625 13.125,10.625 L4.375,10.625 Z" id="Path"></path>
            </g>
        </g>
    </g>
</svg>