<?xml version="1.0" encoding="UTF-8"?>
<svg width="24px" height="24px" viewBox="0 0 24 24" version="1.1" xmlns="http://www.w3.org/2000/svg" xmlns:xlink="http://www.w3.org/1999/xlink">
    <title>common-file-text-shield</title>
    <g id="Page-1" stroke="none" stroke-width="1" fill="none" fill-rule="evenodd" stroke-linecap="round" stroke-linejoin="round">
        <g id="common-file-text-shield" stroke="currentColor" stroke-width="1.5">
            <path d="M23.2500145,15.75 C23.2569489,19.3479396 20.7617104,22.4669877 17.25,23.25 C13.7382896,22.4669877 11.2430511,19.3479396 11.2499855,15.75 L11.2499855,12.75 C11.2499855,11.9215729 11.9215729,11.25 12.75,11.25 L21.75,11.25 C22.5784271,11.25 23.2500145,11.9215729 23.2500145,12.75 L23.2500145,15.75 Z" id="Path"></path>
            <line x1="3.75" y1="6.75" x2="14.25" y2="6.75" id="Path"></line>
            <line x1="3.75" y1="11.25" x2="7.5" y2="11.25" id="Path"></line>
            <line x1="3.75" y1="15.75" x2="7.5" y2="15.75" id="Path"></line>
            <path d="M7.5,20.25 L2.25,20.25 C1.42157288,20.25 0.75,19.5784271 0.75,18.75 L0.75,2.25 C0.75,1.42157288 1.42157288,0.75 2.25,0.75 L12.879,0.75 C13.2765472,0.75 13.6578016,0.907981752 13.939,1.189 L16.811,4.061 C17.0920182,4.34219839 17.25,4.72345279 17.25,5.121 L17.25,7.5" id="Path"></path>
        </g>
    </g>
</svg>