<?xml version="1.0" encoding="utf-8"?>
<!-- Generator: Adobe Illustrator 24.0.1, SVG Export Plug-In . SVG Version: 6.00 Build 0)  -->
<svg class="search" version="1.1" id="OUTLINED" xmlns="http://www.w3.org/2000/svg" xmlns:xlink="http://www.w3.org/1999/xlink" x="0px" y="0px"
	 viewBox="0 0 32 32"  xml:space="preserve">
<style type="text/css">
	.search_svg_st0{clip-path:url(#search_svg_id_2_);}
	.search_svg_st1{clip-path:url(#search_svg_id_4_);}
	.search_svg_st2{clip-path:url(#search_svg_id_6_);}
</style>
<g>
	<defs>
		<path id="search_svg_id_1_" d="M14.3,7.4c3.8,0,7,3.1,7,7s-3.1,7-7,7s-7-3.1-7-7C7.4,10.5,10.5,7.4,14.3,7.4z M27,24.3l-4.5-4.5
			c2.8-4.2,2-9.9-1.9-13.1c-3.9-3.2-9.6-2.9-13.2,0.7s-3.9,9.3-0.6,13.2s8.9,4.8,13.1,1.9l4.5,4.5c0.8,0.7,2,0.7,2.7,0
			C27.7,26.2,27.7,25,27,24.3z"/>
	</defs>
	<clipPath id="search_svg_id_2_">
		<use xlink:href="#search_svg_id_1_"  style="overflow:visible;"/>
	</clipPath>
	<g class="search_svg_st0">
		<g>
			<defs>
				<rect id="search_svg_id_3_" x="-0.5" y="-0.5" width="34" height="34"/>
			</defs>
			<clipPath id="search_svg_id_4_">
				<use xlink:href="#search_svg_id_3_"  style="overflow:visible;"/>
			</clipPath>
			<g class="search_svg_st1">
				<defs>
					<rect id="search_svg_id_5_" x="4.5" y="4.5" width="24" height="24"/>
				</defs>
				<clipPath id="search_svg_id_6_">
					<use xlink:href="#search_svg_id_5_"  style="overflow:visible;"/>
				</clipPath>
				<rect x="-0.5" y="-0.5" class="search_svg_st2" width="33.1" height="33"/>
			</g>
		</g>
	</g>
</g>
</svg>
