<svg xmlns="http://www.w3.org/2000/svg" width="30px" viewBox="0 0 32 32" fill="#000000" class="menu-link" >
<path d="M16,8.2c-1.7,0-3,1.3-3.1,2.9l0,0.2l0,1.9h6.2l0-1.9C19.1,9.6,17.7,8.2,16,8.2z M16,17.3c0.5,0,0.9,0.4,1,0.9l0,0.1v2.3
	c0,0.6-0.4,1-1,1c-0.5,0-0.9-0.4-1-0.9l0-0.1v-2.3C15,17.8,15.4,17.3,16,17.3z M21,15.2H11c-0.3,0-0.5,0.2-0.5,0.5v7.6
	c0,0.3,0.2,0.5,0.5,0.5H21c0.3,0,0.5-0.2,0.5-0.5v-7.6C21.5,15.5,21.2,15.2,21,15.2z M16,6.2c2.7,0,5,2.2,5.1,4.9l0,0.2l0,1.9
	c1.3,0.1,2.3,1.2,2.3,2.5v7.6c0,1.4-1.1,2.5-2.5,2.5H11c-1.4,0-2.5-1.1-2.5-2.5v-7.6c0-1.4,1.1-2.5,2.5-2.5l-0.2,0l0-1.9
	C10.9,8.5,13.2,6.2,16,6.2z"/>
</svg>
