<svg xmlns="http://www.w3.org/2000/svg" height="100%" width="100%" viewBox="0 0 24 24"><title>official-building-3</title><path d="M23.884,23.18l-2.5-3A.5.5,0,0,0,21,20H3a.5.5,0,0,0-.384.18l-2.5,3A.5.5,0,0,0,.5,24h23a.5.5,0,0,0,.384-.82Z"/><rect x="3" y="10.5" width="4" height="8.5" rx="0.5" ry="0.5"/><rect x="10" y="10.5" width="4" height="8.5" rx="0.5" ry="0.5"/><rect x="17" y="10.5" width="4" height="8.5" rx="0.5" ry="0.5"/><path d="M2.084,9.277A.5.5,0,0,0,2.5,9.5h19a.5.5,0,0,0,.416-.223l1-1.5A.5.5,0,0,0,22.5,7H1.5a.5.5,0,0,0-.416.777Z"/><path d="M1.5,6h21a.5.5,0,0,0,.215-.952l-10.5-5a.506.506,0,0,0-.43,0l-10.5,5A.5.5,0,0,0,1.5,6Z"/></svg>