<?xml version="1.0" encoding="UTF-8"?>
<svg width="100%" height="100%" viewBox="0 0 28 28" version="1.1" xmlns="http://www.w3.org/2000/svg" xmlns:xlink="http://www.w3.org/1999/xlink">
    <!-- Generator: Sketch 63 (92445) - https://sketch.com -->
    <title>Step 2</title>
    <desc>Created with Sketch.</desc>
    <g id="Page-1" stroke="none" stroke-width="1" fill="none" fill-rule="evenodd">
        <g class="filler" id="Artboard" transform="translate(-876.000000, -223.000000)" fill="" fill-rule="nonzero" stroke="">
            <g id="check-badge" transform="translate(876.000000, 223.000000)">
                <path d="M26.5043333,12.075 L24.36,10.3506667 C24.0211649,10.0775496 23.845188,9.65036567 23.8933333,9.21783333 L24.1908333,6.482 C24.2721023,5.74614488 24.0148154,5.01319828 23.491437,4.48959303 C22.9680586,3.96598778 22.2352236,3.7083833 21.4993333,3.78933333 L18.76,4.08333333 C18.3274991,4.13125555 17.9004186,3.95532125 17.6271667,3.61666667 L15.9028333,1.4735 C15.4248313,0.921186229 14.7304358,0.603814366 14,0.603814366 C13.2695642,0.603814366 12.5751687,0.921186229 12.0971667,1.4735 L10.3728333,3.61666667 C10.1005328,3.95659327 9.67272146,4.13282864 9.24,4.08333333 L6.50416667,3.78933333 C5.76831155,3.70806439 5.03536495,3.96535126 4.5117597,4.48872965 C3.98815445,5.01210804 3.73054996,5.74494306 3.8115,6.48083333 L4.109,9.21666667 C4.158269,9.64935657 3.98207706,10.0770625 3.64233333,10.3495 L1.49566667,12.075 C0.918931047,12.5382547 0.583423725,13.2380842 0.583423725,13.9778333 C0.583423725,14.7175825 0.918931047,15.417412 1.49566667,15.8806667 L3.64,17.605 C3.97956124,17.8775741 4.15570988,18.305175 4.10666667,18.7378333 L3.80916667,21.4736667 C3.72789773,22.2095218 3.98518459,22.9424684 4.50856298,23.4660736 C5.03194137,23.9896789 5.7647764,24.2472834 6.50066667,24.1663333 L9.23766667,23.8688333 C9.670199,23.820688 10.0973829,23.9966649 10.3705,24.3355 L12.0971667,26.4833333 C12.5604213,27.060069 13.2602508,27.3955763 14,27.3955763 C14.7397492,27.3955763 15.4395787,27.060069 15.9028333,26.4833333 L17.6271667,24.339 C17.9004186,24.0003454 18.3274991,23.8244111 18.76,23.8723333 L21.4958333,24.1698333 C22.2316885,24.2511023 22.964635,23.9938154 23.4882403,23.470437 C24.0118456,22.9470586 24.26945,22.2142236 24.1885,21.4783333 L23.891,18.7413333 C23.8415047,18.3086119 24.0177401,17.8808005 24.3576667,17.6085 L26.502,15.8841667 C27.0787356,15.420912 27.4142429,14.7210825 27.4142429,13.9813333 C27.4142429,13.2415842 27.0787356,12.5417547 26.502,12.0785 L26.5043333,12.075 Z" id="Shape"></path>
            </g>
        </g>
    </g>
    <text x="10" y="19">3</text>
</svg>