<?xml version="1.0" encoding="UTF-8"?>
<svg width="33px" height="33px" viewBox="0 0 33 33" version="1.1" xmlns="http://www.w3.org/2000/svg"
     xmlns:xlink="http://www.w3.org/1999/xlink">
    <defs>
        <path d="M16.8412476,3.08518343 C16.758142,3.02949681 16.6759456,2.99714428 16.5960679,2.98024567 C16.413672,2.86164893 16.1772665,2.84273649 15.9367239,3.01868344 C13.233382,4.99490179 10.315002,6.6623921 7.47818191,8.44944229 C5.737874,8.45036165 3.99938459,8.46301372 2.26253183,8.58182935 C2.25193905,8.58261737 2.24266468,8.5850252 2.23229921,8.58616345 C2.15946814,8.58182935 2.08500042,8.58572567 2.00985076,8.60551368 C1.65524257,8.69933162 1.41656397,9.07749281 1.5273563,9.42395815 C1.61196218,9.68803181 1.6333296,9.95022298 1.63873965,10.2230086 C1.51858202,12.2944896 1.57722876,14.3615052 1.70984314,16.4311912 C1.74203065,16.9309261 2.22952599,17.136774 2.61691272,17.0509675 C4.14150064,17.2063385 5.66226971,17.2107601 7.19099474,17.1063039 C10.1504729,18.8529901 12.7517968,21.0791853 15.591572,22.9923622 C15.8095196,23.1391087 16.0227846,23.1379704 16.1970882,23.0534774 C16.3005156,23.0265972 16.4028064,22.9759014 16.4979141,22.8883 C16.9104417,22.5075121 17.2999197,22.1011574 17.6699852,21.6776414 C17.8461072,21.6005031 17.9474888,21.4651391 17.985541,21.3101184 C22.4693343,15.8563319 23.3719486,7.47750939 16.8412476,3.08518343 Z M7.88984566,15.9587743 C7.79669281,15.8502467 7.65885024,15.7782743 7.4768635,15.768249 C7.3965311,15.7548965 7.31942655,15.757567 7.24614086,15.7733273 C5.84412007,15.871348 4.44882775,15.8791407 3.05153507,15.7626891 C2.95665464,14.0671366 2.92455806,12.3728099 3.0021627,10.6761629 C3.01439213,10.6249417 3.02248447,10.5705684 3.02225716,10.5110731 C3.02225716,10.4268427 3.02052958,10.3422183 3.01889293,10.2577252 C3.02030227,10.2312828 3.02052958,10.204928 3.02225716,10.1784856 C3.02593963,10.115663 3.02052958,10.0585317 3.00943671,10.0055156 C3.00739089,9.96125523 3.00493591,9.91712621 3.00193538,9.87304097 C4.55007293,9.79200643 6.09971075,9.77966081 7.65062152,9.77944192 C7.78660012,9.77944192 7.89934734,9.74573225 7.99390953,9.69315393 C8.04146339,9.67559863 8.08915365,9.65235209 8.13761677,9.62214473 C10.5482251,8.10232027 13.0168892,6.66799579 15.3647591,5.06039485 C13.4682417,6.5967677 12.9707446,10.3658588 12.8534966,12.4146624 C12.742477,14.3513923 12.8121711,16.457546 13.4361452,18.3186699 C13.6393175,18.9253564 13.8055287,19.61693 14.0502538,20.2520726 C12.0326696,18.7709924 10.0564563,17.2376841 7.88984566,15.9587743 Z M14.2224206,12.6842084 C14.2369232,12.2440127 14.2722931,11.5974437 14.356308,10.8749624 C16.2950601,11.9408445 16.5150535,14.4582563 14.2611548,15.3114611 C14.1912333,14.4348784 14.1937792,13.5494086 14.2224206,12.6842084 Z M16.9880918,20.3611256 C16.8181981,20.373121 16.684038,20.43428 16.5852478,20.5265219 C15.7668757,20.5998951 15.5295155,20.3199735 15.2633775,19.3763217 C15.0636604,18.6682874 14.7515597,18.0013613 14.5714824,17.2882048 C14.5191095,17.0808247 14.4750108,16.8709492 14.4355038,16.6601543 C18.3448773,15.4343482 17.9274853,11.0506904 14.5693911,9.51020236 C14.9927842,7.40295411 15.9199028,5.29491783 17.9572633,5.81312736 C21.6188657,9.90425525 20.3867386,16.1266222 16.9880918,20.3611256 Z"
              id="icon-tip-path-1"></path>
    </defs>
    <g stroke="none" stroke-width="1" fill="none" fill-rule="evenodd">
        <g transform="translate(-509.000000, -281.000000)">
            <g id="tip-with-close" transform="translate(492.999939, 262.000000)">
                <g id="Group-2" transform="translate(16.000061, 19.000161)">
                    <circle id="Icon-BG" fill="#FEDB00" cx="16.5" cy="16.5" r="16.5"></circle>
                    <g id="SURF-icons/volume-down-icon" transform="translate(4.000000, 3.000000)">
                        <mask id="icon-tip-mask-2" fill="white">
                            <use xlink:href="#icon-tip-path-1"></use>
                        </mask>
                        <use id="Mask" fill="#000000" fill-rule="nonzero" xlink:href="#icon-tip-path-1"></use>
                        <g mask="url(#icon-tip-mask-2)" fill="#212121" fill-rule="evenodd">
                            <path d="M0,0 L24,0 L24,26 L0,26 L0,0 Z"></path>
                        </g>
                    </g>
                </g>
            </g>
        </g>
    </g>
</svg>