<?xml version="1.0" encoding="UTF-8"?>
<svg width="100%" height="100%" viewBox="0 0 24 24" version="1.1" xmlns="http://www.w3.org/2000/svg" xmlns:xlink="http://www.w3.org/1999/xlink">
    <title>official-building-3</title>
    <g id="Page-1" stroke="none" stroke-width="1" fill="none" fill-rule="evenodd" stroke-linecap="round" stroke-linejoin="round">
        <g id="MANAGE-|-1-Group" transform="translate(-55.000000, -404.000000)" stroke="currentColor" stroke-width="1.5">
            <g id="official-building-3" transform="translate(56.000000, 404.000000)">
                <path d="M3.5,8.161 L3.5,17.161 L3.5,8.161 Z" id="Rectangle"></path>
                <rect id="Rectangle" x="8.5" y="8.161" width="5" height="9"></rect>
                <path d="M18.5,8.161 L18.5,17.161 L18.5,8.161 Z" id="Rectangle"></path>
                <path d="M20,20.161 L2,20.161 L2,17.911 C2,17.4967864 2.33578644,17.161 2.75,17.161 L19.25,17.161 C19.6642136,17.161 20,17.4967864 20,17.911 L20,20.161 Z" id="Path"></path>
                <line x1="0.5" y1="23.161" x2="21.5" y2="23.161" id="Path"></line>
                <line x1="0.5" y1="20.161" x2="21.5" y2="20.161" id="Path"></line>
                <path d="M20,5.161 L20,7.411 C20,7.82521356 19.6642136,8.161 19.25,8.161 L2.75,8.161 C2.33578644,8.161 2,7.82521356 2,7.411 L2,5.161 L10.665,0.829 C10.875995,0.724013306 11.124005,0.724013306 11.335,0.829 L20,5.161 Z" id="Path"></path>
                <line x1="2" y1="5.161" x2="20" y2="5.161" id="Path"></line>
            </g>
        </g>
    </g>
</svg>