<?xml version="1.0" encoding="UTF-8"?>
<svg width="56px" height="56px" viewBox="0 0 56 56" version="1.1" xmlns="http://www.w3.org/2000/svg" xmlns:xlink="http://www.w3.org/1999/xlink">
    <title>Group</title>
    <defs>
        <circle id="path-1" cx="24" cy="24" r="24"></circle>
        <filter x="-14.6%" y="-10.4%" width="129.2%" height="129.2%" filterUnits="objectBoundingBox" id="filter-2">
            <feOffset dx="0" dy="2" in="SourceAlpha" result="shadowOffsetOuter1"></feOffset>
            <feGaussianBlur stdDeviation="2" in="shadowOffsetOuter1" result="shadowBlurOuter1"></feGaussianBlur>
            <feColorMatrix values="0 0 0 0 0   0 0 0 0 0   0 0 0 0 0  0 0 0 0.5 0" type="matrix" in="shadowBlurOuter1"></feColorMatrix>
        </filter>
    </defs>
    <g id="Page-1" stroke="none" stroke-width="1" fill="none" fill-rule="evenodd">
        <g id="TOS-edubadges" transform="translate(-37.000000, -680.000000)">
            <g id="Group" transform="translate(41.000000, 682.000000)">
                <g id="Oval">
                    <use fill="black" fill-opacity="1" filter="url(#filter-2)" xlink:href="#path-1"></use>
                    <use fill="#DFE3E8" fill-rule="evenodd" xlink:href="#path-1"></use>
                </g>
                <g id="shield-key" transform="translate(13.000000, 12.000000)" fill="#772583" fill-rule="nonzero">
                    <path d="M10.666651,24 C10.1983374,24 9.73815075,23.9160035 9.29929726,23.7500104 L8.24178225,23.3500271 C3.31179154,21.4831049 3.62689149e-05,16.7363027 3.62689149e-05,11.5375193 L3.62689149e-05,3.92383651 C-0.00500625608,3.04787301 0.516132264,2.24490646 1.32679218,1.87992167 C4.23216483,0.630973709 7.3000758,0 10.4512877,0 L10.673762,0.000999958335 L10.8627128,0 C14.0271309,0 17.1001212,0.630973709 19.9943194,1.87492188 C20.8161538,2.24490646 21.339324,3.04987292 21.3332815,3.9288363 L21.3332815,11.5375193 C21.3332815,16.7363027 18.0215104,21.4831049 13.0915197,23.3500271 L12.0340047,23.7500104 C11.5951512,23.9160035 11.1349645,24 10.666651,24 Z M10.463478,1.4999375 C7.51442323,1.4999375 4.64968516,2.08891296 1.9485013,3.24886463 C1.69148756,3.3648598 1.52183818,3.6288488 1.52385186,3.91883672 L1.52385186,11.5375193 C1.52385186,16.1203283 4.44346466,20.305154 8.78831739,21.9500854 L9.8458324,22.3500687 C10.1099572,22.4500646 10.3852565,22.5010625 10.666651,22.5010625 C10.9480454,22.5010625 11.2233447,22.4500646 11.4874695,22.3510687 L12.5449845,21.9510854 C16.8898373,20.304154 19.8094499,16.1203283 19.8094499,11.5375193 L19.8094499,3.92383651 C19.8114637,3.63084871 19.6397826,3.3648598 19.3726103,3.24386484 C16.681585,2.08691305 13.816847,1.4999375 10.8637287,1.4999375 L10.673762,1.50093746 L10.463478,1.4999375 Z" id="Shape"></path>
                    <path d="M8.99911111,13.9991115 C8.73244444,13.9991115 8.48177778,13.8951577 8.29333333,13.706797 C8.10488889,13.5193247 8,13.2687694 8,13.0022212 C8,12.739227 8.10044444,12.4904487 8.28355556,12.302088 C8.48177778,12.1039538 8.73244444,12 8.99911111,12 C9.26666667,12 9.51822222,12.1039538 9.70666667,12.293203 C9.89511111,12.4806753 9.99911111,12.7321191 10,12.9995558 C10,13.266104 9.89688889,13.5175478 9.70755556,13.706797 C9.51822222,13.8960462 9.26755556,14 9,14 L8.99911111,14 L8.99911111,13.9991115 Z" id="Path"></path>
                    <path d="M9.41315505,18 C8.8217419,18 8.24118943,17.8894564 7.68630765,17.6723172 C6.50545603,17.2104029 5.57439994,16.3151973 5.06691019,15.1535026 C4.55843312,13.9918079 4.53374976,12.7018037 4.99680947,11.5203691 C5.45888184,10.3399215 6.3543939,9.409184 7.51648618,8.90186789 C8.12369667,8.63636588 8.76348919,8.50213438 9.41809172,8.50213438 C9.84363273,8.50213438 10.2671991,8.56036716 10.6799047,8.67387174 L13.9943854,5.3546031 C14.4376984,4.91144175 15.0271369,4.66666667 15.6540941,4.66666667 C16.2810513,4.66666667 16.8695024,4.91045476 17.3128154,5.35361611 C17.7561285,5.79579046 18,6.38502727 18,7.01176993 C18,7.6385126 17.7561285,8.2277494 17.3128154,8.66992375 L13.9973474,11.9852444 C14.2698516,12.9702667 14.2165356,14.0253658 13.842336,14.9817652 C13.1344174,16.7879685 11.3552413,18 9.41315505,18 Z M9.42302839,9.98558985 C8.08716531,9.98558985 6.86188365,10.8196017 6.37512792,12.0612431 C5.71855072,13.7381499 6.54889873,15.6381178 8.22637942,16.2944704 C8.60749039,16.4435068 9.00736072,16.5195055 9.41315505,16.5195055 C10.7500055,16.5195055 11.9742998,15.6854936 12.4610555,14.4438522 C12.7592304,13.6809041 12.7612051,12.8389962 12.4659922,12.0750611 C12.4314355,11.9990624 12.4097141,11.8993757 12.4087268,11.7977151 C12.4067521,11.5983418 12.4847515,11.4039036 12.6239656,11.2657241 L16.2642666,7.62568164 C16.4281641,7.46184025 16.5180115,7.24470106 16.5180115,7.01275693 C16.5180115,6.78081279 16.4281641,6.5646606 16.2642666,6.40081921 C16.1003691,6.23796481 15.884143,6.14716115 15.6521194,6.14716115 C15.4200959,6.14716115 15.2038697,6.23697782 15.0399723,6.40081921 L11.4026333,10.0428356 C11.2644065,10.1810151 11.0738511,10.2599748 10.8783589,10.2599748 C10.7845622,10.2599748 10.6937274,10.2422089 10.606842,10.208651 C10.228693,10.0615886 9.82981005,9.98558985 9.42302839,9.98558985 Z" id="Shape"></path>
                </g>
            </g>
        </g>
    </g>
</svg>