<svg xmlns="http://www.w3.org/2000/svg" width="22.6" height="22.6" viewBox="0 0 22.6 22.6">
    <defs>
        <style>.triangle-stroke{stroke:currentColor;}</style>
    </defs>
    <path class="bg"
          d="M12.8 1.8c-.1-.3-.4-.6-.6-.7-.3-.2-.6-.3-.9-.3-.4 0-.7.1-.9.3s-.5.3-.7.6L.9 19.9c-.1.2-.2.5-.2.7 0 .3.1.5.2.7.1.2.3.4.6.5.2.1.5.2.7.2h18.3c.3 0 .5-.1.7-.2.2-.1.4-.3.6-.5.1-.2.2-.5.2-.7 0-.3 0-.5-.2-.7l-9-18.1z"
          fill="none"/>
    <path class="triangle-stroke" d="M12.8 1.8c-.1-.3-.4-.6-.6-.7-.3-.2-.6-.3-.9-.3-.4 0-.7.1-.9.3s-.5.3-.7.6L.9 19.9c-.1.2-.2.5-.2.7 0 .3.1.5.2.7.1.2.3.4.6.5.2.1.5.2.7.2h18.3c.3 0 .5-.1.7-.2.2-.1.4-.3.6-.5.1-.2.2-.5.2-.7 0-.3 0-.5-.2-.7l-9-18.1z"
          fill="none" stroke-width="1.5" stroke-linecap="round" stroke-linejoin="round"/>
    <path class="triangle-stroke" d="M11.3 17.7c-.1 0-.1 0-.2.1-.1 0-.1.1-.1.2v.2c0 .1.1.1.1.2.1.1.1.1.2.1h.2c.1 0 .1-.1.2-.1 0-.1.1-.1.1-.2s0-.2-.1-.3c-.2-.2-.3-.2-.4-.2z"
          fill="none" stroke-width="1.5" stroke-linecap="round" stroke-linejoin="round"/>
    <path d="M11.3 14.9V7.8" fill="none" class="triangle-stroke" stroke-width="1.5" stroke-linecap="round"
          stroke-miterlimit="10"/>
</svg>