<svg viewBox="0 0 140 140" fill="none" xmlns="http://www.w3.org/2000/svg">
    <path d="M43.877 61.0322C34.2286 61.0322 26.377 53.1806 26.377 43.5322C26.377 33.8839 34.2286 26.0322 43.877 26.0322C53.5253 26.0322 61.377 33.8839 61.377 43.5322C61.377 53.1806 53.5253 61.0322 43.877 61.0322ZM43.877 34.7822C39.0528 34.7822 35.127 38.7081 35.127 43.5322C35.127 48.3564 39.0528 52.2822 43.877 52.2822C48.7011 52.2822 52.627 48.3564 52.627 43.5322C52.627 38.7081 48.7011 34.7822 43.877 34.7822Z"
          fill="#B2B6BE"/>
    <path d="M109.742 110.76C108.272 110.76 106.913 110.031 106.097 108.811L83.2008 74.4647C82.915 74.0389 82.4366 73.7822 81.9233 73.7822C81.6258 73.7822 81.3341 73.8697 81.0833 74.0331C80.9258 74.1381 80.7916 74.2722 80.6808 74.4297L64.9775 96.8647C64.2891 97.8506 63.21 98.5156 62.0141 98.6847C61.7983 98.7139 61.5941 98.7314 61.3958 98.7314C60.3983 98.7314 59.4241 98.3872 58.6541 97.7689L48.9241 89.9639C48.65 89.7481 48.3291 89.6314 47.985 89.6314C47.9266 89.6314 47.8683 89.6372 47.81 89.6431C47.3958 89.6897 47.0458 89.8822 46.7891 90.2031L34.3933 108.811C33.5825 110.031 32.2175 110.76 30.7475 110.76C29.8841 110.76 29.0441 110.509 28.3266 110.031C26.32 108.695 25.7716 105.971 27.1075 103.964L39.4216 85.4664C39.585 85.2214 39.7658 84.9706 39.9641 84.7256C41.6733 82.5906 44.1233 81.2431 46.8475 80.9456C47.2325 80.9047 47.6175 80.8814 48.0025 80.8814C50.3416 80.8814 52.5525 81.6631 54.3958 83.1389L60.4858 88.0214L73.5058 69.4189C74.2408 68.3631 75.1625 67.4647 76.2358 66.7472C77.9216 65.6214 79.8816 65.0322 81.9116 65.0322C85.3708 65.0322 88.5733 66.7472 90.4808 69.6172L113.377 103.958C114.024 104.932 114.257 106.099 114.03 107.242C113.797 108.391 113.137 109.377 112.163 110.025C111.446 110.503 110.606 110.76 109.742 110.76Z"
          fill="#B2B6BE"/>
</svg>
