<svg class="info-svg" xmlns="http://www.w3.org/2000/svg" width="22.5" height="22.5" viewBox="0 0 22.5 22.5">
    <circle class="bg" cx="11.2" cy="11.2" r="11.2" fill="none"/>
    <g fill="none">
        <path d="M21.8 11.2c0 5.8-4.7 10.5-10.5 10.5C5.5 21.8.8 17 .8 11.2S5.5.7 11.3.7c5.7.1 10.5 4.8 10.5 10.5z"/>
        <path d="M21.8 11.2c0 5.8-4.7 10.5-10.5 10.5C5.5 21.8.8 17 .8 11.2S5.5.7 11.3.7c5.7.1 10.5 4.8 10.5 10.5z"
              stroke="#000" stroke-width="1.5" stroke-linecap="round" stroke-linejoin="round"/>
        <path d="M13.5 15.8h-.8c-.4 0-.8-.2-1.1-.4-.3-.3-.4-.7-.4-1.1v-3.8c0-.2-.1-.4-.2-.5-.1-.1-.3-.2-.5-.2h-.7M10.9 6c-.1 0-.1 0-.2.1-.1 0-.1.1-.1.2v.2c0 .1.1.1.1.2.1.1.1.1.2.1h.2c.1 0 .1-.1.2-.1 0-.1.1-.1.1-.2s0-.2-.1-.3c-.2-.2-.3-.2-.4-.2z"
              stroke="#000" stroke-width="1.5" stroke-linecap="round" stroke-linejoin="round"/>
    </g>
</svg>