<?xml version="1.0" encoding="utf-8"?>
<!-- Generator: Adobe Illustrator 22.1.0, SVG Export Plug-In . SVG Version: 6.00 Build 0)  -->
<svg version="1.1" id="Layer_1" xmlns="http://www.w3.org/2000/svg" xmlns:xlink="http://www.w3.org/1999/xlink" x="0px" y="0px"
	 viewBox="0 0 24 24" style="enable-background:new 0 0 24 24;" xml:space="preserve">
<title>presentation-audience</title>
<g>
	<path d="M7.793,15.001c-0.383,0-0.701-0.291-0.74-0.676L6.821,12H4.5c-0.414,0-0.75-0.336-0.75-0.75S4.086,10.5,4.5,10.5h15
		c0.414,0,0.75,0.336,0.75,0.75S19.913,12,19.5,12h-2.321l-0.233,2.325C16.908,14.71,16.587,15,16.2,15
		c-0.027,0-0.054-0.001-0.081-0.004c-0.194-0.019-0.373-0.116-0.5-0.271s-0.186-0.35-0.166-0.55L15.671,12H8.329l0.218,2.175
		c0.02,0.199-0.039,0.395-0.166,0.55c-0.127,0.155-0.307,0.251-0.506,0.271C7.853,14.999,7.823,15.001,7.793,15.001z"/>
	<path d="M12,6.75c-1.861,0-3.375-1.514-3.375-3.375S10.139,0,12,0c1.861,0,3.375,1.514,3.375,3.375S13.861,6.75,12,6.75z M12,1.5
		c-1.034,0-1.875,0.841-1.875,1.875S10.966,5.25,12,5.25s1.875-0.841,1.875-1.875S13.034,1.5,12,1.5z"/>
	<path d="M15.249,9c-0.22,0-0.428-0.096-0.571-0.264c-0.669-0.785-1.646-1.236-2.682-1.236c-0.835,0-1.644,0.298-2.279,0.839
		C9.575,8.46,9.442,8.594,9.32,8.737C9.177,8.904,8.969,9,8.749,9C8.571,9,8.398,8.937,8.262,8.821
		C8.11,8.691,8.017,8.51,8.001,8.31c-0.016-0.2,0.047-0.394,0.177-0.546C8.351,7.561,8.542,7.37,8.745,7.197
		c0.907-0.773,2.061-1.198,3.247-1.198c0.135,0,0.271,0.005,0.407,0.016c1.337,0.107,2.552,0.728,3.42,1.749
		c0.13,0.153,0.193,0.346,0.177,0.546s-0.109,0.381-0.261,0.511C15.6,8.937,15.427,9,15.249,9z"/>
	<path d="M3.999,21.75c-1.861,0-3.375-1.514-3.375-3.375S2.138,15,3.999,15s3.375,1.514,3.375,3.375S5.86,21.75,3.999,21.75z
		 M3.999,16.5c-1.034,0-1.875,0.841-1.875,1.875s0.841,1.875,1.875,1.875s1.875-0.841,1.875-1.875S5.033,16.5,3.999,16.5z"/>
	<path d="M0.748,24.001c-0.178,0-0.351-0.064-0.486-0.179C0.109,23.692,0.016,23.51,0,23.31c-0.016-0.2,0.047-0.394,0.177-0.546
		c0.172-0.202,0.363-0.393,0.567-0.567c0.907-0.773,2.06-1.198,3.244-1.198c0.136,0,0.274,0.005,0.411,0.017
		c1.336,0.107,2.55,0.728,3.42,1.749c0.13,0.153,0.193,0.346,0.177,0.546s-0.109,0.381-0.261,0.511C7.599,23.937,7.426,24,7.248,24
		c-0.22,0-0.428-0.096-0.571-0.264c-0.669-0.785-1.646-1.236-2.682-1.236c-0.835,0-1.644,0.298-2.279,0.838
		c-0.143,0.122-0.276,0.255-0.397,0.397C1.177,23.904,0.968,24.001,0.748,24.001z"/>
	<path d="M12,21.75c-1.861,0-3.375-1.514-3.375-3.375S10.139,15,12,15c1.861,0,3.375,1.514,3.375,3.375S13.861,21.75,12,21.75z
		 M12,16.5c-1.034,0-1.875,0.841-1.875,1.875S10.966,20.25,12,20.25s1.875-0.841,1.875-1.875S13.034,16.5,12,16.5z"/>
	<path d="M8.749,24.001c-0.178,0-0.351-0.064-0.486-0.179c-0.152-0.13-0.245-0.311-0.261-0.511c-0.016-0.2,0.047-0.394,0.177-0.546
		c0.172-0.202,0.363-0.393,0.567-0.567c0.907-0.773,2.06-1.198,3.244-1.198c0.136,0,0.274,0.005,0.411,0.017
		c1.336,0.107,2.551,0.728,3.42,1.749c0.13,0.153,0.193,0.346,0.177,0.546s-0.109,0.381-0.261,0.511
		C15.6,23.937,15.427,24,15.249,24c-0.22,0-0.428-0.096-0.571-0.264c-0.669-0.785-1.646-1.236-2.682-1.236
		c-0.835,0-1.644,0.298-2.279,0.838c-0.143,0.122-0.276,0.255-0.397,0.397C9.178,23.904,8.969,24.001,8.749,24.001z"/>
	<path d="M20.001,21.75c-1.861,0-3.375-1.514-3.375-3.375S18.14,15,20.001,15s3.375,1.514,3.375,3.375S21.862,21.75,20.001,21.75z
		 M20.001,16.5c-1.034,0-1.875,0.841-1.875,1.875s0.841,1.875,1.875,1.875s1.875-0.841,1.875-1.875S21.035,16.5,20.001,16.5z"/>
	<path d="M23.25,24.001c-0.22,0-0.428-0.096-0.571-0.264c-0.669-0.785-1.646-1.236-2.682-1.236c-0.835,0-1.644,0.298-2.279,0.838
		c-0.143,0.122-0.277,0.255-0.397,0.397C17.178,23.904,16.97,24,16.75,24c-0.178,0-0.35-0.063-0.486-0.179
		c-0.152-0.13-0.245-0.311-0.261-0.511c-0.016-0.2,0.046-0.394,0.176-0.547c0.173-0.203,0.364-0.394,0.567-0.567
		c0.907-0.773,2.06-1.198,3.244-1.198c0.136,0,0.274,0.005,0.411,0.017c1.336,0.107,2.551,0.728,3.42,1.749
		c0.13,0.153,0.193,0.346,0.177,0.546s-0.109,0.381-0.261,0.511C23.601,23.937,23.429,24.001,23.25,24.001
		C23.25,24.001,23.25,24.001,23.25,24.001z"/>
</g>
</svg>
