<svg xmlns="http://www.w3.org/2000/svg" xmlns:xlink="http://www.w3.org/1999/xlink" width="63" height="32" viewBox="0 0 63 32">
    <defs>
        <path id="prefix__a" d="M0 0.27L62.508 0.27 62.508 32 0 32z"/>
    </defs>
    <g fill="none" fill-rule="evenodd">
        <mask id="prefix__b" fill="#fff">
            <use xlink:href="#prefix__a"/>
        </mask>
        <path fill="#000" d="M37.853 11.144c.629 0 .937-.32.937-.935 0-.627-.308-.946-.937-.946h-2.347V7.44h3.754c.63 0 .938-.32.938-.945 0-.616-.309-.936-.938-.936h-4.737c-.641 0-.984.331-.984.981v6.724c0 .65.343.98.984.98.653 0 .983-.33.983-.98v-2.12h2.347zM28 7.439c.755 0 1.35.342 1.35 1.151 0 .798-.595 1.14-1.35 1.14h-1.67V7.439H28zm1.121 6.178c.184.41.447.627.813.627.492 0 1.143-.365 1.143-.935 0-.171-.034-.342-.125-.525l-.915-1.823c.846-.444 1.35-1.277 1.35-2.37 0-1.79-1.316-3.033-3.215-3.033h-2.838c-.64 0-.984.331-.984.981v6.724c0 .65.344.98.984.98.652 0 .995-.33.995-.98V11.52h1.809l.983 2.097zM20.05 10.22c0 1.334-.812 2.132-1.945 2.132-1.121 0-1.934-.798-1.934-2.132V6.46c0-.65-.343-.98-.995-.98-.64 0-.985.33-.985.98v3.761c0 2.473 1.66 4.069 3.914 4.069 2.266 0 3.925-1.596 3.925-4.069V6.46c0-.65-.344-.98-.995-.98-.641 0-.985.33-.985.98v3.761zM8.848 12.443c-.767 0-1.282-.171-1.717-.319-.309-.103-.584-.183-.881-.183-.572 0-.904.354-.904.924 0 .923 1.888 1.424 3.502 1.424 1.922 0 3.42-1.026 3.42-2.621 0-1.493-.995-2.144-2.082-2.474l-1.613-.49c-.675-.205-.984-.387-.984-.775 0-.433.686-.65 1.236-.65.675 0 1.166.172 1.567.32.275.09.515.182.789.182.527 0 .813-.353.813-.923 0-.923-1.716-1.425-3.17-1.425-1.875 0-3.26 1.048-3.26 2.587 0 1.277.915 2.007 1.956 2.314l1.442.433c.72.217 1.28.4 1.28.844 0 .536-.742.832-1.394.832zm48.88 6.998c2.64 0 4.78 2.13 4.78 4.76v3.04c0 2.629-2.14 4.76-4.78 4.76h-7.132c-2.639 0-4.778-2.131-4.778-4.76v-1.878c0-3.27-2.662-5.922-5.946-5.922H5.946C2.662 19.44 0 16.789 0 13.518V6.193C0 2.922 2.662.27 5.946.27h33.926c3.284 0 5.946 2.652 5.946 5.923v7.325c0 3.271 2.662 5.923 5.947 5.923h5.964z" mask="url(#prefix__b)"/>
    </g>
</svg>
