<?xml version="1.0" encoding="utf-8"?>
<!-- Generator: Adobe Illustrator 24.0.0, SVG Export Plug-In . SVG Version: 6.00 Build 0)  -->
<svg width="210px" height="40px" viewBox="0 0 202.6 62.5" version="1.1" xmlns="http://www.w3.org/2000/svg">
<style type="text/css">
	.st0{fill:#ffffff;}
</style>
<g id="SURFconext">
	<path d="M116.2,13c0.2,0.3,0.4,0.7,0.4,1c0,0.9-0.8,1.6-1.7,1.6c-0.5,0-1-0.2-1.3-0.6c-1-1-2.2-1.6-3.5-1.6c-3.1,0-5.3,2.4-5.3,5.6
		s2.2,5.6,5.3,5.6c1.3,0,2.5-0.6,3.5-1.6c0.4-0.4,0.9-0.6,1.4-0.6c0.9,0,1.7,0.7,1.7,1.6c0,0.4-0.1,0.7-0.4,1
		c-1.3,1.5-3.2,2.8-6.1,2.8c-5.1,0-9-3.6-9-8.8s3.9-8.8,9-8.8C112.9,10.2,114.9,11.4,116.2,13z" fill="#ffffff"/>
	<path d="M127.3,27.7c-5.1,0-8.8-3.7-8.8-8.8s3.7-8.8,8.8-8.8c5.1,0,8.9,3.7,8.9,8.8S132.4,27.7,127.3,27.7z M127.3,13.4
		c-3.1,0-5.1,2.4-5.1,5.6c0,3.2,2,5.6,5.1,5.6s5.2-2.4,5.2-5.6C132.5,15.7,130.4,13.4,127.3,13.4z" fill="#ffffff"/>
	<path d="M151.6,27.5c-0.7,0-1.4-0.3-1.8-0.9l-7.5-10.3v9.4c0,1-0.8,1.8-1.8,1.8c-1,0-1.8-0.8-1.8-1.8V12.6c0-1.2,1-2.3,2.4-2.3
		c0.8,0,1.5,0.4,2,1l7.2,9.8v-9c0-1,0.8-1.8,1.8-1.8c1,0,1.8,0.8,1.8,1.8v13.3C153.9,26.5,152.9,27.5,151.6,27.5z" fill="#ffffff"/>
	<path d="M168.8,27.4h-8.6c-1.1,0-2-0.9-2-2V12.5c0-1.1,0.9-2,2-2h8.6c0.8,0,1.5,0.7,1.5,1.6c0,0.9-0.7,1.6-1.5,1.6h-7v3.6h6.8
		c0.8,0,1.6,0.7,1.6,1.6c0,0.9-0.7,1.6-1.6,1.6h-6.8v3.8h7c0.8,0,1.5,0.7,1.5,1.5C170.4,26.7,169.7,27.4,168.8,27.4z" fill="#ffffff"/>
	<path d="M185.1,27.5c-0.6,0-1.1-0.3-1.4-0.8l-3.8-5.6l-3.9,5.6c-0.3,0.5-0.9,0.7-1.4,0.7c-0.9,0-1.8-0.7-1.8-1.7
		c0-0.4,0.1-0.7,0.3-1l4.3-6.1l-4-5.7c-0.2-0.3-0.3-0.6-0.3-0.9c0-0.9,0.7-1.7,1.8-1.7c0.6,0,1.1,0.3,1.5,0.8l3.5,5.1l3.4-5.1
		c0.3-0.5,0.9-0.8,1.5-0.8c1,0,1.8,0.8,1.8,1.7c0,0.3-0.1,0.7-0.3,1l-4,5.7l4.3,6.1c0.2,0.3,0.3,0.6,0.3,1
		C186.9,26.6,186.2,27.5,185.1,27.5z" fill="#ffffff"/>
	<path d="M201.1,13.6h-3.5v12.1c0,1-0.8,1.8-1.8,1.8c-1,0-1.8-0.8-1.8-1.8V13.6h-3.5c-0.9,0-1.6-0.7-1.6-1.6c0-0.8,0.7-1.5,1.6-1.5
		h10.7c0.8,0,1.5,0.7,1.5,1.6C202.6,12.9,201.9,13.6,201.1,13.6z" fill="#ffffff"/>
	<g id="surf_5_">
		<path class="st0" d="M113.2,37.7c5.2,0,9.4,4.2,9.4,9.4v6c0,5.2-4.2,9.4-9.4,9.4h-14c-5.2,0-9.4-4.2-9.4-9.4v-3.7
			c0-6.4-5.2-11.7-11.7-11.7H11.7C5.2,37.7,0,32.5,0,26.1V11.7C0,5.2,5.2,0,11.7,0h66.5c6.4,0,11.7,5.2,11.7,11.7v14.4
			c0,6.4,5.2,11.7,11.7,11.7H113.2z M17.4,24c-1.5,0-2.5-0.3-3.4-0.6c-0.6-0.2-1.1-0.4-1.7-0.4c-1.1,0-1.8,0.7-1.8,1.8
			c0,1.8,3.7,2.8,6.9,2.8c3.8,0,6.7-2,6.7-5.2c0-2.9-2-4.2-4.1-4.9l-3.2-1c-1.3-0.4-1.9-0.8-1.9-1.5c0-0.9,1.3-1.3,2.4-1.3
			c1.3,0,2.3,0.3,3.1,0.6c0.5,0.2,1,0.4,1.5,0.4c1,0,1.6-0.7,1.6-1.8c0-1.8-3.4-2.8-6.2-2.8c-3.7,0-6.4,2.1-6.4,5.1
			c0,2.5,1.8,3.9,3.8,4.6l2.8,0.9c1.4,0.4,2.5,0.8,2.5,1.7C20.1,23.4,18.6,24,17.4,24z M39.3,19.6c0,2.6-1.6,4.2-3.8,4.2
			c-2.2,0-3.8-1.6-3.8-4.2v-7.4c0-1.3-0.7-1.9-2-1.9c-1.3,0-1.9,0.7-1.9,1.9v7.4c0,4.9,3.3,8,7.7,8c4.4,0,7.7-3.1,7.7-8v-7.4
			c0-1.3-0.7-1.9-2-1.9c-1.3,0-1.9,0.7-1.9,1.9V19.6z M57.1,26.3c0.4,0.8,0.9,1.2,1.6,1.2c1,0,2.2-0.7,2.2-1.8c0-0.3-0.1-0.7-0.2-1
			L58.9,21c1.7-0.9,2.6-2.5,2.6-4.7c0-3.5-2.6-6-6.3-6h-5.6c-1.3,0-1.9,0.7-1.9,1.9v13.2c0,1.3,0.7,1.9,1.9,1.9c1.3,0,2-0.7,2-1.9
			v-3.4h3.5L57.1,26.3z M54.9,14.1c1.5,0,2.6,0.7,2.6,2.3c0,1.6-1.2,2.2-2.6,2.2h-3.3v-4.5H54.9z M74.2,21.4c1.2,0,1.8-0.6,1.8-1.8
			c0-1.2-0.6-1.9-1.8-1.9h-4.6v-3.6H77c1.2,0,1.8-0.6,1.8-1.9c0-1.2-0.6-1.8-1.8-1.8h-9.3c-1.3,0-1.9,0.7-1.9,1.9v13.2
			c0,1.3,0.7,1.9,1.9,1.9c1.3,0,1.9-0.7,1.9-1.9v-4.2H74.2z"/>
	</g>
</g>
</svg>
