<?xml version="1.0" encoding="UTF-8"?>
<svg width="100px" height="40px" viewBox="0 0 134 49" version="1.1" xmlns="http://www.w3.org/2000/svg" xmlns:xlink="http://www.w3.org/1999/xlink">
    <g id="Logo-eduID-export" stroke="none" stroke-width="1" fill="none" fill-rule="evenodd">
        <g id="Logo" transform="translate(0.000000, 2.000000)">
            <rect id="Rectangle" fill="#173552" x="0" y="3" width="119" height="44" rx="4"></rect>
            <g id="eduID" transform="translate(11.258000, 10.959000)" fill-rule="nonzero">
                <path d="M8.211,25.279 C8.83433333,25.279 9.46333333,25.2251667 10.098,25.1175 C10.7326667,25.0098333 11.3475,24.8483333 11.9425,24.633 C12.5375,24.4176667 13.0956667,24.1428333 13.617,23.8085 C14.1383333,23.4741667 14.586,23.0803333 14.96,22.627 L14.96,22.627 L14.11,21.522 C13.974,21.3293333 13.7813333,21.233 13.532,21.233 C13.3393333,21.233 13.1098333,21.3208333 12.8435,21.4965 C12.5771667,21.6721667 12.2456667,21.862 11.849,22.066 C11.4523333,22.27 10.9791667,22.4598333 10.4295,22.6355 C9.87983333,22.8111667 9.22533333,22.899 8.466,22.899 C7.65,22.899 6.91333333,22.7658333 6.256,22.4995 C5.59866667,22.2331667 5.032,21.8308333 4.556,21.2925 C4.08,20.7541667 3.706,20.0826667 3.434,19.278 C3.162,18.4733333 3.01466667,17.527 2.992,16.439 L2.992,16.439 L14.45,16.439 C14.7333333,16.439 14.926,16.3596667 15.028,16.201 C15.13,16.0423333 15.181,15.725 15.181,15.249 C15.181,14.025 15.0025,12.9341667 14.6455,11.9765 C14.2885,11.0188333 13.7926667,10.2141667 13.158,9.5625 C12.5233333,8.91083333 11.7696667,8.41216667 10.897,8.0665 C10.0243333,7.72083333 9.07233333,7.548 8.041,7.548 C6.79433333,7.548 5.67233333,7.76616667 4.675,8.2025 C3.67766667,8.63883333 2.83333333,9.2395 2.142,10.0045 C1.45066667,10.7695 0.920833333,11.6733333 0.5525,12.716 C0.184166667,13.7586667 2.13162821e-14,14.8806667 2.13162821e-14,16.082 C2.13162821e-14,17.5666667 0.204,18.8813333 0.612,20.026 C1.02,21.1706667 1.5895,22.1311667 2.3205,22.9075 C3.0515,23.6838333 3.9185,24.2731667 4.9215,24.6755 C5.9245,25.0778333 7.021,25.279 8.211,25.279 Z M12.461,14.552 L3.094,14.552 C3.298,13.056 3.81933333,11.8858333 4.658,11.0415 C5.49666667,10.1971667 6.647,9.775 8.109,9.775 C8.80033333,9.775 9.41516667,9.89116667 9.9535,10.1235 C10.4918333,10.3558333 10.948,10.6845 11.322,11.1095 C11.696,11.5345 11.9793333,12.0388333 12.172,12.6225 C12.3646667,13.2061667 12.461,13.8493333 12.461,14.552 L12.461,14.552 Z M24.293,25.279 C25.517,25.279 26.6021667,25.0098333 27.5485,24.4715 C28.4948333,23.9331667 29.3363333,23.2163333 30.073,22.321 L30.073,22.321 L30.345,24.412 C30.4583333,24.8313333 30.7303333,25.041 31.161,25.041 L31.161,25.041 L32.963,25.041 L32.963,-3.55271368e-15 L29.937,-3.55271368e-15 L29.937,9.554 C29.3476667,8.908 28.679,8.4065 27.931,8.0495 C27.183,7.6925 26.282,7.514 25.228,7.514 C24.0606667,7.514 23.018,7.7435 22.1,8.2025 C21.182,8.6615 20.4028333,9.29333333 19.7625,10.098 C19.1221667,10.9026667 18.632,11.8518333 18.292,12.9455 C17.952,14.0391667 17.782,15.2206667 17.782,16.49 C17.782,17.918 17.935,19.1816667 18.241,20.281 C18.547,21.3803333 18.9833333,22.2983333 19.55,23.035 C20.1166667,23.7716667 20.8023333,24.3298333 21.607,24.7095 C22.4116667,25.0891667 23.307,25.279 24.293,25.279 Z M25.296,22.831 C24.5933333,22.831 23.97,22.712 23.426,22.474 C22.882,22.236 22.423,21.8591667 22.049,21.3435 C21.675,20.8278333 21.3916667,20.1705 21.199,19.3715 C21.0063333,18.5725 20.91,17.612 20.91,16.49 C20.91,14.3706667 21.3406667,12.7386667 22.202,11.594 C23.0633333,10.4493333 24.2986667,9.877 25.908,9.877 C26.7126667,9.877 27.4465,10.0271667 28.1095,10.3275 C28.7725,10.6278333 29.3816667,11.152 29.937,11.9 L29.937,11.9 L29.937,20.23 C29.3136667,21.0573333 28.6308333,21.6976667 27.8885,22.151 C27.1461667,22.6043333 26.282,22.831 25.296,22.831 Z M43.401,25.313 C44.6023333,25.313 45.6676667,25.0608333 46.597,24.5565 C47.5263333,24.0521667 48.365,23.3863333 49.113,22.559 L49.113,22.559 L49.351,24.412 C49.4643333,24.8313333 49.7363333,25.041 50.167,25.041 L50.167,25.041 L51.969,25.041 L51.969,7.82 L48.943,7.82 L48.943,20.519 C48.2856667,21.267 47.566,21.8506667 46.784,22.27 C46.002,22.6893333 45.169,22.899 44.285,22.899 C43.0723333,22.899 42.1656667,22.542 41.565,21.828 C40.9643333,21.114 40.664,20.1053333 40.664,18.802 L40.664,18.802 L40.664,7.82 L37.638,7.82 L37.638,18.802 C37.638,19.7766667 37.7598333,20.6663333 38.0035,21.471 C38.2471667,22.2756667 38.6126667,22.9613333 39.1,23.528 C39.5873333,24.0946667 40.1908333,24.5338333 40.9105,24.8455 C41.6301667,25.1571667 42.4603333,25.313 43.401,25.313 Z" id="edu" fill="#FFFFFF"></path>
                <path d="M61.336,25.041 L61.336,0.68 L58.038,0.68 L58.038,25.041 L61.336,25.041 Z M76.976,25.041 C78.7666667,25.041 80.3986667,24.7491667 81.872,24.1655 C83.3453333,23.5818333 84.609,22.7573333 85.663,21.692 C86.717,20.6266667 87.533,19.346 88.111,17.85 C88.689,16.354 88.978,14.6936667 88.978,12.869 C88.978,11.0443333 88.689,9.384 88.111,7.888 C87.533,6.392 86.717,5.1085 85.663,4.0375 C84.609,2.9665 83.3453333,2.13916667 81.872,1.5555 C80.3986667,0.971833333 78.7666667,0.68 76.976,0.68 L76.976,0.68 L67.864,0.68 L67.864,25.041 L76.976,25.041 Z M76.976,22.372 L71.179,22.372 L71.179,3.349 L76.976,3.349 C78.2793333,3.349 79.4636667,3.56433333 80.529,3.995 C81.5943333,4.42566667 82.501,5.049 83.249,5.865 C83.997,6.681 84.575,7.67833333 84.983,8.857 C85.391,10.0356667 85.595,11.373 85.595,12.869 C85.595,14.365 85.391,15.7023333 84.983,16.881 C84.575,18.0596667 83.997,19.0541667 83.249,19.8645 C82.501,20.6748333 81.5943333,21.2953333 80.529,21.726 C79.4636667,22.1566667 78.2793333,22.372 76.976,22.372 L76.976,22.372 Z" id="ID" fill="#33AFDB"></path>
            </g>
            <g id="Group" transform="translate(106.000000, 0.000000)" fill-rule="nonzero">
                <path d="M12.8401316,-0.805753071 L12.0892851,-0.444767889 C11.7770322,-0.294645744 11.5159046,-0.172930101 11.305843,-0.079750603 C11.0924099,0.0149244311 10.8760924,0.109599096 10.6568909,0.20427413 C10.4373661,0.299088772 10.1918359,0.404417058 8.99668395,0.887934598 C8.70188783,1.00825333 8.38601534,1.12723939 8.04910644,1.24499781 C7.71001624,1.36351866 7.48337299,1.44103878 7.01681001,1.58463301 C6.88673601,1.6224321 6.70732643,1.67606201 6.47860427,1.74557883 C6.2608027,1.8117765 6.00108244,1.88294243 5.69951329,1.95932378 C5.3933358,2.03687233 5.03043709,2.11949491 4.61086206,2.20738295 C4.19355016,2.29479693 3.85804221,2.35926383 3.60426925,2.40040018 C3.34261948,2.44281335 2.90944335,2.51173219 2.30474167,2.60716182 C1.7033939,2.70206217 1.25527805,2.7706279 0.960386271,2.81280584 C0.555115625,2.87077112 0.262599353,2.91454939 -0.750543623,3.16169238 L-0.749387715,4.42298805 C-0.745623375,4.81188532 -0.725292054,5.40618019 -0.688002186,6.21249346 C-0.646982673,7.0994523 -0.614725302,7.73795422 -0.591285585,8.1280023 C-0.568122356,8.51344949 -0.547852585,8.87777617 -0.530480163,9.22098258 C-0.512698681,9.57227031 -0.474321366,10.0938079 -0.415049562,10.7855768 C-0.355146552,11.4847126 -0.315694453,11.9024903 -0.297723887,12.0390377 C-0.27893299,12.1818183 -0.220845021,12.4819044 -0.12061354,12.9388632 C-0.0263155365,13.3687711 0.0473799145,13.6965701 0.100422521,13.9222716 C0.154468062,14.1522408 0.24731572,14.5027299 0.379428278,14.9736235 C0.511159169,15.4431567 0.631035164,15.8416759 0.738814499,16.1692558 C0.846914145,16.4978091 0.955042964,16.8071864 1.06314248,17.0974082 C1.17301534,17.3923911 1.25868272,17.6121502 1.31972236,17.7568567 C1.37854896,17.8963169 1.46083959,18.086762 1.89151429,19.059826 C2.00166288,19.2941726 2.08706621,19.470068 2.37133615,19.9847553 C2.44790294,20.113643 2.56274408,20.3042947 2.71587768,20.5566997 C2.86967504,20.8101987 2.96438026,20.9661433 4.96207795,23.7546831 C5.02001276,23.8297507 5.07726747,23.9025751 5.60175684,24.5059273 C5.66000596,24.571598 5.81857156,24.7344616 6.08395269,24.9992122 C6.33343368,25.2481005 6.49486865,25.4086674 6.56824541,25.4809253 C6.6434357,25.5549691 6.77510949,25.6790628 7.66309707,26.454284 C7.88342536,26.6325446 8.02641928,26.7453972 8.09158463,26.7934977 C8.14870577,26.8356605 8.2789682,26.9402154 8.48296276,27.1063786 C8.70830843,27.2899334 8.87962351,27.4268475 8.99680286,27.5172548 C9.11295636,27.6068706 9.24822128,27.7150743 11.9205437,29.383899 C12.1432229,29.4884956 12.2068635,29.8124267 15.9930893,28.273269 C16.0674557,28.2217351 16.1766123,28.1425503 17.6357211,27.0047041 C17.6945328,26.957499 17.832489,26.8451724 18.8906678,25.9670694 C19.0825733,25.7920886 19.3045104,25.5816135 19.5563871,25.3355461 C19.8065028,25.091199 20.0238401,24.8739767 20.2084491,24.6839292 C20.3936585,24.4932637 20.5174134,24.3664988 22.4092808,21.9073204 C22.4566383,21.8411097 22.5582367,21.6860424 22.9705388,21.0393352 C23.0105743,20.9803662 23.1280857,20.7925414 23.3221117,20.4752189 C23.5060564,20.1743841 23.612627,20.000006 23.6418246,19.9520854 C23.6741921,19.8989621 23.772959,19.7110118 23.9348378,19.3862869 C24.085762,19.0835367 24.2094239,18.8247784 24.3060149,18.6101021 C24.4011818,18.3985908 24.4814642,18.2169016 24.5468914,18.0650474 C24.6131737,17.9112086 24.6976061,17.7052045 24.8000428,17.4469742 C24.9012553,17.1918299 24.9758381,16.9964619 25.3961807,15.7506434 C25.4871562,15.457546 25.5659465,15.1837887 25.6326617,14.929403 C25.6973134,14.6828851 25.7707863,14.3961754 25.8530704,14.0692712 C25.9365597,13.7375785 26.0140815,13.4086037 26.0856438,13.0823486 C26.1591336,12.7473062 26.2235246,12.3927346 26.2786423,12.0186018 C26.3330703,11.6491503 26.3817077,11.2052846 26.4240411,10.6869432 C26.4651384,10.183737 26.5210201,9.30045666 26.5914727,8.03708642 C26.6619865,6.77261929 26.7059615,5.74121836 26.7235899,4.94289037 L26.7465127,3.69330043 C26.6113752,3.32742343 26.5044984,3.18363085 26.500957,3.18040171 C26.4962124,3.17607555 26.2231719,3.01029213 25.5032614,2.88085731 C25.0022039,2.79077072 24.7481277,2.75742166 24.7410894,2.75742166 C24.7362261,2.75742166 24.554243,2.72293289 24.1951096,2.66983121 C23.7623165,2.60583817 23.4903582,2.5658457 23.3792357,2.54984744 C23.2710508,2.53427212 23.0034583,2.48999704 22.5764148,2.41731254 C22.1494093,2.34463451 21.8960239,2.3006582 21.8163158,2.28508426 C21.7361612,2.26942308 21.5586831,2.23284602 21.2838676,2.17542175 C21.0133861,2.11890306 20.7344565,2.05465769 20.4470701,1.98272488 C20.1567503,1.91005783 19.9174932,1.84751868 18.9759043,1.57171531 C18.8894168,1.5435961 18.6974381,1.48088957 18.3998014,1.3835998 C18.0995949,1.28547004 17.8701621,1.20808388 17.7115619,1.15127171 C17.5547942,1.09511596 17.3309042,1.00816319 17.039767,0.890747775 C16.623749,0.722968018 16.398703,0.658885176 16.3709169,0.655265812 C16.3546174,0.653142665 16.1093022,0.520095739 15.6272382,0.311888203 C15.0260214,0.0522174887 14.6735897,-0.101127697 14.5700306,-0.148340641 C14.4619698,-0.197605973 14.2347577,-0.304093788 13.8883614,-0.467732148 L12.8401316,-0.805753071 Z" id="Shape" stroke="#FFFFFF" stroke-width="1.5" fill="#33AFDB"></path>
                <path d="M5.696,18.12 C5.83466667,18.12 5.96533333,18.0946667 6.088,18.044 C6.21066667,17.9933333 6.31733333,17.9226667 6.408,17.832 C6.49866667,17.7413333 6.56933333,17.636 6.62,17.516 C6.67066667,17.396 6.696,17.264 6.696,17.12 C6.696,16.9813333 6.67066667,16.8506667 6.62,16.728 C6.56933333,16.6053333 6.49866667,16.4986667 6.408,16.408 C6.31733333,16.3173333 6.21066667,16.2453333 6.088,16.192 C5.96533333,16.1386667 5.83466667,16.112 5.696,16.112 C5.55733333,16.112 5.42666667,16.1386667 5.304,16.192 C5.18133333,16.2453333 5.076,16.3173333 4.988,16.408 C4.9,16.4986667 4.83066667,16.6053333 4.78,16.728 C4.72933333,16.8506667 4.704,16.9813333 4.704,17.12 C4.704,17.264 4.72933333,17.396 4.78,17.516 C4.83066667,17.636 4.9,17.7413333 4.988,17.832 C5.076,17.9226667 5.18133333,17.9933333 5.304,18.044 C5.42666667,18.0946667 5.55733333,18.12 5.696,18.12 Z M9.984,18 L9.984,12.032 C10.2933333,11.6853333 10.6306667,11.4106667 10.996,11.208 C11.3613333,11.0053333 11.7546667,10.904 12.176,10.904 C12.752,10.904 13.18,11.0733333 13.46,11.412 C13.74,11.7506667 13.88,12.2266667 13.88,12.84 L13.88,12.84 L13.88,18 L15.304,18 L15.304,12.84 C15.304,12.3813333 15.2453333,11.9626667 15.128,11.584 C15.0106667,11.2053333 14.8386667,10.8813333 14.612,10.612 C14.3853333,10.3426667 14.1026667,10.1346667 13.764,9.988 C13.4253333,9.84133333 13.0346667,9.768 12.592,9.768 C12.0213333,9.768 11.5186667,9.888 11.084,10.128 C10.6493333,10.368 10.256,10.6826667 9.904,11.072 L9.904,11.072 L9.792,10.192 C9.73866667,9.99466667 9.61066667,9.896 9.408,9.896 L9.408,9.896 L8.56,9.896 L8.56,18 L9.984,18 Z M19.04,18 L19.04,6.216 L17.616,6.216 L17.616,18 L19.04,18 Z" id=".nl" fill="#FFFFFF"></path>
            </g>
        </g>
    </g>
</svg>