<?xml version="1.0" encoding="UTF-8"?>
<svg class="edubadges-logo" width="148px" height="36px" viewBox="0 0 148 36" version="1.1" xmlns="http://www.w3.org/2000/svg" xmlns:xlink="http://www.w3.org/1999/xlink">
    <title>Logo Edubadges</title>
    <g id="Symbols" stroke="none" stroke-width="1" fill="none" fill-rule="evenodd">
        <g id="Header/Issuer-portal-admin" transform="translate(-14.000000, -12.000000)" fill-rule="nonzero">
            <g id="Logo-Edubadges-2020EB-Copy" transform="translate(14.000000, 12.000000)">
                <rect id="Rectangle" fill="#173552" x="0" y="0" width="147.272727" height="36" rx="4"></rect>
                <g id="edubadges" transform="translate(9.211091, 6.511909)">
                    <path d="M6.71809091,20.6828182 C7.22809091,20.6828182 7.74272727,20.6387728 8.262,20.5506818 C8.78127275,20.4625909 9.28431818,20.3304545 9.77113636,20.1542727 C10.2579545,19.9780909 10.7146364,19.7532272 11.1411818,19.4796818 C11.5677272,19.2061364 11.934,18.8839091 12.24,18.513 L12.24,18.513 L11.5445455,17.6089091 C11.4332727,17.4512727 11.2756363,17.3724545 11.0716364,17.3724545 C10.914,17.3724545 10.7262272,17.4443182 10.5083182,17.5880455 C10.2904091,17.7317728 10.0191818,17.8870909 9.69463636,18.054 C9.37009088,18.2209091 8.98295457,18.3762272 8.53322727,18.5199545 C8.0835,18.6636818 7.548,18.7355455 6.92672727,18.7355455 C6.25909091,18.7355455 5.65636363,18.6265909 5.11854545,18.4086818 C4.58072728,18.1907728 4.11709091,17.8615909 3.72763636,17.4211364 C3.33818182,16.9806818 3.03218182,16.4312728 2.80963636,15.7729091 C2.58709091,15.1145454 2.46654546,14.3402727 2.448,13.4500909 L2.448,13.4500909 L11.8227273,13.4500909 C12.0545454,13.4500909 12.2121818,13.3851818 12.2956364,13.2553636 C12.3790909,13.1255454 12.4208182,12.8659091 12.4208182,12.4764545 C12.4208182,11.475 12.2747727,10.5825 11.9826818,9.79895455 C11.6905909,9.01540906 11.2849091,8.35704548 10.7656364,7.82386364 C10.2463636,7.29068182 9.6297273,6.88268182 8.91572727,6.59986364 C8.20172725,6.31704545 7.42281818,6.17563636 6.579,6.17563636 C5.559,6.17563636 4.641,6.35413637 3.825,6.71113636 C3.009,7.06813636 2.31818182,7.55959091 1.75254545,8.1855 C1.18690909,8.81140909 0.753409091,9.55090906 0.452045455,10.404 C0.150681818,11.2570909 -5.81353148e-15,12.1750909 -5.81353148e-15,13.158 C-5.81353148e-15,14.3727273 0.166909091,15.4483636 0.500727273,16.3849091 C0.834545455,17.3214546 1.3005,18.1073182 1.89859091,18.7425 C2.49668182,19.3776818 3.20604545,19.8598637 4.02668182,20.1890455 C4.84731818,20.5182272 5.74445455,20.6828182 6.71809091,20.6828182 Z M10.1953636,11.9061818 L2.53145455,11.9061818 C2.69836364,10.6821818 3.12490909,9.7247727 3.81109091,9.03395455 C4.49727273,8.34313639 5.43845455,7.99772727 6.63463636,7.99772727 C7.20027272,7.99772727 7.70331818,8.09277273 8.14377273,8.28286364 C8.58422725,8.47295452 8.95745455,8.74186364 9.26345455,9.08959091 C9.56945455,9.43731818 9.8012727,9.84995452 9.95890909,10.3275 C10.1165455,10.8050455 10.1953636,11.3312727 10.1953636,11.9061818 L10.1953636,11.9061818 Z M19.8760909,20.6828182 C20.8775455,20.6828182 21.7654091,20.4625909 22.5396818,20.0221364 C23.3139545,19.5816818 24.0024545,18.9951818 24.6051818,18.2626364 L24.6051818,18.2626364 L24.8277273,19.9734545 C24.9204545,20.3165454 25.143,20.4880909 25.4953636,20.4880909 L25.4953636,20.4880909 L26.9697273,20.4880909 L26.9697273,-2.90676574e-15 L24.4939091,-2.90676574e-15 L24.4939091,7.81690909 C24.0117273,7.28836364 23.4646364,6.87804545 22.8526364,6.58595455 C22.2406364,6.29386364 21.5034545,6.14781818 20.6410909,6.14781818 C19.686,6.14781818 18.8329091,6.33559091 18.0818182,6.71113636 C17.3307273,7.08668182 16.6932272,7.60363636 16.1693182,8.262 C15.6454091,8.92036366 15.2443636,9.69695452 14.9661818,10.5917727 C14.688,11.4865909 14.5489091,12.4532728 14.5489091,13.4918182 C14.5489091,14.6601818 14.6740909,15.6940909 14.9244545,16.5935455 C15.1748182,17.493 15.5318182,18.2440909 15.9954545,18.8468182 C16.4590909,19.4495455 17.0200909,19.9062272 17.6784545,20.2168636 C18.3368182,20.5275 19.0693636,20.6828182 19.8760909,20.6828182 Z M20.6967273,18.6799091 C20.1218182,18.6799091 19.6118182,18.5825455 19.1667273,18.3878182 C18.7216364,18.1930909 18.3460909,17.8847728 18.0400909,17.4628636 C17.7340909,17.0409545 17.5022728,16.5031364 17.3446364,15.8494091 C17.187,15.1956818 17.1081818,14.4098182 17.1081818,13.4918182 C17.1081818,11.7578182 17.4605455,10.4225455 18.1652727,9.486 C18.87,8.54945452 19.8807273,8.08118182 21.1974545,8.08118182 C21.8558182,8.08118182 22.4562273,8.20404548 22.9986818,8.44977273 C23.5411364,8.69549997 24.0395455,9.12436364 24.4939091,9.73636364 L24.4939091,9.73636364 L24.4939091,16.5518182 C23.9839091,17.2287272 23.4252272,17.7526364 22.8178636,18.1235455 C22.2105,18.4944545 21.5034545,18.6799091 20.6967273,18.6799091 Z M35.5099091,20.7106364 C36.4928182,20.7106364 37.3644546,20.5043182 38.1248182,20.0916818 C38.8851818,19.6790455 39.5713636,19.1342727 40.1833636,18.4573636 L40.1833636,18.4573636 L40.3780909,19.9734545 C40.4708182,20.3165454 40.6933636,20.4880909 41.0457273,20.4880909 L41.0457273,20.4880909 L42.5200909,20.4880909 L42.5200909,6.39818182 L40.0442727,6.39818182 L40.0442727,16.7882727 C39.5064546,17.4002727 38.9176364,17.8778182 38.2778182,18.2209091 C37.638,18.564 36.9564545,18.7355455 36.2331818,18.7355455 C35.241,18.7355455 34.4991818,18.4434545 34.0077273,17.8592727 C33.5162727,17.2750909 33.2705455,16.4498182 33.2705455,15.3834545 L33.2705455,15.3834545 L33.2705455,6.39818182 L30.7947273,6.39818182 L30.7947273,15.3834545 C30.7947273,16.1809091 30.8944091,16.9088182 31.0937727,17.5671818 C31.2931364,18.2255455 31.5921818,18.7865454 31.9909091,19.2501818 C32.3896363,19.7138182 32.8834091,20.0731363 33.4722273,20.3281364 C34.0610455,20.5831364 34.7402727,20.7106364 35.5099091,20.7106364 Z" id="edu" fill="#FFFFFF"></path>
                    <path d="M53.0214545,20.6828182 C53.9672727,20.6828182 54.8180454,20.4950455 55.5737727,20.1195 C56.3295,19.7439545 56.9693182,19.2293182 57.4932273,18.5755909 C58.0171363,17.9218636 58.4181818,17.1475909 58.6963636,16.2527727 C58.9745455,15.3579545 59.1136364,14.3912727 59.1136364,13.3527273 C59.1136364,12.1843636 58.9884545,11.1527728 58.7380909,10.2579545 C58.4877273,9.36313634 58.1307273,8.61204543 57.6670909,8.00468182 C57.2034545,7.39731818 56.6424546,6.94063636 55.9840909,6.63463636 C55.3257272,6.32863636 54.5885454,6.17563636 53.7725455,6.17563636 C52.7989091,6.17563636 51.9342273,6.38195455 51.1785,6.79459091 C50.4227727,7.20722727 49.7528182,7.752 49.1686364,8.42890909 L49.1686364,8.42890909 L49.1686364,-5.81353148e-15 L46.6789091,-5.81353148e-15 L46.6789091,20.4880909 L48.2784545,20.4880909 C48.6308182,20.4880909 48.8440909,20.3119091 48.9182727,19.9595455 L48.9182727,19.9595455 L49.0434545,18.6799091 C49.5163636,19.3104546 50.0704091,19.8019091 50.7055909,20.1542727 C51.3407727,20.5066364 52.1127272,20.6828182 53.0214545,20.6828182 Z M52.4650909,18.7633636 C51.7974545,18.7633636 51.1924091,18.6381818 50.6499545,18.3878182 C50.1075,18.1374545 49.6137273,17.7062727 49.1686364,17.0942727 L49.1686364,17.0942727 L49.1686364,10.2788182 C49.6786363,9.60190912 50.2373182,9.07799997 50.8446818,8.70709091 C51.4520454,8.33618185 52.1590909,8.15072727 52.9658182,8.15072727 C53.5314545,8.15072727 54.0368182,8.24809091 54.4819091,8.44281818 C54.927,8.63754545 55.3025455,8.94586361 55.6085455,9.36777273 C55.9145455,9.78968185 56.1486818,10.3298182 56.3109545,10.9881818 C56.4732272,11.6465455 56.5543636,12.4347273 56.5543636,13.3527273 C56.5543636,15.0867272 56.202,16.422 55.4972727,17.3585455 C54.7925455,18.2950909 53.7818182,18.7633636 52.4650909,18.7633636 Z M65.331,20.7106364 C65.8688182,20.7106364 66.3579546,20.6642727 66.7984091,20.5715455 C67.2388636,20.4788182 67.6538182,20.3420455 68.0432727,20.1612273 C68.4327273,19.9804091 68.8036363,19.7578636 69.156,19.4935909 C69.5083637,19.2293182 69.87,18.9302727 70.2409091,18.5964545 L70.2409091,18.5964545 L70.5190909,19.9039091 C70.5654546,20.145 70.6628182,20.3026363 70.8111818,20.3768182 C70.9595454,20.451 71.1542727,20.4880909 71.3953636,20.4880909 L71.3953636,20.4880909 L72.4941818,20.4880909 L72.4941818,11.475 C72.4941818,10.6868182 72.3875455,9.96354548 72.1742727,9.30518182 C71.961,8.64681815 71.6457273,8.08581818 71.2284545,7.62218182 C70.8111818,7.15854545 70.2965455,6.79690909 69.6845455,6.53727273 C69.0725455,6.27763637 68.3724545,6.14781818 67.5842727,6.14781818 C66.4900909,6.14781818 65.4932727,6.33327273 64.5938182,6.70418182 C63.6943637,7.07509091 62.8551818,7.63609091 62.0762727,8.38718182 L62.0762727,8.38718182 L62.5213636,9.18 C62.5955455,9.30981821 62.6952273,9.4187727 62.8204091,9.50686364 C62.9455909,9.59495457 63.0916364,9.639 63.2585455,9.639 C63.4718182,9.639 63.6874091,9.5625 63.9053182,9.4095 C64.1232272,9.2565 64.3828637,9.08495452 64.6842273,8.89486364 C64.9855909,8.70477275 65.3425909,8.53322727 65.7552273,8.38022727 C66.1678636,8.22722727 66.6755454,8.15072727 67.2782727,8.15072727 C68.1962727,8.15072727 68.8894091,8.43122725 69.3576818,8.99222727 C69.8259545,9.5532273 70.0600909,10.3808182 70.0600909,11.475 L70.0600909,11.475 L70.0600909,12.5738182 C68.4651818,12.6109091 67.116,12.7569545 66.0125455,13.0119545 C64.9090909,13.2669546 64.0165909,13.5938182 63.3350455,13.9925455 C62.6535,14.3912727 62.1597273,14.8479545 61.8537273,15.3625909 C61.5477273,15.8772273 61.3947273,16.4127273 61.3947273,16.9690909 C61.3947273,17.6089091 61.4990455,18.1629546 61.7076818,18.6312273 C61.9163182,19.0995 62.1968182,19.4866364 62.5491818,19.7926364 C62.9015455,20.0986364 63.3165,20.3281364 63.7940455,20.4811364 C64.2715909,20.6341364 64.7839091,20.7106364 65.331,20.7106364 Z M66.0681818,18.972 C65.7436363,18.972 65.4422727,18.9325909 65.1640909,18.8537727 C64.8859091,18.7749546 64.6448182,18.6497728 64.4408182,18.4782273 C64.2368182,18.3066818 64.0745454,18.0864546 63.954,17.8175455 C63.8334546,17.5486363 63.7731818,17.2287272 63.7731818,16.8578182 C63.7731818,16.4683636 63.8867727,16.116 64.1139545,15.8007273 C64.3411364,15.4854546 64.7050909,15.2119091 65.2058182,14.9800909 C65.7065455,14.7482728 66.3556363,14.5605 67.1530909,14.4167727 C67.9505455,14.2730454 68.9195455,14.1826363 70.0600909,14.1455455 L70.0600909,14.1455455 L70.0600909,17.0803636 C69.7819091,17.3770909 69.4967727,17.6413637 69.2046818,17.8731818 C68.9125909,18.105 68.6065909,18.3020455 68.2866818,18.4643182 C67.9667727,18.6265909 67.626,18.7517727 67.2643636,18.8398636 C66.9027273,18.9279546 66.504,18.972 66.0681818,18.972 Z M80.5475455,20.6828182 C81.549,20.6828182 82.4368639,20.4625909 83.2111364,20.0221364 C83.9854088,19.5816818 84.6739088,18.9951818 85.2766364,18.2626364 L85.2766364,18.2626364 L85.4991818,19.9734545 C85.5919088,20.3165454 85.8144543,20.4880909 86.1668182,20.4880909 L86.1668182,20.4880909 L87.6411818,20.4880909 L87.6411818,-5.81353148e-15 L85.1653636,-5.81353148e-15 L85.1653636,7.81690909 C84.6831821,7.28836364 84.1360909,6.87804545 83.5240909,6.58595455 C82.9120909,6.29386364 82.1749091,6.14781818 81.3125455,6.14781818 C80.3574546,6.14781818 79.5043636,6.33559091 78.7532727,6.71113636 C78.0021818,7.08668182 77.3646818,7.60363636 76.8407727,8.262 C76.3168637,8.92036366 75.9158182,9.69695452 75.6376364,10.5917727 C75.3594545,11.4865909 75.2203636,12.4532728 75.2203636,13.4918182 C75.2203636,14.6601818 75.3455455,15.6940909 75.5959091,16.5935455 C75.8462727,17.493 76.2032727,18.2440909 76.6669091,18.8468182 C77.1305455,19.4495455 77.6915454,19.9062272 78.3499091,20.2168636 C79.0082728,20.5275 79.7408182,20.6828182 80.5475455,20.6828182 Z M81.3681818,18.6799091 C80.7932727,18.6799091 80.2832727,18.5825455 79.8381818,18.3878182 C79.3930909,18.1930909 79.0175455,17.8847728 78.7115455,17.4628636 C78.4055455,17.0409545 78.1737273,16.5031364 78.0160909,15.8494091 C77.8584545,15.1956818 77.7796364,14.4098182 77.7796364,13.4918182 C77.7796364,11.7578182 78.132,10.4225455 78.8367273,9.486 C79.5414545,8.54945452 80.5521818,8.08118182 81.8689091,8.08118182 C82.527273,8.08118182 83.1276818,8.20404548 83.6701364,8.44977273 C84.2125909,8.69549997 84.7110003,9.12436364 85.1653636,9.73636364 L85.1653636,9.73636364 L85.1653636,16.5518182 C84.6553639,17.2287272 84.0966815,17.7526364 83.4893182,18.1235455 C82.8819548,18.4944545 82.1749091,18.6799091 81.3681818,18.6799091 Z M96.6264545,25.5649091 C97.6557273,25.5649091 98.5783639,25.4327727 99.3943636,25.1685 C100.210363,24.9042273 100.901182,24.5518636 101.466818,24.1114091 C102.032454,23.6709546 102.465955,23.1679091 102.767318,22.6022727 C103.068682,22.0366364 103.219364,21.4524546 103.219364,20.8497273 C103.219364,20.2006364 103.084909,19.6720909 102.816,19.2640909 C102.547091,18.8560909 102.190091,18.5361818 101.745,18.3043636 C101.299909,18.0725455 100.794545,17.9056364 100.228909,17.8036364 C99.663273,17.7016363 99.0860457,17.6297727 98.4972273,17.5880455 C97.9084088,17.5463182 97.3311815,17.5161818 96.7655455,17.4976364 C96.1999094,17.4790909 95.6945455,17.4327273 95.2494545,17.3585455 C94.8043636,17.2843636 94.4473639,17.1615 94.1784545,16.9899545 C93.9095452,16.8184091 93.7750909,16.5657273 93.7750909,16.2319091 C93.7750909,16.0279091 93.8515909,15.8192728 94.0045909,15.606 C94.1575909,15.3927272 94.3824543,15.1933637 94.6791818,15.0079091 C95.2633636,15.1655455 95.8846361,15.2443636 96.543,15.2443636 C97.3126366,15.2443636 98.0196815,15.1377273 98.6641364,14.9244545 C99.3085912,14.7111818 99.8649548,14.4051818 100.333227,14.0064545 C100.8015,13.6077273 101.167773,13.1278637 101.432045,12.5668636 C101.696318,12.0058636 101.828455,11.3822728 101.828455,10.6960909 C101.828455,9.9542727 101.670818,9.28200003 101.355545,8.67927273 L101.355545,8.67927273 L102.955091,8.45672727 C103.344545,8.37327273 103.539273,8.17854545 103.539273,7.87254545 L103.539273,7.87254545 L103.539273,6.95454545 L99.7142727,6.95454545 C99.2784543,6.69490909 98.7939548,6.49786363 98.2607727,6.36340909 C97.7275906,6.22895455 97.155,6.16172727 96.543,6.16172727 C95.7640909,6.16172727 95.0477727,6.26836363 94.3940455,6.48163636 C93.7403182,6.69490909 93.177,6.99859091 92.7040909,7.39268182 C92.2311818,7.78677273 91.8625909,8.26431815 91.5983182,8.82531818 C91.3340455,9.38631821 91.2019091,10.0099091 91.2019091,10.6960909 C91.2019091,11.5584545 91.3989543,12.3118636 91.7930455,12.9563182 C92.1871366,13.6007728 92.7319091,14.1177273 93.4273636,14.5071818 C93.1306361,14.6555454 92.871,14.8270909 92.6484545,15.0218182 C92.4259091,15.2165455 92.2381364,15.4205454 92.0851364,15.6338182 C91.9321364,15.8470909 91.8185457,16.0626818 91.7443636,16.2805909 C91.6701815,16.4985 91.6330909,16.7094546 91.6330909,16.9134545 C91.6330909,17.4327273 91.7513182,17.8476818 91.9877727,18.1583182 C92.2242273,18.4689546 92.5418185,18.717 92.9405455,18.9024545 C92.1709088,19.1899091 91.5658634,19.5770455 91.1254091,20.0638636 C90.6849548,20.5506818 90.4647273,21.1418182 90.4647273,21.8372727 C90.4647273,22.3287273 90.592227,22.7993182 90.8472273,23.2490455 C91.1022275,23.6987728 91.4847275,24.0951818 91.9947273,24.4382727 C92.504727,24.7813636 93.1468639,25.0549091 93.9211364,25.2589091 C94.6954088,25.4629091 95.5971818,25.5649091 96.6264545,25.5649091 Z M96.543,13.6030909 C96.0515452,13.6030909 95.6157275,13.5335455 95.2355455,13.3944545 C94.8553634,13.2553636 94.5354543,13.0606364 94.2758182,12.8102727 C94.0161821,12.5599091 93.8191361,12.2608636 93.6846818,11.9131364 C93.5502275,11.5654091 93.483,11.1829091 93.483,10.7656364 C93.483,9.90327273 93.7449548,9.21709088 94.2688636,8.70709091 C94.7927725,8.19709094 95.5508179,7.94209091 96.543,7.94209091 C97.5444545,7.94209091 98.3071366,8.19709094 98.8310455,8.70709091 C99.3549543,9.21709088 99.6169091,9.90327273 99.6169091,10.7656364 C99.6169091,11.1829091 99.5520003,11.5654091 99.4221818,11.9131364 C99.2923634,12.2608636 99.0976361,12.5599091 98.838,12.8102727 C98.5783639,13.0606364 98.2561361,13.2553636 97.8713182,13.3944545 C97.4865003,13.5335455 97.0437273,13.6030909 96.543,13.6030909 Z M96.6681818,23.7567273 C95.9819997,23.7567273 95.3862275,23.6987728 94.8808636,23.5828636 C94.3754997,23.4669545 93.9559091,23.3093182 93.6220909,23.1099545 C93.2882727,22.9105909 93.040227,22.6741363 92.8779545,22.4005909 C92.7156821,22.1270455 92.6345455,21.8326363 92.6345455,21.5173636 C92.6345455,21.0166364 92.7991366,20.5854545 93.1283182,20.2238182 C93.4574997,19.8621818 93.8863636,19.5561818 94.4149091,19.3058182 C94.8692725,19.38 95.3468182,19.431 95.8475455,19.4588182 C96.3482727,19.4866364 96.8397275,19.5121364 97.3219091,19.5353182 C97.8040906,19.5585 98.2630906,19.5979091 98.6989091,19.6535455 C99.1347275,19.7091818 99.5195455,19.7949545 99.8533636,19.9108636 C100.187182,20.0267728 100.451455,20.1913636 100.646182,20.4046364 C100.840909,20.6179091 100.938273,20.9007272 100.938273,21.2530909 C100.938273,21.624 100.840909,21.9624545 100.646182,22.2684545 C100.451455,22.5744545 100.170955,22.8387273 99.8046818,23.0612727 C99.4384088,23.2838182 98.991,23.4553637 98.4624545,23.5759091 C97.9339091,23.6964545 97.3358182,23.7567273 96.6681818,23.7567273 Z M111.731727,20.6828182 C112.241727,20.6828182 112.756363,20.6387728 113.275636,20.5506818 C113.794909,20.4625909 114.297955,20.3304545 114.784773,20.1542727 C115.271591,19.9780909 115.728273,19.7532272 116.154818,19.4796818 C116.581363,19.2061364 116.947636,18.8839091 117.253636,18.513 L117.253636,18.513 L116.558182,17.6089091 C116.446909,17.4512727 116.289272,17.3724545 116.085273,17.3724545 C115.927636,17.3724545 115.739863,17.4443182 115.521955,17.5880455 C115.304046,17.7317728 115.032818,17.8870909 114.708273,18.054 C114.383727,18.2209091 113.996591,18.3762272 113.546864,18.5199545 C113.097136,18.6636818 112.561636,18.7355455 111.940364,18.7355455 C111.272727,18.7355455 110.67,18.6265909 110.132182,18.4086818 C109.594364,18.1907728 109.130727,17.8615909 108.741273,17.4211364 C108.351818,16.9806818 108.045818,16.4312728 107.823273,15.7729091 C107.600727,15.1145454 107.480182,14.3402727 107.461636,13.4500909 L107.461636,13.4500909 L116.836364,13.4500909 C117.068182,13.4500909 117.225818,13.3851818 117.309273,13.2553636 C117.392727,13.1255454 117.434455,12.8659091 117.434455,12.4764545 C117.434455,11.475 117.288409,10.5825 116.996318,9.79895455 C116.704227,9.01540906 116.298546,8.35704548 115.779273,7.82386364 C115.26,7.29068182 114.643364,6.88268182 113.929364,6.59986364 C113.215363,6.31704545 112.436454,6.17563636 111.592636,6.17563636 C110.572636,6.17563636 109.654636,6.35413637 108.838636,6.71113636 C108.022637,7.06813636 107.331818,7.55959091 106.766182,8.1855 C106.200546,8.81140909 105.767045,9.55090906 105.465682,10.404 C105.164318,11.2570909 105.013636,12.1750909 105.013636,13.158 C105.013636,14.3727273 105.180545,15.4483636 105.514364,16.3849091 C105.848182,17.3214546 106.314136,18.1073182 106.912227,18.7425 C107.510318,19.3776818 108.219682,19.8598637 109.040318,20.1890455 C109.860955,20.5182272 110.758091,20.6828182 111.731727,20.6828182 Z M115.209,11.9061818 L107.545091,11.9061818 C107.712,10.6821818 108.138545,9.7247727 108.824727,9.03395455 C109.510909,8.34313639 110.452091,7.99772727 111.648273,7.99772727 C112.213909,7.99772727 112.716955,8.09277273 113.157409,8.28286364 C113.597863,8.47295452 113.971091,8.74186364 114.277091,9.08959091 C114.583091,9.43731818 114.814909,9.84995452 114.972545,10.3275 C115.130182,10.8050455 115.209,11.3312727 115.209,11.9061818 L115.209,11.9061818 Z M124.124727,20.7106364 C124.987091,20.7106364 125.747454,20.5947272 126.405818,20.3629091 C127.064182,20.1310909 127.620546,19.8135 128.074909,19.4101364 C128.529272,19.0067727 128.872364,18.5292272 129.104182,17.9775 C129.336,17.4257728 129.451909,16.8253636 129.451909,16.1762727 C129.451909,15.6106364 129.347591,15.1261364 129.138955,14.7227727 C128.930318,14.3194091 128.654454,13.9786364 128.311364,13.7004545 C127.968273,13.4222727 127.578818,13.1904546 127.143,13.005 C126.707182,12.8195454 126.259773,12.6503182 125.800773,12.4973182 C125.341773,12.3443182 124.894364,12.2005909 124.458545,12.0661364 C124.022727,11.9316818 123.633272,11.7763636 123.290182,11.6001818 C122.947091,11.424 122.671227,11.2153637 122.462591,10.9742727 C122.253955,10.7331818 122.149636,10.4318182 122.149636,10.0701818 C122.149636,9.7827273 122.212227,9.51613634 122.337409,9.27040909 C122.462591,9.02468185 122.643409,8.80909094 122.879864,8.62363636 C123.116318,8.43818179 123.401455,8.29213634 123.735273,8.1855 C124.069091,8.07886364 124.444636,8.02554545 124.861909,8.02554545 C125.344091,8.02554545 125.761363,8.07886364 126.113727,8.1855 C126.466091,8.29213634 126.769772,8.40804545 127.024773,8.53322727 C127.279773,8.65840909 127.495364,8.77199997 127.671545,8.874 C127.847727,8.97600003 128.005364,9.027 128.144455,9.027 C128.376272,9.027 128.547818,8.92499997 128.659091,8.721 L128.659091,8.721 L129.215455,7.81690909 C128.677637,7.30690909 128.040136,6.90586364 127.302955,6.61377273 C126.565773,6.32168182 125.733545,6.17563636 124.806273,6.17563636 C124.008818,6.17563636 123.299454,6.28690909 122.678182,6.50945455 C122.056909,6.732 121.533,7.03104545 121.106455,7.40659091 C120.679909,7.78213636 120.355364,8.21795457 120.132818,8.71404545 C119.910273,9.21013634 119.799,9.72709094 119.799,10.2649091 C119.799,10.8676364 119.903318,11.3799545 120.111955,11.8018636 C120.320591,12.2237728 120.596455,12.5784546 120.939545,12.8659091 C121.282636,13.1533636 121.674409,13.3921364 122.114864,13.5822273 C122.555318,13.7723182 123.005045,13.9415455 123.464045,14.0899091 C123.923045,14.2382727 124.372773,14.3796818 124.813227,14.5141364 C125.253682,14.6485909 125.645455,14.8062273 125.988545,14.9870455 C126.331636,15.1678636 126.6075,15.3857727 126.816136,15.6407727 C127.024773,15.8957728 127.129091,16.218 127.129091,16.6074545 C127.129091,16.9227272 127.071137,17.2194545 126.955227,17.4976364 C126.839318,17.7758182 126.660818,18.0215454 126.419727,18.2348182 C126.178636,18.4480909 125.877273,18.6173182 125.515636,18.7425 C125.154,18.8676818 124.732091,18.9302727 124.249909,18.9302727 C123.684273,18.9302727 123.213682,18.8653637 122.838136,18.7355455 C122.462591,18.6057272 122.142682,18.462 121.878409,18.3043636 C121.614136,18.1467272 121.389273,18.003 121.203818,17.8731818 C121.018363,17.7433636 120.842182,17.6784545 120.675273,17.6784545 C120.508364,17.6784545 120.373909,17.7109091 120.271909,17.7758182 C120.169909,17.8407272 120.081818,17.9334546 120.007636,18.054 L120.007636,18.054 L119.423455,18.9998182 C119.979818,19.5005455 120.656727,19.9108636 121.454182,20.2307727 C122.251637,20.5506818 123.141818,20.7106364 124.124727,20.7106364 Z" id="badges" fill="#FEDB00"></path>
                </g>
            </g>
        </g>
    </g>
</svg>