<svg id="svg" version="1.1" xmlns="http://www.w3.org/2000/svg" width="210px" height="40px"
     viewBox="0, 0, 400,124.22360248447204">
    <g id="svgg">
        <path id="path0"
              d="M40.417 21.761 C 39.958 21.904,38.833 22.186,37.915 22.388 C 36.788 22.636,36.058 22.897,35.665 23.193 C 35.345 23.433,34.853 23.679,34.572 23.738 C 34.291 23.798,33.701 24.144,33.260 24.508 C 32.819 24.873,32.290 25.213,32.084 25.265 C 31.877 25.317,31.629 25.534,31.532 25.747 C 31.434 25.960,31.125 26.271,30.844 26.437 C 30.563 26.603,30.333 26.821,30.333 26.923 C 30.333 27.024,30.076 27.407,29.761 27.775 C 29.447 28.143,28.988 28.869,28.742 29.388 C 28.496 29.908,28.234 30.333,28.161 30.333 C 28.004 30.333,27.576 31.627,27.417 32.583 C 27.355 32.950,27.143 33.512,26.944 33.833 C 26.396 34.720,26.398 39.702,26.948 40.833 C 27.148 41.246,27.433 42.183,27.582 42.917 C 27.764 43.813,27.980 44.387,28.241 44.667 C 28.454 44.896,28.760 45.346,28.920 45.667 C 29.430 46.686,31.757 49.266,32.296 49.408 C 32.504 49.463,32.954 49.774,33.296 50.098 C 33.637 50.422,34.125 50.730,34.380 50.782 C 34.635 50.834,34.974 51.043,35.134 51.247 C 35.315 51.477,35.771 51.695,36.338 51.822 C 36.839 51.935,37.887 52.220,38.667 52.455 C 40.722 53.076,44.418 53.199,45.576 52.687 C 46.010 52.495,47.033 52.222,47.849 52.081 C 49.608 51.775,49.752 51.726,50.262 51.253 C 50.478 51.053,50.949 50.802,51.309 50.694 C 51.670 50.586,52.085 50.311,52.235 50.082 C 52.385 49.854,52.611 49.667,52.738 49.667 C 53.034 49.667,55.667 47.183,55.667 46.904 C 55.667 46.788,55.894 46.465,56.173 46.186 C 56.451 45.908,56.784 45.330,56.913 44.901 C 57.042 44.472,57.329 43.925,57.552 43.686 C 57.850 43.363,58.009 42.908,58.160 41.934 C 58.273 41.211,58.546 40.016,58.766 39.280 C 59.268 37.602,59.269 36.826,58.772 35.297 C 58.555 34.629,58.280 33.421,58.160 32.612 C 57.988 31.449,57.844 31.016,57.473 30.550 C 57.216 30.225,56.933 29.702,56.846 29.387 C 56.759 29.072,56.419 28.500,56.090 28.116 C 55.018 26.861,52.936 24.833,52.721 24.833 C 52.606 24.833,52.435 24.690,52.341 24.515 C 52.247 24.339,51.813 24.064,51.377 23.904 C 50.940 23.743,50.391 23.436,50.155 23.220 C 49.889 22.977,49.351 22.760,48.738 22.648 C 48.195 22.549,47.150 22.279,46.417 22.049 C 44.692 21.507,41.690 21.363,40.417 21.761 M128.032 21.605 C 127.746 21.731,126.306 23.269,126.048 23.726 C 125.779 24.201,125.741 50.066,126.009 50.781 C 126.761 52.796,129.202 53.613,130.656 52.336 C 131.812 51.322,131.818 51.271,131.826 41.979 C 131.834 33.001,131.831 33.028,132.799 33.810 C 133.047 34.010,133.449 34.252,133.693 34.348 C 133.936 34.443,134.224 34.736,134.332 34.997 C 134.441 35.259,134.785 35.706,135.098 35.991 C 135.411 36.275,135.667 36.576,135.667 36.659 C 135.667 36.742,135.922 37.080,136.234 37.411 C 136.546 37.742,136.923 38.270,137.072 38.584 C 137.221 38.898,137.486 39.254,137.660 39.376 C 137.833 39.498,138.072 39.809,138.190 40.067 C 138.307 40.326,138.632 40.779,138.910 41.075 C 139.926 42.153,140.833 43.375,140.833 43.665 C 140.833 43.828,141.027 44.089,141.264 44.244 C 141.501 44.399,141.801 44.780,141.930 45.090 C 142.060 45.401,142.315 45.735,142.498 45.832 C 142.681 45.930,142.954 46.250,143.106 46.545 C 143.258 46.839,143.585 47.268,143.833 47.500 C 144.080 47.731,144.382 48.194,144.503 48.529 C 144.624 48.865,144.891 49.215,145.095 49.308 C 145.300 49.402,145.554 49.742,145.660 50.064 C 145.767 50.387,145.994 50.695,146.165 50.749 C 146.336 50.804,146.629 51.107,146.816 51.424 C 147.003 51.741,147.256 52.000,147.380 52.000 C 147.503 52.000,147.820 52.225,148.083 52.500 C 148.681 53.123,150.951 53.266,151.366 52.705 C 151.485 52.543,151.779 52.286,152.019 52.133 C 152.816 51.625,152.833 51.301,152.833 37.290 C 152.833 23.640,152.777 22.500,152.104 22.500 C 151.986 22.500,151.680 22.267,151.426 21.981 C 150.625 21.082,149.388 21.305,148.083 22.585 L 147.083 23.566 147.000 31.491 C 146.923 38.790,146.892 39.466,146.606 40.042 C 146.203 40.852,145.834 40.834,145.325 39.982 C 145.100 39.605,144.780 39.174,144.612 39.023 C 144.444 38.873,144.118 38.431,143.888 38.042 C 143.657 37.652,143.413 37.333,143.346 37.333 C 143.278 37.333,142.980 36.958,142.683 36.500 C 142.386 36.042,142.047 35.571,141.931 35.455 C 141.814 35.338,141.519 34.925,141.274 34.538 C 141.029 34.150,140.751 33.833,140.656 33.833 C 140.561 33.833,140.379 33.584,140.251 33.278 C 140.124 32.973,139.890 32.617,139.732 32.487 C 139.574 32.357,139.192 31.856,138.884 31.375 C 138.575 30.894,138.247 30.500,138.153 30.500 C 138.060 30.500,137.855 30.219,137.698 29.875 C 137.540 29.531,137.169 29.012,136.873 28.721 C 136.576 28.430,136.333 28.076,136.333 27.933 C 136.333 27.791,136.158 27.560,135.944 27.419 C 135.730 27.279,135.451 26.959,135.324 26.707 C 135.197 26.456,134.840 25.961,134.532 25.609 C 134.223 25.256,133.896 24.753,133.805 24.490 C 133.714 24.228,133.503 23.971,133.337 23.918 C 133.172 23.865,132.940 23.591,132.823 23.307 C 132.692 22.991,132.399 22.705,132.066 22.565 C 131.767 22.440,131.403 22.168,131.258 21.961 C 130.994 21.584,128.668 21.327,128.032 21.605 M68.561 22.831 C 68.049 23.038,66.524 24.583,66.331 25.090 C 66.110 25.672,66.108 50.157,66.329 50.739 C 67.032 52.588,69.663 53.645,70.780 52.527 C 71.040 52.267,71.346 52.023,71.458 51.986 C 71.913 51.833,72.167 50.046,72.167 47.004 C 72.167 43.025,72.007 43.170,76.386 43.161 C 79.332 43.154,80.587 42.987,82.338 42.367 C 82.845 42.188,83.647 41.988,84.120 41.923 C 84.746 41.837,85.047 41.703,85.226 41.431 C 85.360 41.225,85.796 40.926,86.194 40.766 C 87.026 40.432,89.037 38.231,89.231 37.443 C 89.295 37.182,89.542 36.582,89.779 36.110 C 90.509 34.655,90.547 31.652,89.857 30.029 C 89.574 29.364,89.262 28.521,89.164 28.155 C 88.973 27.446,86.584 24.833,86.126 24.833 C 85.998 24.833,85.744 24.661,85.561 24.451 C 85.352 24.210,84.860 23.984,84.239 23.843 C 83.695 23.720,82.598 23.404,81.801 23.143 L 80.353 22.667 74.635 22.677 C 71.490 22.683,68.757 22.752,68.561 22.831 M98.333 22.847 C 97.823 23.049,96.359 24.577,96.151 25.124 C 95.948 25.658,95.952 50.186,96.155 50.720 C 96.241 50.945,96.722 51.550,97.224 52.064 L 98.138 53.000 107.902 53.000 L 117.666 53.000 118.344 52.342 C 119.357 51.359,119.479 49.041,118.542 48.573 C 118.347 48.476,118.040 48.214,117.859 47.990 L 117.530 47.583 110.115 47.500 C 101.051 47.398,102.000 47.782,102.000 44.213 C 102.000 40.394,101.441 40.667,109.272 40.667 L 115.161 40.667 115.997 39.887 L 116.833 39.107 116.833 37.917 L 116.833 36.726 115.997 35.946 L 115.161 35.167 109.539 35.159 C 101.421 35.149,101.972 35.410,102.038 31.605 L 102.083 28.952 102.554 28.601 C 103.011 28.260,103.229 28.248,110.247 28.167 L 117.470 28.083 117.831 27.625 C 118.029 27.373,118.289 27.167,118.408 27.167 C 119.133 27.167,119.346 24.467,118.658 24.002 C 118.454 23.863,118.062 23.525,117.788 23.250 L 117.289 22.750 108.019 22.715 C 102.183 22.694,98.596 22.742,98.333 22.847 M45.612 27.357 C 45.902 27.445,46.227 27.622,46.334 27.751 C 46.441 27.879,46.930 28.101,47.420 28.244 C 48.022 28.419,48.421 28.654,48.642 28.966 C 48.824 29.220,49.157 29.528,49.384 29.649 C 49.611 29.771,49.883 30.060,49.989 30.291 C 50.094 30.523,50.353 30.849,50.565 31.015 C 50.776 31.181,51.085 31.677,51.252 32.117 C 51.419 32.557,51.705 33.119,51.887 33.367 C 52.791 34.598,52.719 40.102,51.781 41.456 C 51.538 41.805,51.291 42.337,51.231 42.638 C 51.163 42.979,50.915 43.342,50.571 43.604 C 50.268 43.835,49.997 44.187,49.968 44.386 C 49.938 44.600,49.700 44.851,49.389 44.999 C 49.098 45.137,48.706 45.448,48.516 45.690 C 48.327 45.931,47.965 46.180,47.711 46.242 C 47.457 46.304,46.976 46.542,46.641 46.772 C 45.210 47.753,38.833 47.680,38.833 46.682 C 38.833 46.589,38.533 46.432,38.165 46.333 C 37.580 46.175,37.009 45.758,36.022 44.765 C 34.940 43.677,34.667 43.349,34.414 42.833 C 34.257 42.512,33.992 42.100,33.826 41.917 C 32.771 40.753,32.781 34.012,33.840 32.667 C 34.020 32.438,34.288 31.967,34.436 31.622 C 34.584 31.276,34.866 30.864,35.062 30.705 C 35.258 30.547,35.547 30.216,35.705 29.971 C 35.862 29.726,36.156 29.473,36.356 29.409 C 36.557 29.346,36.897 29.086,37.110 28.832 C 37.324 28.578,37.700 28.319,37.947 28.257 C 38.193 28.196,38.606 27.967,38.865 27.749 C 39.664 27.076,43.878 26.831,45.612 27.357 M81.191 28.544 C 81.526 28.686,81.863 28.903,81.941 29.026 C 82.019 29.149,82.357 29.389,82.691 29.558 C 83.104 29.768,83.395 30.087,83.603 30.558 C 83.770 30.939,83.971 31.295,84.049 31.351 C 84.503 31.673,84.536 33.940,84.093 34.383 C 83.984 34.493,83.750 34.910,83.574 35.308 C 83.347 35.823,83.070 36.128,82.619 36.358 C 82.270 36.536,81.945 36.782,81.898 36.906 C 81.564 37.775,73.277 37.920,72.428 37.071 C 71.984 36.627,72.042 29.164,72.493 28.756 C 73.203 28.114,79.801 27.952,81.191 28.544 "
              stroke="none" fill="#006cb8" fill-rule="evenodd"></path>
        <path id="path1"
              d="M39.417 21.404 C 38.592 21.510,37.729 21.719,37.500 21.868 C 37.271 22.018,36.653 22.264,36.128 22.415 C 35.603 22.565,35.124 22.768,35.064 22.865 C 35.004 22.962,34.482 23.256,33.904 23.518 C 33.326 23.780,32.792 24.096,32.718 24.221 C 32.644 24.346,32.358 24.586,32.083 24.756 C 31.110 25.356,28.944 27.732,28.517 28.669 C 28.370 28.991,28.084 29.486,27.881 29.769 C 27.678 30.052,27.438 30.616,27.347 31.022 C 27.256 31.428,26.972 32.208,26.716 32.755 C 26.250 33.750,26.250 33.751,26.250 37.417 L 26.250 41.083 26.792 42.164 C 27.090 42.759,27.333 43.410,27.333 43.612 C 27.333 44.092,27.578 44.720,27.883 45.026 C 28.018 45.161,28.295 45.604,28.499 46.010 C 28.703 46.417,29.048 46.938,29.266 47.167 C 30.788 48.766,31.923 49.825,32.614 50.291 C 34.679 51.683,35.181 51.964,35.938 52.151 C 36.385 52.261,37.032 52.497,37.378 52.675 C 39.337 53.682,45.575 53.623,48.250 52.571 C 48.800 52.355,49.555 52.101,49.928 52.008 C 50.300 51.914,50.776 51.655,50.985 51.433 C 51.194 51.210,51.550 50.982,51.776 50.925 C 53.769 50.425,57.531 45.844,58.423 42.833 C 59.444 39.384,59.500 39.091,59.500 37.228 C 59.500 35.708,59.420 35.102,59.062 33.894 C 58.821 33.081,58.530 32.034,58.416 31.566 C 58.301 31.098,58.105 30.527,57.979 30.297 C 57.853 30.067,57.514 29.437,57.227 28.898 C 56.396 27.340,52.911 23.904,51.833 23.580 C 51.604 23.511,51.207 23.279,50.951 23.065 C 50.695 22.851,50.170 22.596,49.784 22.499 C 49.399 22.401,48.633 22.138,48.083 21.914 C 46.341 21.203,42.669 20.987,39.417 21.404 M127.583 21.404 C 126.951 21.688,125.908 22.772,125.677 23.386 C 125.451 23.984,125.430 50.341,125.654 51.122 C 126.462 53.939,131.329 54.145,131.910 51.387 C 131.971 51.095,132.129 50.767,132.261 50.658 C 132.462 50.491,132.500 49.268,132.503 42.938 C 132.504 38.801,132.560 35.335,132.628 35.235 C 132.974 34.722,134.167 34.964,134.167 35.547 C 134.167 35.637,134.410 35.991,134.708 36.336 C 135.635 37.408,136.262 38.223,136.725 38.958 C 136.970 39.348,137.229 39.667,137.299 39.667 C 137.370 39.667,137.572 39.910,137.748 40.208 C 138.101 40.808,139.405 42.563,139.883 43.083 C 140.052 43.267,140.348 43.698,140.542 44.042 C 140.736 44.385,140.949 44.667,141.016 44.667 C 141.083 44.667,141.368 45.023,141.650 45.458 C 142.304 46.471,144.187 48.957,144.711 49.500 C 144.932 49.729,145.211 50.104,145.331 50.333 C 145.538 50.730,145.988 51.254,147.071 52.358 C 148.533 53.849,151.429 53.814,152.547 52.292 C 153.530 50.954,153.500 51.426,153.500 37.208 L 153.500 24.176 153.093 23.296 C 151.940 20.804,149.437 20.352,147.549 22.294 C 146.610 23.261,146.672 22.640,146.625 31.524 C 146.585 38.942,146.569 39.315,146.261 39.654 L 145.939 40.010 145.477 39.267 C 145.223 38.859,144.909 38.463,144.780 38.387 C 144.651 38.312,144.420 38.025,144.267 37.750 C 143.999 37.267,143.272 36.288,142.410 35.250 C 142.182 34.975,141.846 34.525,141.664 34.250 C 141.482 33.975,140.961 33.262,140.505 32.667 C 140.049 32.071,139.433 31.246,139.137 30.833 C 138.840 30.421,138.426 29.897,138.215 29.668 C 138.005 29.440,137.833 29.203,137.833 29.142 C 137.833 29.081,137.590 28.727,137.292 28.355 C 136.994 27.983,136.412 27.220,136.000 26.659 C 135.587 26.099,135.006 25.356,134.708 25.008 C 134.410 24.661,134.167 24.303,134.167 24.214 C 134.167 24.124,133.916 23.793,133.609 23.477 C 133.302 23.161,133.021 22.830,132.984 22.743 C 132.476 21.535,129.137 20.707,127.583 21.404 M46.417 22.049 C 47.150 22.279,48.195 22.549,48.738 22.648 C 49.351 22.760,49.889 22.977,50.155 23.220 C 50.391 23.436,50.940 23.743,51.377 23.904 C 51.813 24.064,52.247 24.339,52.341 24.515 C 52.435 24.690,52.606 24.833,52.721 24.833 C 52.936 24.833,55.018 26.861,56.090 28.116 C 56.419 28.500,56.759 29.072,56.846 29.387 C 56.933 29.702,57.216 30.225,57.473 30.550 C 57.844 31.016,57.988 31.449,58.160 32.612 C 58.280 33.421,58.555 34.629,58.772 35.297 C 59.269 36.826,59.268 37.602,58.766 39.280 C 58.546 40.016,58.273 41.211,58.160 41.934 C 58.009 42.908,57.850 43.363,57.552 43.686 C 57.329 43.925,57.042 44.472,56.913 44.901 C 56.784 45.330,56.451 45.908,56.173 46.186 C 55.894 46.465,55.667 46.788,55.667 46.904 C 55.667 47.183,53.034 49.667,52.738 49.667 C 52.611 49.667,52.385 49.854,52.235 50.082 C 52.085 50.311,51.670 50.586,51.309 50.694 C 50.949 50.802,50.478 51.053,50.262 51.253 C 49.752 51.726,49.608 51.775,47.849 52.081 C 47.033 52.222,46.010 52.495,45.576 52.687 C 44.418 53.199,40.722 53.076,38.667 52.455 C 37.887 52.220,36.839 51.935,36.338 51.822 C 35.771 51.695,35.315 51.477,35.134 51.247 C 34.974 51.043,34.635 50.834,34.380 50.782 C 34.125 50.730,33.637 50.422,33.296 50.098 C 32.954 49.774,32.504 49.463,32.296 49.408 C 31.757 49.266,29.430 46.686,28.920 45.667 C 28.760 45.346,28.454 44.896,28.241 44.667 C 27.980 44.387,27.764 43.813,27.582 42.917 C 27.433 42.183,27.148 41.246,26.948 40.833 C 26.398 39.702,26.396 34.720,26.944 33.833 C 27.143 33.512,27.355 32.950,27.417 32.583 C 27.576 31.627,28.004 30.333,28.161 30.333 C 28.234 30.333,28.496 29.908,28.742 29.388 C 28.988 28.869,29.447 28.143,29.761 27.775 C 30.076 27.407,30.333 27.024,30.333 26.923 C 30.333 26.821,30.563 26.603,30.844 26.437 C 31.125 26.271,31.434 25.960,31.532 25.747 C 31.629 25.534,31.877 25.317,32.084 25.265 C 32.290 25.213,32.819 24.873,33.260 24.508 C 33.701 24.144,34.291 23.798,34.572 23.738 C 34.853 23.679,35.345 23.433,35.665 23.193 C 36.058 22.897,36.788 22.636,37.915 22.388 C 38.833 22.186,39.958 21.904,40.417 21.761 C 41.690 21.363,44.692 21.507,46.417 22.049 M131.258 21.961 C 131.403 22.168,131.767 22.440,132.066 22.565 C 132.399 22.705,132.692 22.991,132.823 23.307 C 132.940 23.591,133.172 23.865,133.337 23.918 C 133.503 23.971,133.714 24.228,133.805 24.490 C 133.896 24.753,134.223 25.256,134.532 25.609 C 134.840 25.961,135.197 26.456,135.324 26.707 C 135.451 26.959,135.730 27.279,135.944 27.419 C 136.158 27.560,136.333 27.791,136.333 27.933 C 136.333 28.076,136.576 28.430,136.873 28.721 C 137.169 29.012,137.540 29.531,137.698 29.875 C 137.855 30.219,138.060 30.500,138.153 30.500 C 138.247 30.500,138.575 30.894,138.884 31.375 C 139.192 31.856,139.574 32.357,139.732 32.487 C 139.890 32.617,140.124 32.973,140.251 33.278 C 140.379 33.584,140.561 33.833,140.656 33.833 C 140.751 33.833,141.029 34.150,141.274 34.538 C 141.519 34.925,141.814 35.338,141.931 35.455 C 142.047 35.571,142.386 36.042,142.683 36.500 C 142.980 36.958,143.278 37.333,143.346 37.333 C 143.413 37.333,143.657 37.652,143.888 38.042 C 144.118 38.431,144.444 38.873,144.612 39.023 C 144.780 39.174,145.100 39.605,145.325 39.982 C 145.834 40.834,146.203 40.852,146.606 40.042 C 146.892 39.466,146.923 38.790,147.000 31.491 L 147.083 23.566 148.083 22.585 C 149.388 21.305,150.625 21.082,151.426 21.981 C 151.680 22.267,151.986 22.500,152.104 22.500 C 152.777 22.500,152.833 23.640,152.833 37.290 C 152.833 51.301,152.816 51.625,152.019 52.133 C 151.779 52.286,151.485 52.543,151.366 52.705 C 150.951 53.266,148.681 53.123,148.083 52.500 C 147.820 52.225,147.503 52.000,147.380 52.000 C 147.256 52.000,147.003 51.741,146.816 51.424 C 146.629 51.107,146.336 50.804,146.165 50.749 C 145.994 50.695,145.767 50.387,145.660 50.064 C 145.554 49.742,145.300 49.402,145.095 49.308 C 144.891 49.215,144.624 48.865,144.503 48.529 C 144.382 48.194,144.080 47.731,143.833 47.500 C 143.585 47.268,143.258 46.839,143.106 46.545 C 142.954 46.250,142.681 45.930,142.498 45.832 C 142.315 45.735,142.060 45.401,141.930 45.090 C 141.801 44.780,141.501 44.399,141.264 44.244 C 141.027 44.089,140.833 43.828,140.833 43.665 C 140.833 43.375,139.926 42.153,138.910 41.075 C 138.632 40.779,138.307 40.326,138.190 40.067 C 138.072 39.809,137.833 39.498,137.660 39.376 C 137.486 39.254,137.221 38.898,137.072 38.584 C 136.923 38.270,136.546 37.742,136.234 37.411 C 135.922 37.080,135.667 36.742,135.667 36.659 C 135.667 36.576,135.411 36.275,135.098 35.991 C 134.785 35.706,134.441 35.259,134.332 34.997 C 134.224 34.736,133.936 34.443,133.693 34.348 C 133.449 34.252,133.047 34.010,132.799 33.810 C 131.831 33.028,131.834 33.001,131.826 41.979 C 131.818 51.271,131.812 51.322,130.656 52.336 C 129.202 53.613,126.761 52.796,126.009 50.781 C 125.741 50.066,125.779 24.201,126.048 23.726 C 126.306 23.269,127.746 21.731,128.032 21.605 C 128.668 21.327,130.994 21.584,131.258 21.961 M68.328 22.487 C 67.678 22.614,66.259 23.902,65.991 24.608 C 65.784 25.151,65.780 50.401,65.987 51.120 C 66.360 52.422,68.355 53.632,69.750 53.403 C 72.157 53.009,72.833 51.640,72.833 47.165 L 72.833 44.038 73.400 43.769 C 73.850 43.556,74.532 43.500,76.692 43.499 C 79.962 43.497,81.898 43.297,82.866 42.859 C 83.260 42.680,83.921 42.436,84.333 42.316 C 84.746 42.195,85.544 41.784,86.106 41.402 C 86.668 41.020,87.193 40.679,87.273 40.645 C 87.616 40.498,89.465 38.197,89.666 37.667 C 89.788 37.346,89.981 36.971,90.094 36.833 C 90.990 35.746,91.035 30.897,90.166 29.167 C 90.004 28.846,89.732 28.247,89.561 27.836 C 89.208 26.986,87.690 25.199,87.026 24.851 C 86.782 24.723,86.337 24.405,86.036 24.143 C 85.735 23.881,85.339 23.667,85.156 23.667 C 84.973 23.667,84.367 23.436,83.809 23.154 C 83.058 22.776,82.420 22.603,81.355 22.491 C 79.703 22.317,69.212 22.314,68.328 22.487 M98.162 22.487 C 97.511 22.614,96.092 23.902,95.824 24.608 C 95.617 25.152,95.614 50.401,95.821 51.122 C 95.998 51.739,97.384 53.124,98.000 53.298 C 98.229 53.363,102.773 53.417,108.096 53.417 L 117.776 53.417 118.388 52.950 C 119.999 51.721,120.075 49.148,118.537 47.888 L 117.759 47.250 110.488 47.167 C 104.664 47.100,103.162 47.038,102.942 46.855 C 102.708 46.660,102.667 46.243,102.667 44.082 L 102.667 41.538 103.234 41.269 C 103.720 41.038,104.587 41.000,109.339 41.000 C 115.699 41.000,115.896 40.970,116.806 39.860 C 118.094 38.288,117.368 35.516,115.536 35.007 C 115.168 34.905,112.662 34.835,109.359 34.834 C 104.590 34.833,103.720 34.795,103.234 34.564 L 102.667 34.295 102.667 31.751 C 102.667 28.403,101.772 28.767,110.234 28.667 C 115.345 28.606,117.347 28.528,117.608 28.378 C 118.411 27.918,119.333 26.938,119.333 26.545 C 119.333 26.325,119.401 26.018,119.484 25.862 C 119.998 24.904,118.480 22.748,117.104 22.481 C 116.269 22.319,98.990 22.325,98.162 22.487 M81.801 23.143 C 82.598 23.404,83.695 23.720,84.239 23.843 C 84.860 23.984,85.352 24.210,85.561 24.451 C 85.744 24.661,85.998 24.833,86.126 24.833 C 86.584 24.833,88.973 27.446,89.164 28.155 C 89.262 28.521,89.574 29.364,89.857 30.029 C 90.547 31.652,90.509 34.655,89.779 36.110 C 89.542 36.582,89.295 37.182,89.231 37.443 C 89.037 38.231,87.026 40.432,86.194 40.766 C 85.796 40.926,85.360 41.225,85.226 41.431 C 85.047 41.703,84.746 41.837,84.120 41.923 C 83.647 41.988,82.845 42.188,82.338 42.367 C 80.587 42.987,79.332 43.154,76.386 43.161 C 72.007 43.170,72.167 43.025,72.167 47.004 C 72.167 50.046,71.913 51.833,71.458 51.986 C 71.346 52.023,71.040 52.267,70.780 52.527 C 69.663 53.645,67.032 52.588,66.329 50.739 C 66.108 50.157,66.110 25.672,66.331 25.090 C 66.524 24.583,68.049 23.038,68.561 22.831 C 68.757 22.752,71.490 22.683,74.635 22.677 L 80.353 22.667 81.801 23.143 M117.788 23.250 C 118.062 23.525,118.454 23.863,118.658 24.002 C 119.346 24.467,119.133 27.167,118.408 27.167 C 118.289 27.167,118.029 27.373,117.831 27.625 L 117.470 28.083 110.247 28.167 C 103.229 28.248,103.011 28.260,102.554 28.601 L 102.083 28.952 102.038 31.605 C 101.972 35.410,101.421 35.149,109.539 35.159 L 115.161 35.167 115.997 35.946 L 116.833 36.726 116.833 37.917 L 116.833 39.107 115.997 39.887 L 115.161 40.667 109.272 40.667 C 101.441 40.667,102.000 40.394,102.000 44.213 C 102.000 47.782,101.051 47.398,110.115 47.500 L 117.530 47.583 117.859 47.990 C 118.040 48.214,118.347 48.476,118.542 48.573 C 119.479 49.041,119.357 51.359,118.344 52.342 L 117.666 53.000 107.902 53.000 L 98.138 53.000 97.224 52.064 C 95.926 50.735,96.000 51.589,96.000 37.917 C 96.000 24.398,95.944 25.106,97.110 23.869 C 98.286 22.621,97.750 22.677,108.019 22.715 L 117.289 22.750 117.788 23.250 M41.500 27.113 C 39.909 27.225,39.318 27.367,38.865 27.749 C 38.606 27.967,38.193 28.196,37.947 28.257 C 37.700 28.319,37.324 28.578,37.110 28.832 C 36.897 29.086,36.557 29.346,36.356 29.409 C 36.156 29.473,35.862 29.726,35.705 29.971 C 35.547 30.216,35.258 30.547,35.062 30.705 C 34.866 30.864,34.584 31.276,34.436 31.622 C 34.288 31.967,34.020 32.438,33.840 32.667 C 32.781 34.012,32.771 40.753,33.826 41.917 C 33.992 42.100,34.257 42.512,34.414 42.833 C 34.667 43.349,34.940 43.677,36.022 44.765 C 37.009 45.758,37.580 46.175,38.165 46.333 C 38.533 46.432,38.833 46.589,38.833 46.682 C 38.833 47.680,45.210 47.753,46.641 46.772 C 46.976 46.542,47.457 46.304,47.711 46.242 C 47.965 46.180,48.327 45.931,48.516 45.690 C 48.706 45.448,49.098 45.137,49.389 44.999 C 49.700 44.851,49.938 44.600,49.968 44.386 C 49.997 44.187,50.268 43.835,50.571 43.604 C 50.915 43.342,51.163 42.979,51.231 42.638 C 51.291 42.337,51.538 41.805,51.781 41.456 C 52.719 40.102,52.791 34.598,51.887 33.367 C 51.705 33.119,51.419 32.557,51.252 32.117 C 51.085 31.677,50.776 31.181,50.565 31.015 C 50.353 30.849,50.094 30.523,49.989 30.291 C 49.883 30.060,49.611 29.771,49.384 29.649 C 49.157 29.528,48.824 29.220,48.642 28.966 C 48.421 28.654,48.022 28.419,47.420 28.244 C 46.930 28.101,46.441 27.879,46.334 27.751 C 45.939 27.275,43.597 26.966,41.500 27.113 M43.823 27.498 C 44.301 27.589,44.929 27.772,45.221 27.906 C 45.512 28.040,46.182 28.298,46.710 28.479 C 48.277 29.018,51.167 32.003,51.167 33.083 C 51.167 33.227,51.373 33.736,51.625 34.214 C 52.302 35.499,52.315 38.929,51.648 40.333 C 51.408 40.837,51.118 41.550,51.003 41.917 C 50.888 42.283,50.626 42.771,50.421 43.000 C 50.215 43.229,49.908 43.660,49.738 43.958 C 49.567 44.256,49.388 44.501,49.339 44.502 C 49.290 44.503,48.817 44.829,48.287 45.227 C 47.757 45.624,47.007 46.047,46.620 46.165 C 46.233 46.284,45.579 46.539,45.167 46.732 C 44.056 47.252,41.390 47.239,40.344 46.708 C 39.937 46.502,39.512 46.333,39.399 46.333 C 39.012 46.333,37.713 45.698,37.303 45.308 C 37.077 45.093,36.747 44.793,36.571 44.641 C 35.756 43.942,35.108 43.060,34.376 41.659 L 33.583 40.139 33.583 37.278 L 33.583 34.417 34.379 32.833 C 35.676 30.251,37.207 28.932,40.083 27.919 C 41.737 27.336,42.510 27.249,43.823 27.498 M73.368 28.320 C 72.161 28.630,72.167 28.607,72.167 32.931 C 72.167 37.962,71.780 37.584,76.917 37.583 C 80.317 37.582,81.711 37.393,81.898 36.906 C 81.945 36.782,82.270 36.536,82.619 36.358 C 83.070 36.128,83.347 35.823,83.574 35.308 C 83.750 34.910,83.984 34.493,84.093 34.383 C 84.536 33.940,84.503 31.673,84.049 31.351 C 83.971 31.295,83.770 30.939,83.603 30.558 C 83.395 30.087,83.104 29.768,82.691 29.558 C 82.357 29.389,82.019 29.149,81.941 29.026 C 81.515 28.353,75.247 27.837,73.368 28.320 M81.649 29.491 C 84.162 31.004,84.465 34.871,82.167 36.102 C 81.754 36.322,81.155 36.652,80.836 36.835 C 80.099 37.256,73.655 37.337,73.122 36.932 C 72.853 36.728,72.831 36.379,72.872 32.901 L 72.917 29.093 73.333 28.876 C 73.645 28.713,74.593 28.670,77.083 28.704 L 80.417 28.750 81.649 29.491 "
              stroke="none" fill="#ffffff" fill-rule="evenodd"></path>
        <path id="path2"
              d="M39.612 21.015 C 38.361 21.118,37.810 21.244,37.279 21.549 C 36.896 21.769,36.171 22.079,35.667 22.239 C 35.162 22.399,34.622 22.645,34.465 22.785 C 34.308 22.925,33.801 23.215,33.337 23.430 C 32.874 23.645,32.449 23.939,32.393 24.084 C 32.338 24.229,31.998 24.497,31.639 24.681 C 31.280 24.864,30.902 25.200,30.798 25.427 C 30.694 25.655,30.440 25.884,30.233 25.936 C 30.026 25.988,29.743 26.267,29.605 26.557 C 29.466 26.846,29.205 27.173,29.026 27.283 C 28.846 27.393,28.508 27.899,28.275 28.408 C 28.042 28.917,27.780 29.333,27.692 29.333 C 27.604 29.333,27.370 29.868,27.171 30.522 C 26.973 31.176,26.670 31.908,26.499 32.147 C 25.578 33.437,25.622 41.256,26.557 42.646 C 26.781 42.978,27.058 43.663,27.172 44.167 C 27.293 44.698,27.575 45.306,27.843 45.614 C 28.096 45.906,28.357 46.318,28.423 46.531 C 28.488 46.743,28.776 47.156,29.062 47.448 C 29.349 47.741,29.705 48.106,29.854 48.261 C 30.003 48.415,30.284 48.701,30.479 48.896 C 30.674 49.091,30.935 49.362,31.060 49.500 C 31.941 50.474,34.800 52.236,35.899 52.482 C 36.402 52.594,37.010 52.841,37.250 53.030 C 38.462 53.983,47.047 53.880,48.496 52.895 C 48.816 52.678,49.208 52.500,49.369 52.500 C 49.861 52.500,51.001 51.976,51.162 51.676 C 51.245 51.520,51.624 51.299,52.003 51.186 C 52.381 51.072,52.930 50.751,53.221 50.473 C 53.512 50.194,53.940 49.868,54.173 49.747 C 54.405 49.627,54.694 49.343,54.816 49.116 C 54.937 48.889,55.216 48.622,55.435 48.522 C 55.654 48.422,55.833 48.270,55.833 48.184 C 55.833 48.098,56.167 47.636,56.575 47.158 C 56.983 46.681,57.366 46.062,57.428 45.783 C 57.489 45.505,57.753 44.981,58.016 44.619 C 58.278 44.257,58.540 43.688,58.599 43.355 C 58.658 43.022,58.941 42.225,59.228 41.583 L 59.750 40.417 59.750 37.250 L 59.750 34.083 59.228 32.917 C 58.940 32.275,58.654 31.394,58.592 30.959 C 58.529 30.516,58.312 29.967,58.097 29.709 C 57.886 29.457,57.563 28.912,57.378 28.500 C 57.193 28.087,56.470 27.167,55.771 26.453 C 55.072 25.740,54.500 25.084,54.500 24.995 C 54.500 24.906,54.391 24.833,54.258 24.833 C 54.125 24.833,53.765 24.574,53.457 24.258 C 53.150 23.942,52.551 23.534,52.126 23.352 C 51.702 23.170,51.209 22.876,51.032 22.699 C 50.855 22.522,50.307 22.282,49.814 22.166 C 49.320 22.050,48.602 21.773,48.218 21.550 C 47.133 20.923,43.484 20.696,39.612 21.015 M127.685 20.990 C 126.880 21.195,125.517 22.605,125.326 23.430 C 125.136 24.248,125.124 50.364,125.313 51.176 C 125.959 53.955,130.817 54.660,131.921 52.136 C 132.094 51.740,132.407 51.205,132.618 50.946 L 133.000 50.474 133.002 43.279 C 133.004 39.321,133.048 35.920,133.102 35.720 C 133.263 35.121,133.641 35.118,133.896 35.714 C 134.022 36.009,134.360 36.470,134.646 36.740 C 134.932 37.009,135.167 37.318,135.167 37.428 C 135.167 37.537,135.467 37.936,135.833 38.313 C 136.200 38.691,136.500 39.111,136.500 39.245 C 136.500 39.380,136.719 39.652,136.987 39.850 C 137.256 40.049,137.515 40.370,137.564 40.564 C 137.613 40.758,137.918 41.198,138.243 41.542 C 138.568 41.886,138.833 42.238,138.833 42.324 C 138.833 42.409,139.135 42.841,139.503 43.282 C 139.871 43.723,140.434 44.396,140.753 44.778 C 141.072 45.161,141.333 45.542,141.333 45.626 C 141.333 45.785,142.714 47.602,143.398 48.343 C 143.615 48.578,143.916 49.010,144.067 49.302 C 144.218 49.594,144.414 49.833,144.502 49.833 C 144.590 49.833,144.862 50.152,145.105 50.542 C 145.349 50.931,145.644 51.307,145.761 51.376 C 145.878 51.445,146.133 51.759,146.327 52.073 C 147.820 54.489,152.770 54.189,153.278 51.652 C 153.329 51.394,153.513 51.056,153.686 50.899 C 154.177 50.455,154.177 24.045,153.686 23.601 C 153.513 23.444,153.330 23.114,153.279 22.866 C 152.825 20.665,149.190 20.143,147.322 22.012 C 146.370 22.964,146.342 23.231,146.337 31.528 C 146.335 35.623,146.288 39.091,146.232 39.236 C 146.073 39.650,145.858 39.548,145.603 38.938 C 145.474 38.630,145.221 38.273,145.042 38.147 C 144.862 38.020,144.555 37.603,144.360 37.219 C 144.164 36.836,143.865 36.423,143.694 36.303 C 143.523 36.182,143.266 35.858,143.124 35.583 C 142.982 35.308,142.670 34.915,142.433 34.709 C 142.195 34.504,142.000 34.228,142.000 34.097 C 142.000 33.966,141.762 33.621,141.471 33.330 C 141.180 33.039,140.824 32.590,140.679 32.332 C 140.438 31.901,139.315 30.429,138.773 29.833 C 138.648 29.696,138.347 29.265,138.104 28.875 C 137.861 28.485,137.602 28.167,137.529 28.167 C 137.455 28.167,137.278 27.923,137.134 27.625 C 136.991 27.327,136.564 26.734,136.187 26.308 C 135.809 25.881,135.500 25.455,135.500 25.362 C 135.500 25.268,135.323 25.051,135.106 24.881 C 134.889 24.710,134.583 24.321,134.425 24.016 C 134.113 23.412,132.503 21.728,131.794 21.264 C 131.284 20.929,128.617 20.751,127.685 20.990 M45.583 21.338 C 46.427 21.432,47.521 21.684,48.083 21.914 C 48.633 22.138,49.399 22.401,49.784 22.499 C 50.170 22.596,50.695 22.851,50.951 23.065 C 51.207 23.279,51.604 23.511,51.833 23.580 C 52.911 23.904,56.396 27.340,57.227 28.898 C 57.514 29.437,57.853 30.067,57.979 30.297 C 58.105 30.527,58.301 31.098,58.416 31.566 C 58.530 32.034,58.821 33.081,59.062 33.894 C 59.420 35.102,59.500 35.708,59.500 37.228 C 59.500 39.091,59.444 39.384,58.423 42.833 C 57.531 45.844,53.769 50.425,51.776 50.925 C 51.550 50.982,51.194 51.210,50.985 51.433 C 50.776 51.655,50.300 51.914,49.928 52.008 C 49.555 52.101,48.800 52.355,48.250 52.571 C 45.575 53.623,39.337 53.682,37.378 52.675 C 37.032 52.497,36.385 52.261,35.938 52.151 C 35.181 51.964,34.679 51.683,32.614 50.291 C 31.923 49.825,30.788 48.766,29.266 47.167 C 29.048 46.938,28.703 46.417,28.499 46.010 C 28.295 45.604,28.018 45.161,27.883 45.026 C 27.578 44.720,27.333 44.092,27.333 43.612 C 27.333 43.410,27.090 42.759,26.792 42.164 L 26.250 41.083 26.250 37.417 C 26.250 33.751,26.250 33.750,26.716 32.755 C 26.972 32.208,27.256 31.428,27.347 31.022 C 27.438 30.616,27.678 30.052,27.881 29.769 C 28.084 29.486,28.370 28.991,28.517 28.669 C 28.944 27.732,31.110 25.356,32.083 24.756 C 32.358 24.586,32.644 24.346,32.718 24.221 C 32.792 24.096,33.326 23.780,33.904 23.518 C 34.482 23.256,35.004 22.962,35.064 22.865 C 35.124 22.768,35.603 22.565,36.128 22.415 C 36.653 22.264,37.271 22.018,37.500 21.868 C 38.365 21.304,42.728 21.017,45.583 21.338 M130.952 21.320 C 131.479 21.471,132.854 22.434,132.984 22.743 C 133.021 22.830,133.302 23.161,133.609 23.477 C 133.916 23.793,134.167 24.124,134.167 24.214 C 134.167 24.303,134.410 24.661,134.708 25.008 C 135.006 25.356,135.587 26.099,136.000 26.659 C 136.412 27.220,136.994 27.983,137.292 28.355 C 137.590 28.727,137.833 29.081,137.833 29.142 C 137.833 29.203,138.005 29.440,138.215 29.668 C 138.426 29.897,138.840 30.421,139.137 30.833 C 139.433 31.246,140.049 32.071,140.505 32.667 C 140.961 33.262,141.482 33.975,141.664 34.250 C 141.846 34.525,142.182 34.975,142.410 35.250 C 143.272 36.288,143.999 37.267,144.267 37.750 C 144.420 38.025,144.651 38.312,144.780 38.387 C 144.909 38.463,145.223 38.859,145.477 39.267 L 145.939 40.010 146.261 39.654 C 146.569 39.315,146.585 38.942,146.625 31.524 C 146.672 22.640,146.610 23.261,147.549 22.294 C 149.437 20.352,151.940 20.804,153.093 23.296 L 153.500 24.176 153.500 37.208 C 153.500 51.426,153.530 50.954,152.547 52.292 C 151.429 53.814,148.533 53.849,147.071 52.358 C 145.988 51.254,145.538 50.730,145.331 50.333 C 145.211 50.104,144.932 49.729,144.711 49.500 C 144.187 48.957,142.304 46.471,141.650 45.458 C 141.368 45.023,141.083 44.667,141.016 44.667 C 140.949 44.667,140.736 44.385,140.542 44.042 C 140.348 43.698,140.052 43.267,139.883 43.083 C 139.405 42.563,138.101 40.808,137.748 40.208 C 137.572 39.910,137.370 39.667,137.299 39.667 C 137.229 39.667,136.970 39.348,136.725 38.958 C 136.262 38.223,135.635 37.408,134.708 36.336 C 134.410 35.991,134.167 35.637,134.167 35.547 C 134.167 34.964,132.974 34.722,132.628 35.235 C 132.560 35.335,132.504 38.801,132.503 42.938 C 132.500 49.268,132.462 50.491,132.261 50.658 C 132.129 50.767,131.971 51.095,131.910 51.387 C 131.329 54.145,126.462 53.939,125.654 51.122 C 125.430 50.341,125.451 23.984,125.677 23.386 C 126.335 21.637,128.755 20.689,130.952 21.320 M67.724 22.326 C 67.526 22.410,67.001 22.839,66.557 23.281 L 65.750 24.083 65.750 37.918 L 65.750 51.753 66.636 52.621 C 67.636 53.600,68.065 53.738,69.796 53.640 C 71.174 53.563,71.775 53.188,72.347 52.050 C 72.569 51.610,72.881 51.071,73.042 50.853 C 73.296 50.506,73.333 50.040,73.333 47.245 C 73.333 43.440,72.961 43.835,76.555 43.828 C 80.287 43.820,82.559 43.599,83.136 43.189 C 83.386 43.011,84.021 42.740,84.547 42.587 C 85.073 42.434,85.709 42.141,85.960 41.936 C 86.211 41.731,86.760 41.366,87.180 41.124 C 88.136 40.575,89.473 39.028,89.784 38.112 C 89.914 37.730,90.179 37.294,90.373 37.143 C 91.197 36.506,91.185 29.490,90.359 28.610 C 90.154 28.392,89.911 27.942,89.819 27.609 C 89.626 26.908,88.136 25.131,87.333 24.642 C 87.030 24.458,86.662 24.169,86.516 24.001 C 86.370 23.833,85.815 23.573,85.284 23.424 C 84.752 23.275,84.276 23.045,84.226 22.913 C 83.998 22.321,69.004 21.788,67.724 22.326 M97.520 22.347 C 97.302 22.434,96.758 22.888,96.311 23.356 L 95.500 24.207 95.500 37.926 L 95.500 51.645 96.403 52.562 C 97.580 53.758,96.813 53.689,108.333 53.632 C 119.673 53.576,118.941 53.679,119.554 52.056 C 119.722 51.613,119.970 51.044,120.106 50.792 C 120.318 50.397,120.320 50.270,120.121 49.875 C 119.993 49.623,119.708 49.047,119.486 48.595 C 118.709 47.011,119.164 47.095,110.863 47.000 C 106.859 46.954,103.490 46.856,103.375 46.782 C 103.087 46.595,103.079 41.821,103.367 41.533 C 103.514 41.386,105.051 41.333,109.242 41.332 C 115.905 41.331,115.921 41.329,117.125 40.032 L 118.000 39.090 118.000 37.897 L 118.000 36.705 117.125 35.783 C 115.915 34.508,115.880 34.502,109.242 34.501 C 105.051 34.500,103.514 34.448,103.367 34.300 C 102.988 33.921,103.096 29.216,103.489 29.006 C 103.696 28.895,106.276 28.833,110.717 28.833 L 117.623 28.833 118.453 28.173 C 120.450 26.583,120.155 23.556,117.886 22.359 C 117.425 22.116,98.126 22.104,97.520 22.347 M81.355 22.491 C 82.420 22.603,83.058 22.776,83.809 23.154 C 84.367 23.436,84.973 23.667,85.156 23.667 C 85.339 23.667,85.735 23.881,86.036 24.143 C 86.337 24.405,86.782 24.723,87.026 24.851 C 87.690 25.199,89.208 26.986,89.561 27.836 C 89.732 28.247,90.004 28.846,90.166 29.167 C 91.035 30.897,90.990 35.746,90.094 36.833 C 89.981 36.971,89.788 37.346,89.666 37.667 C 89.465 38.197,87.616 40.498,87.273 40.645 C 87.193 40.679,86.668 41.020,86.106 41.402 C 85.544 41.784,84.746 42.195,84.333 42.316 C 83.921 42.436,83.260 42.680,82.866 42.859 C 81.898 43.297,79.962 43.497,76.692 43.499 C 74.532 43.500,73.850 43.556,73.400 43.769 L 72.833 44.038 72.833 47.165 C 72.833 51.640,72.157 53.009,69.750 53.403 C 68.355 53.632,66.360 52.422,65.987 51.120 C 65.780 50.401,65.784 25.151,65.991 24.608 C 66.259 23.902,67.678 22.614,68.328 22.487 C 69.212 22.314,79.703 22.317,81.355 22.491 M117.104 22.481 C 118.480 22.748,119.998 24.904,119.484 25.862 C 119.401 26.018,119.333 26.325,119.333 26.545 C 119.333 26.938,118.411 27.918,117.608 28.378 C 117.347 28.528,115.345 28.606,110.234 28.667 C 101.772 28.767,102.667 28.403,102.667 31.751 L 102.667 34.295 103.234 34.564 C 103.720 34.795,104.590 34.833,109.359 34.834 C 112.662 34.835,115.168 34.905,115.536 35.007 C 117.368 35.516,118.094 38.288,116.806 39.860 C 115.896 40.970,115.699 41.000,109.339 41.000 C 104.587 41.000,103.720 41.038,103.234 41.269 L 102.667 41.538 102.667 44.082 C 102.667 46.243,102.708 46.660,102.942 46.855 C 103.162 47.038,104.664 47.100,110.488 47.167 L 117.759 47.250 118.537 47.888 C 120.075 49.148,119.999 51.721,118.388 52.950 L 117.776 53.417 108.096 53.417 C 102.773 53.417,98.229 53.363,98.000 53.298 C 97.384 53.124,95.998 51.739,95.821 51.122 C 95.614 50.401,95.617 25.152,95.824 24.608 C 96.092 23.902,97.511 22.614,98.162 22.487 C 98.990 22.325,116.269 22.319,117.104 22.481 M41.500 27.498 C 38.110 28.234,35.832 29.940,34.379 32.833 L 33.583 34.417 33.583 37.278 L 33.583 40.139 34.376 41.659 C 35.108 43.060,35.756 43.942,36.571 44.641 C 36.747 44.793,37.077 45.093,37.303 45.308 C 37.713 45.698,39.012 46.333,39.399 46.333 C 39.512 46.333,39.937 46.502,40.344 46.708 C 41.390 47.239,44.056 47.252,45.167 46.732 C 45.579 46.539,46.233 46.284,46.620 46.165 C 47.007 46.047,47.757 45.624,48.287 45.227 C 48.817 44.829,49.290 44.503,49.339 44.502 C 49.388 44.501,49.567 44.256,49.738 43.958 C 49.908 43.660,50.215 43.229,50.421 43.000 C 50.626 42.771,50.888 42.283,51.003 41.917 C 51.118 41.550,51.408 40.837,51.648 40.333 C 52.315 38.929,52.302 35.499,51.625 34.214 C 51.373 33.736,51.167 33.227,51.167 33.083 C 51.167 32.003,48.277 29.018,46.710 28.479 C 46.182 28.298,45.512 28.040,45.221 27.906 C 44.142 27.410,42.656 27.247,41.500 27.498 M45.000 28.212 C 45.504 28.447,46.234 28.723,46.622 28.825 C 47.310 29.007,49.075 30.370,49.401 30.972 C 49.484 31.125,49.795 31.523,50.092 31.856 C 50.417 32.222,50.740 32.852,50.903 33.440 C 51.051 33.977,51.247 34.529,51.337 34.667 C 52.038 35.736,52.158 38.520,51.546 39.510 C 51.344 39.836,51.069 40.524,50.935 41.039 C 50.647 42.144,50.470 42.502,49.914 43.102 C 49.686 43.348,49.500 43.649,49.500 43.772 C 49.500 43.895,49.183 44.196,48.795 44.441 C 48.408 44.685,47.988 44.988,47.863 45.113 C 47.529 45.447,46.832 45.776,46.167 45.914 C 45.846 45.981,45.246 46.202,44.833 46.406 C 43.626 47.003,41.190 47.073,40.846 46.521 C 40.742 46.355,38.758 45.667,38.384 45.667 C 38.171 45.667,37.474 45.089,36.618 44.203 C 36.415 43.994,36.017 43.581,35.732 43.286 C 35.447 42.991,35.167 42.557,35.111 42.321 C 35.055 42.085,34.817 41.610,34.583 41.265 C 33.541 39.729,33.526 35.203,34.557 33.280 C 34.892 32.654,35.167 32.035,35.167 31.905 C 35.167 31.691,36.164 30.644,37.468 29.489 C 37.733 29.254,38.393 28.930,38.934 28.771 C 39.474 28.611,40.179 28.356,40.500 28.203 C 41.519 27.719,41.725 27.679,42.917 27.733 C 43.732 27.770,44.359 27.914,45.000 28.212 M73.333 28.876 L 72.917 29.093 72.872 32.901 C 72.831 36.379,72.853 36.728,73.122 36.932 C 73.655 37.337,80.099 37.256,80.836 36.835 C 81.155 36.652,81.754 36.322,82.167 36.102 C 84.465 34.871,84.162 31.004,81.649 29.491 L 80.417 28.750 77.083 28.704 C 74.593 28.670,73.645 28.713,73.333 28.876 M81.365 29.758 C 82.998 30.688,83.254 31.162,83.206 33.168 C 83.169 34.743,82.884 35.300,81.833 35.842 C 81.329 36.103,80.819 36.401,80.701 36.505 C 80.115 37.018,74.003 37.270,73.533 36.800 C 73.173 36.439,73.257 29.230,73.625 29.003 C 73.814 28.887,74.968 28.843,76.917 28.878 L 79.917 28.932 81.365 29.758 "
              stroke="none" fill="#ffffff" fill-rule="evenodd"></path>
        <path id="path3"
              d="M16.833 0.333 C 16.833 0.637,16.722 0.667,15.583 0.667 L 14.333 0.667 14.333 1.293 L 14.333 1.919 13.125 1.918 L 11.917 1.917 11.865 2.542 L 11.813 3.167 10.773 3.167 C 9.671 3.167,9.333 3.342,9.333 3.916 C 9.333 4.165,9.179 4.310,8.792 4.424 C 8.346 4.555,8.241 4.677,8.199 5.115 C 8.154 5.578,8.078 5.654,7.615 5.699 C 7.184 5.740,7.055 5.847,6.931 6.265 C 6.822 6.636,6.636 6.822,6.265 6.931 C 5.763 7.079,5.749 7.112,5.701 8.199 L 5.652 9.314 5.034 9.365 C 4.452 9.414,4.416 9.450,4.407 10.000 C 4.398 10.535,4.350 10.590,3.824 10.667 L 3.250 10.750 3.203 12.532 L 3.156 14.314 2.536 14.365 L 1.917 14.417 1.883 16.083 C 1.864 17.000,1.846 17.806,1.841 17.875 C 1.837 17.944,1.665 18.001,1.458 18.003 C 0.624 18.008,0.662 17.015,0.708 37.344 L 0.750 56.417 1.292 56.469 C 1.905 56.528,1.867 56.351,1.857 59.083 C 1.849 61.173,1.887 61.297,2.586 61.428 L 3.153 61.534 3.201 62.726 L 3.250 63.917 3.792 63.969 C 4.348 64.023,4.398 64.117,4.342 65.007 C 4.291 65.819,4.609 66.333,5.163 66.333 C 5.640 66.333,5.667 66.368,5.667 67.007 C 5.667 67.450,5.738 67.672,5.875 67.654 C 6.654 67.553,6.833 67.665,6.833 68.250 C 6.833 68.805,6.861 68.833,7.415 68.833 C 7.964 68.833,8.002 68.870,8.103 69.500 C 8.203 70.125,8.244 70.167,8.771 70.167 C 9.303 70.167,9.333 70.199,9.333 70.750 C 9.333 71.302,9.364 71.333,9.899 71.333 C 10.472 71.333,10.667 71.543,10.667 72.162 C 10.667 72.553,10.988 72.667,12.097 72.667 C 12.876 72.667,13.000 72.711,13.000 72.986 C 13.000 73.745,13.147 73.833,14.411 73.833 L 15.620 73.833 15.536 74.276 C 15.399 74.990,15.829 75.167,17.699 75.167 C 19.293 75.167,19.333 75.176,19.333 75.550 C 19.333 75.761,19.423 76.023,19.533 76.133 C 19.688 76.288,35.781 76.333,90.950 76.333 L 162.167 76.333 162.167 76.899 C 162.167 77.615,162.308 77.667,164.253 77.667 L 165.812 77.667 165.864 78.208 L 165.917 78.750 167.115 78.799 L 168.314 78.848 168.365 79.465 C 168.405 79.945,168.491 80.089,168.750 80.107 C 168.933 80.120,169.175 80.139,169.287 80.149 C 169.399 80.159,169.553 80.410,169.630 80.708 C 169.746 81.159,169.858 81.259,170.301 81.302 C 170.725 81.344,170.833 81.430,170.833 81.727 C 170.833 82.227,171.136 82.500,171.689 82.500 C 172.081 82.500,172.153 82.576,172.198 83.036 C 172.241 83.481,172.343 83.599,172.792 83.727 C 173.187 83.840,173.333 83.978,173.333 84.241 C 173.333 84.729,173.641 85.000,174.196 85.000 C 174.614 85.000,174.649 85.045,174.565 85.468 C 174.450 86.042,174.822 86.406,175.409 86.294 C 175.811 86.217,175.821 86.241,175.868 87.399 L 175.917 88.583 176.441 88.634 C 177.027 88.691,177.167 88.969,177.059 89.858 C 176.943 90.807,177.107 91.140,177.747 91.260 L 178.324 91.369 178.371 93.726 L 178.417 96.083 178.957 96.135 L 179.497 96.188 179.540 104.219 L 179.583 112.250 180.111 112.301 L 180.638 112.352 180.744 113.801 C 180.803 114.598,180.865 115.400,180.884 115.583 C 180.908 115.827,181.059 115.930,181.449 115.968 C 181.931 116.015,181.986 116.078,182.032 116.635 C 182.079 117.198,182.133 117.257,182.667 117.333 C 183.185 117.407,183.250 117.472,183.250 117.917 C 183.250 118.374,183.303 118.421,183.875 118.468 C 184.483 118.519,184.500 118.538,184.500 119.177 C 184.500 119.816,184.515 119.833,185.083 119.833 C 185.520 119.833,185.671 119.906,185.686 120.125 C 185.696 120.285,185.715 120.529,185.728 120.667 C 185.742 120.829,185.965 120.935,186.366 120.968 C 186.944 121.016,186.984 121.056,187.032 121.634 C 187.079 122.194,187.132 122.255,187.623 122.302 C 188.072 122.345,188.186 122.443,188.300 122.885 L 188.437 123.417 190.219 123.464 C 191.863 123.508,192.000 123.537,192.000 123.839 C 192.000 124.163,192.232 124.167,213.083 124.167 C 233.898 124.167,234.167 124.163,234.167 123.841 C 234.167 123.552,234.303 123.509,235.375 123.466 L 236.583 123.417 236.636 122.875 C 236.685 122.362,236.724 122.332,237.386 122.317 C 238.544 122.289,238.884 122.128,239.037 121.536 C 239.160 121.062,239.243 121.000,239.755 121.000 C 240.305 121.000,240.333 120.971,240.333 120.417 C 240.333 119.889,240.378 119.833,240.800 119.833 C 241.392 119.833,241.667 119.559,241.667 118.967 C 241.667 118.544,241.722 118.500,242.250 118.500 C 242.806 118.500,242.833 118.472,242.833 117.917 C 242.833 117.465,242.901 117.333,243.135 117.333 C 243.739 117.333,243.996 116.947,244.107 115.875 C 244.194 115.026,244.269 114.833,244.512 114.833 C 245.158 114.833,245.333 114.390,245.333 112.757 L 245.333 111.204 245.901 111.097 C 246.704 110.947,246.668 111.495,246.657 99.778 C 246.646 87.855,246.642 87.792,245.914 87.667 L 245.417 87.581 245.333 85.867 C 245.247 84.098,245.137 83.842,244.458 83.836 C 244.247 83.834,244.167 83.698,244.167 83.339 C 244.167 82.814,243.797 82.500,243.178 82.500 C 242.869 82.500,242.833 82.399,242.833 81.533 C 242.833 80.489,242.649 80.167,242.050 80.167 C 241.774 80.167,241.667 80.071,241.667 79.822 C 241.667 79.196,241.351 78.820,240.868 78.870 C 240.470 78.911,240.409 78.850,240.334 78.333 L 240.250 77.750 239.042 77.701 L 237.833 77.652 237.833 77.000 C 237.833 76.357,237.825 76.348,237.250 76.393 C 236.744 76.433,236.667 76.390,236.667 76.067 C 236.667 75.203,236.586 75.167,234.678 75.167 L 232.891 75.167 232.962 74.686 C 233.093 73.792,235.038 73.882,214.875 73.854 L 200.500 73.833 200.500 73.351 C 200.500 72.707,200.341 72.667,197.820 72.667 L 195.667 72.667 195.667 72.091 C 195.667 71.452,195.055 71.190,194.055 71.400 C 193.442 71.529,193.210 71.364,193.140 70.749 C 193.090 70.306,193.014 70.244,192.468 70.199 C 191.911 70.153,191.848 70.098,191.802 69.616 C 191.751 69.091,191.736 69.082,190.722 69.000 C 189.545 68.905,189.496 68.875,189.447 68.228 C 189.415 67.804,189.341 67.744,188.789 67.698 C 188.201 67.649,188.167 67.615,188.167 67.073 C 188.167 66.531,188.136 66.500,187.593 66.500 C 187.051 66.500,187.017 66.466,186.968 65.875 C 186.934 65.463,186.831 65.244,186.667 65.234 C 185.587 65.163,185.667 65.260,185.667 64.018 C 185.667 62.826,185.570 62.667,184.843 62.667 C 184.602 62.667,184.529 62.481,184.457 61.678 C 184.346 60.458,184.272 60.333,183.657 60.333 L 183.167 60.333 183.167 59.102 L 183.167 57.870 182.583 57.761 L 182.000 57.652 182.000 38.492 L 182.000 19.333 181.333 19.333 L 180.667 19.333 180.667 16.833 L 180.667 14.333 180.083 14.333 L 179.500 14.333 179.498 12.875 C 179.495 10.925,179.415 10.667,178.814 10.667 C 178.379 10.667,178.246 10.516,178.319 10.108 C 178.404 9.635,178.113 9.333,177.572 9.333 L 177.000 9.333 177.000 8.345 C 177.000 7.252,176.746 6.833,176.082 6.833 C 175.759 6.833,175.678 6.735,175.636 6.292 C 175.590 5.815,175.518 5.744,175.042 5.698 C 174.613 5.656,174.499 5.570,174.497 5.281 C 174.493 4.602,174.240 4.437,173.095 4.364 L 172.000 4.295 172.000 3.731 C 172.000 3.197,171.968 3.167,171.417 3.167 C 170.863 3.167,170.833 3.137,170.833 2.595 C 170.833 1.934,170.701 1.873,169.333 1.899 L 168.417 1.917 168.333 1.333 L 168.250 0.750 167.042 0.701 C 165.970 0.658,165.833 0.615,165.833 0.326 C 165.833 0.003,165.166 0.000,91.333 0.000 C 16.944 0.000,16.833 0.000,16.833 0.333 M214.625 20.678 C 214.457 20.777,214.333 21.049,214.333 21.320 L 214.333 21.791 212.680 21.728 C 210.866 21.658,210.500 21.804,210.500 22.595 C 210.500 22.985,210.458 23.000,209.333 23.000 L 208.167 23.000 208.167 23.627 L 208.167 24.254 207.173 24.273 C 205.854 24.299,205.667 24.388,205.667 24.995 C 205.667 25.446,205.613 25.500,205.163 25.500 C 204.542 25.500,204.327 25.957,204.380 27.165 L 204.418 28.000 203.792 28.000 C 203.188 28.000,203.167 28.020,203.167 28.583 C 203.167 29.119,203.126 29.167,202.673 29.167 C 202.004 29.167,201.886 29.471,201.868 31.234 C 201.852 32.798,201.761 32.993,201.042 32.997 L 200.667 33.000 200.667 38.500 L 200.667 44.000 201.250 44.000 C 201.596 44.000,201.841 44.085,201.851 44.208 C 201.861 44.323,201.866 45.072,201.862 45.874 C 201.854 47.465,202.023 47.833,202.762 47.833 C 203.113 47.833,203.167 47.910,203.167 48.417 C 203.167 48.972,203.194 49.000,203.750 49.000 C 204.191 49.000,204.335 49.071,204.342 49.292 C 204.399 51.262,204.497 51.492,205.281 51.497 C 205.570 51.499,205.656 51.613,205.698 52.042 C 205.749 52.578,205.762 52.585,206.917 52.751 C 208.071 52.917,208.084 52.924,208.136 53.459 L 208.188 54.000 209.344 54.000 C 210.499 54.000,210.500 54.000,210.500 54.467 C 210.500 55.232,210.748 55.333,212.617 55.333 C 214.330 55.333,214.333 55.334,214.333 55.744 C 214.333 56.435,214.748 56.510,218.287 56.462 C 221.448 56.419,221.584 56.403,221.607 56.083 C 221.620 55.900,221.639 55.666,221.649 55.563 C 221.661 55.438,222.450 55.351,224.013 55.301 C 226.500 55.222,226.659 55.166,226.664 54.375 C 226.666 54.049,226.754 54.000,227.333 54.000 C 227.984 54.000,228.000 53.986,228.000 53.417 L 228.000 52.833 228.792 52.831 C 230.045 52.827,230.311 52.703,230.431 52.065 C 230.505 51.669,230.628 51.500,230.840 51.500 C 231.566 51.500,231.667 51.123,231.667 48.417 C 231.667 45.646,231.574 45.333,230.749 45.333 C 230.426 45.333,230.345 45.235,230.302 44.792 L 230.250 44.250 227.292 44.204 C 224.459 44.161,224.333 44.173,224.333 44.483 C 224.333 45.124,224.144 45.333,223.566 45.333 C 223.019 45.333,223.000 45.355,223.000 45.987 L 223.000 46.640 222.208 46.574 C 221.773 46.538,220.948 46.552,220.375 46.607 L 219.333 46.705 219.333 47.269 L 219.333 47.833 218.083 47.833 L 216.833 47.833 216.833 47.339 C 216.833 46.669,216.354 46.434,215.223 46.551 C 214.375 46.638,214.333 46.624,214.333 46.252 C 214.333 45.540,214.160 45.333,213.566 45.333 C 213.030 45.333,213.000 45.302,213.000 44.750 C 213.000 44.196,212.971 44.167,212.427 44.167 C 211.885 44.167,211.851 44.133,211.802 43.542 C 211.753 42.951,211.716 42.914,211.125 42.865 L 210.500 42.813 210.500 38.500 L 210.500 34.187 211.125 34.135 C 211.716 34.086,211.753 34.049,211.802 33.458 C 211.851 32.867,211.885 32.833,212.427 32.833 C 212.969 32.833,213.000 32.802,213.000 32.260 C 213.000 31.718,213.034 31.684,213.625 31.635 C 214.196 31.588,214.255 31.536,214.302 31.042 L 214.354 30.500 215.394 30.500 C 216.549 30.500,216.833 30.329,216.833 29.633 L 216.833 29.167 218.083 29.167 L 219.333 29.167 219.333 29.747 C 219.333 30.348,219.670 30.576,220.440 30.494 C 221.461 30.387,221.833 30.497,221.833 30.907 C 221.833 31.445,222.058 31.566,223.250 31.666 C 224.238 31.749,224.251 31.756,224.303 32.296 L 224.355 32.842 226.719 32.796 L 229.083 32.750 229.135 32.218 C 229.182 31.736,229.244 31.681,229.802 31.634 C 230.345 31.589,230.419 31.530,230.434 31.122 C 230.453 30.592,230.426 30.621,231.083 30.406 L 231.583 30.243 231.630 28.203 C 231.682 25.966,231.558 25.500,230.911 25.500 C 230.569 25.500,230.500 25.419,230.500 25.020 C 230.500 24.446,230.188 24.147,229.649 24.206 C 229.314 24.243,229.241 24.162,229.169 23.667 L 229.083 23.083 227.875 23.034 L 226.667 22.985 226.667 22.425 C 226.667 21.776,226.095 21.629,224.000 21.737 C 222.137 21.833,221.693 21.715,221.634 21.105 L 221.583 20.583 218.250 20.545 C 216.190 20.521,214.805 20.572,214.625 20.678 M247.948 20.607 C 247.885 20.671,247.833 20.935,247.833 21.194 C 247.833 21.730,248.038 21.691,245.083 21.727 C 243.007 21.753,242.772 21.837,242.872 22.520 L 242.942 23.000 241.739 23.000 C 240.481 23.000,240.333 23.089,240.333 23.847 C 240.333 24.033,240.211 24.175,240.042 24.186 C 239.881 24.196,239.637 24.215,239.500 24.228 C 239.337 24.242,239.232 24.465,239.199 24.866 C 239.151 25.444,239.110 25.484,238.532 25.532 C 237.968 25.579,237.918 25.625,237.929 26.083 C 237.943 26.680,237.773 26.822,237.140 26.742 C 236.690 26.685,236.667 26.715,236.667 27.341 C 236.667 27.980,236.649 28.000,236.097 28.000 C 235.543 28.000,235.115 28.677,235.388 29.121 C 235.432 29.192,235.242 29.258,234.966 29.269 C 234.268 29.295,234.172 29.536,234.169 31.274 C 234.167 32.877,234.106 33.000,233.320 33.000 C 233.011 33.000,233.000 33.189,233.000 38.500 L 233.000 44.000 233.578 44.000 L 234.155 44.000 234.203 45.792 L 234.250 47.583 234.779 47.739 C 235.199 47.863,235.329 48.009,235.411 48.448 C 235.505 48.946,235.571 49.000,236.091 49.000 L 236.667 49.000 236.667 49.928 C 236.667 51.340,236.810 51.500,238.079 51.500 L 239.147 51.500 239.198 52.125 C 239.232 52.533,239.337 52.758,239.500 52.772 C 239.637 52.785,239.923 52.804,240.135 52.814 C 240.360 52.825,240.474 52.907,240.411 53.009 C 240.029 53.627,240.482 53.985,241.710 54.034 C 242.871 54.081,242.915 54.098,242.873 54.481 C 242.814 55.015,243.131 55.358,243.653 55.325 C 243.890 55.310,244.922 55.306,245.948 55.316 L 247.812 55.333 247.864 55.875 L 247.917 56.417 250.917 56.417 L 253.917 56.417 253.969 55.875 L 254.021 55.333 256.188 55.333 C 258.621 55.333,259.000 55.220,259.000 54.494 C 259.000 54.004,259.008 54.000,259.958 53.997 C 261.077 53.994,261.268 53.903,261.419 53.299 C 261.507 52.949,261.645 52.841,262.057 52.801 C 262.532 52.755,262.588 52.690,262.634 52.134 C 262.683 51.556,262.723 51.516,263.301 51.468 C 263.859 51.421,263.922 51.366,263.968 50.885 C 264.013 50.422,264.088 50.346,264.551 50.301 C 265.035 50.255,265.088 50.193,265.135 49.625 C 265.184 49.038,265.221 49.000,265.742 49.000 C 266.409 49.000,266.500 48.818,266.500 47.486 L 266.500 46.500 267.083 46.500 L 267.667 46.500 267.667 44.677 L 267.667 42.853 268.292 42.802 L 268.917 42.750 268.965 38.833 C 269.023 34.170,269.023 34.167,268.247 34.167 L 267.667 34.167 267.667 32.333 L 267.667 30.500 267.083 30.500 L 266.500 30.500 266.500 29.514 C 266.500 28.182,266.409 28.000,265.742 28.000 C 265.221 28.000,265.184 27.962,265.135 27.375 C 265.088 26.803,265.041 26.750,264.583 26.750 C 264.126 26.750,264.079 26.697,264.032 26.125 C 263.981 25.519,263.960 25.500,263.333 25.500 C 262.707 25.500,262.685 25.481,262.635 24.875 C 262.588 24.308,262.539 24.250,262.098 24.250 C 261.831 24.250,261.594 24.175,261.571 24.083 C 261.548 23.992,261.484 23.710,261.428 23.458 C 261.330 23.012,261.297 23.000,260.163 23.000 L 259.000 23.000 259.000 22.510 C 259.000 21.825,258.842 21.773,256.672 21.738 C 253.813 21.692,254.028 21.741,253.969 21.125 L 253.917 20.583 250.990 20.538 C 249.380 20.513,248.011 20.544,247.948 20.607 M48.285 20.842 C 48.562 20.938,48.866 21.190,48.963 21.402 C 49.108 21.720,49.314 21.807,50.150 21.902 C 50.934 21.990,51.326 22.141,51.892 22.573 C 52.293 22.879,52.800 23.185,53.019 23.252 C 53.580 23.424,53.833 23.660,53.833 24.009 C 53.833 24.177,54.000 24.362,54.208 24.425 C 54.725 24.583,55.167 24.997,55.167 25.326 C 55.167 25.486,55.401 25.684,55.730 25.803 C 56.135 25.950,56.319 26.135,56.384 26.462 C 56.446 26.769,56.634 26.978,56.964 27.102 C 57.284 27.223,57.492 27.447,57.569 27.752 C 57.633 28.008,57.942 28.530,58.256 28.913 C 58.746 29.511,58.841 29.776,58.936 30.800 C 59.025 31.758,59.108 32.012,59.357 32.091 C 59.984 32.290,60.074 32.799,60.138 36.477 C 60.216 40.912,60.125 41.749,59.508 42.326 C 59.152 42.659,59.021 42.974,58.927 43.725 C 58.817 44.608,58.516 45.168,58.053 45.354 C 57.967 45.389,57.789 45.823,57.657 46.320 C 57.470 47.025,57.307 47.285,56.917 47.501 C 56.642 47.653,56.390 47.921,56.357 48.097 C 56.271 48.557,56.006 48.833,55.648 48.833 C 55.452 48.833,55.249 49.045,55.097 49.411 C 54.938 49.791,54.707 50.025,54.422 50.097 C 54.183 50.157,53.881 50.414,53.749 50.668 C 53.506 51.139,52.770 51.500,52.054 51.500 C 51.788 51.500,51.608 51.633,51.504 51.907 C 51.307 52.423,50.966 52.599,49.875 52.746 C 49.298 52.824,49.000 52.943,49.000 53.095 C 49.000 53.832,48.373 53.917,42.924 53.917 C 37.278 53.917,37.180 53.906,36.255 53.170 C 35.891 52.881,35.422 52.667,35.155 52.667 C 34.452 52.667,33.792 52.374,33.387 51.882 C 33.187 51.640,32.775 51.361,32.470 51.262 C 32.114 51.147,31.899 50.961,31.868 50.741 C 31.836 50.519,31.630 50.343,31.284 50.241 C 30.887 50.124,30.710 49.946,30.593 49.550 C 30.476 49.153,30.326 49.003,30.009 48.966 C 29.691 48.929,29.543 48.779,29.424 48.375 C 29.323 48.033,29.158 47.833,28.975 47.833 C 28.638 47.833,28.167 47.227,28.167 46.792 C 28.167 46.627,27.984 46.422,27.760 46.337 C 27.230 46.136,27.059 45.790,26.914 44.625 C 26.835 43.987,26.719 43.667,26.568 43.667 C 25.889 43.667,25.752 42.780,25.696 38.000 C 25.631 32.449,25.694 31.780,26.343 31.132 C 26.619 30.855,26.864 30.393,26.923 30.035 C 27.088 29.038,27.360 28.482,27.755 28.331 C 28.001 28.238,28.162 27.996,28.234 27.610 C 28.317 27.170,28.457 26.989,28.814 26.865 C 29.147 26.749,29.314 26.554,29.385 26.199 C 29.461 25.819,29.601 25.671,29.958 25.592 C 30.273 25.523,30.490 25.332,30.608 25.020 C 30.729 24.701,30.939 24.520,31.268 24.454 C 31.554 24.396,31.818 24.199,31.917 23.970 C 32.008 23.757,32.346 23.453,32.667 23.293 C 32.987 23.133,33.325 22.903,33.417 22.780 C 33.729 22.365,34.415 22.036,35.206 21.925 C 35.701 21.855,36.078 21.695,36.219 21.494 C 36.741 20.749,37.282 20.680,42.683 20.673 C 45.832 20.669,47.976 20.734,48.285 20.842 M132.113 20.845 C 132.850 21.125,134.635 23.079,134.759 23.741 C 134.836 24.150,134.974 24.333,135.262 24.405 C 135.532 24.473,135.702 24.676,135.797 25.044 C 135.885 25.384,136.103 25.664,136.387 25.802 C 136.634 25.922,136.945 26.278,137.077 26.593 C 137.209 26.909,137.394 27.167,137.489 27.167 C 137.723 27.167,138.456 28.349,138.526 28.841 C 138.564 29.100,138.725 29.270,138.996 29.333 C 139.281 29.400,139.456 29.598,139.564 29.974 C 139.661 30.312,139.903 30.613,140.199 30.767 C 140.508 30.927,140.713 31.191,140.778 31.513 C 140.832 31.787,141.021 32.089,141.198 32.183 C 141.604 32.401,142.165 33.312,142.166 33.755 C 142.166 33.975,142.336 34.157,142.649 34.276 C 142.990 34.404,143.164 34.610,143.246 34.982 C 143.320 35.321,143.528 35.592,143.833 35.750 C 144.116 35.896,144.381 36.222,144.493 36.563 C 144.596 36.876,144.820 37.168,144.990 37.212 C 145.160 37.257,145.430 37.570,145.591 37.908 C 146.108 38.998,146.161 38.290,146.164 30.329 C 146.167 22.140,146.194 21.833,146.930 21.833 C 147.065 21.833,147.244 21.650,147.329 21.427 C 147.590 20.742,148.023 20.636,150.330 20.695 C 152.687 20.756,153.044 20.897,153.254 21.852 C 153.313 22.118,153.504 22.413,153.678 22.506 C 154.517 22.955,154.500 22.657,154.500 37.258 C 154.500 51.873,154.503 51.818,153.670 52.082 C 153.507 52.134,153.331 52.381,153.280 52.630 C 153.057 53.720,152.373 53.983,149.750 53.989 C 147.780 53.993,147.002 53.806,146.583 53.228 C 146.400 52.975,146.014 52.538,145.727 52.259 C 145.133 51.682,144.833 51.164,144.833 50.714 C 144.833 50.525,144.640 50.333,144.332 50.217 C 143.969 50.080,143.802 49.886,143.728 49.513 C 143.661 49.181,143.469 48.924,143.187 48.791 C 142.947 48.677,142.643 48.340,142.512 48.044 C 142.382 47.747,142.131 47.458,141.955 47.403 C 141.639 47.302,141.011 46.153,141.004 45.662 C 141.002 45.521,140.787 45.326,140.526 45.227 C 140.186 45.099,140.021 44.898,139.946 44.521 C 139.875 44.168,139.704 43.943,139.425 43.836 C 139.190 43.747,138.905 43.429,138.770 43.105 C 138.638 42.790,138.385 42.486,138.207 42.430 C 137.842 42.314,137.573 41.810,137.408 40.932 C 137.330 40.513,137.208 40.333,137.002 40.333 C 136.644 40.333,136.414 40.062,136.274 39.475 C 136.205 39.186,136.001 38.975,135.684 38.864 C 135.335 38.743,135.167 38.549,135.084 38.171 C 135.011 37.838,134.827 37.593,134.580 37.499 C 134.366 37.417,134.062 37.079,133.904 36.747 C 133.396 35.677,133.339 36.386,133.336 43.714 C 133.333 51.118,133.282 51.723,132.621 52.108 C 132.486 52.186,132.220 52.559,132.029 52.938 C 131.592 53.802,131.451 53.857,129.417 53.956 C 127.382 54.056,126.382 53.836,126.237 53.258 C 126.178 53.023,125.973 52.821,125.730 52.760 C 125.008 52.579,125.000 52.410,125.000 37.193 C 125.000 21.419,124.977 21.833,125.843 21.833 C 126.052 21.833,126.167 21.719,126.167 21.509 C 126.167 20.725,130.519 20.238,132.113 20.845 M274.208 21.786 C 274.094 21.827,274.000 22.117,274.000 22.431 C 274.000 22.967,273.967 23.000,273.434 23.000 C 272.625 23.000,272.667 22.152,272.667 38.564 C 272.667 54.684,272.629 54.000,273.523 54.000 C 273.931 54.000,273.985 54.067,274.032 54.625 L 274.083 55.250 277.433 55.250 C 280.027 55.250,280.845 55.198,281.058 55.021 C 281.307 54.814,281.333 53.992,281.333 46.267 L 281.333 37.741 282.000 37.805 L 282.667 37.868 282.667 38.928 C 282.667 40.053,282.863 40.333,283.652 40.333 C 283.938 40.333,283.976 40.410,283.895 40.818 C 283.790 41.344,284.143 41.667,284.822 41.667 C 285.105 41.667,285.167 41.772,285.167 42.250 C 285.167 42.806,285.194 42.833,285.750 42.833 L 286.333 42.833 286.336 43.625 C 286.339 44.879,286.464 45.145,287.102 45.264 C 287.612 45.360,287.667 45.425,287.667 45.935 C 287.667 46.468,287.699 46.500,288.240 46.500 C 288.782 46.500,288.816 46.534,288.865 47.125 C 288.912 47.699,288.964 47.757,289.500 47.833 C 290.019 47.907,290.083 47.972,290.083 48.417 C 290.083 48.874,290.136 48.921,290.708 48.968 L 291.333 49.020 291.333 50.060 C 291.333 51.204,291.506 51.500,292.171 51.500 C 292.556 51.500,292.601 51.556,292.540 51.968 C 292.456 52.544,292.837 52.903,293.416 52.793 C 293.803 52.719,293.833 52.759,293.833 53.356 C 293.833 53.981,293.851 54.000,294.417 54.000 C 294.997 54.000,295.051 54.066,295.041 54.750 C 295.033 55.279,295.215 55.308,298.717 55.327 C 302.611 55.347,302.500 55.390,302.500 53.853 L 302.500 52.747 303.042 52.748 L 303.583 52.750 303.626 38.594 C 303.671 23.512,303.706 24.175,302.875 24.169 C 302.525 24.167,302.500 24.095,302.500 23.093 C 302.500 21.710,302.632 21.761,299.020 21.732 C 294.818 21.698,295.063 21.587,295.015 23.542 C 295.003 24.041,294.936 24.167,294.680 24.167 C 293.795 24.167,293.835 23.865,293.814 30.809 C 293.803 34.352,293.760 37.119,293.718 36.958 C 293.665 36.752,293.475 36.667,293.071 36.667 C 292.533 36.667,292.500 36.634,292.500 36.101 C 292.500 35.523,292.290 35.333,291.653 35.333 C 291.399 35.333,291.333 35.214,291.333 34.750 C 291.333 34.182,291.316 34.167,290.674 34.167 L 290.015 34.167 289.966 33.042 C 289.917 31.935,289.908 31.914,289.383 31.759 C 288.953 31.633,288.840 31.504,288.800 31.093 C 288.755 30.635,288.687 30.578,288.125 30.532 C 287.517 30.481,287.500 30.462,287.500 29.823 C 287.500 29.462,287.444 29.176,287.375 29.186 C 286.523 29.321,286.333 29.173,286.331 28.375 C 286.328 27.193,286.199 26.882,285.672 26.776 C 285.298 26.701,285.185 26.567,285.096 26.092 C 284.995 25.552,284.935 25.500,284.419 25.500 C 283.886 25.500,283.851 25.464,283.802 24.875 C 283.754 24.303,283.707 24.250,283.250 24.250 C 282.806 24.250,282.741 24.185,282.667 23.667 C 282.590 23.131,282.533 23.079,281.958 23.032 C 281.370 22.983,281.333 22.947,281.333 22.418 C 281.333 22.024,281.246 21.832,281.042 21.776 C 280.674 21.675,274.490 21.684,274.208 21.786 M310.292 21.783 C 310.086 21.836,310.000 22.024,310.000 22.419 C 310.000 22.947,309.963 22.983,309.375 23.032 L 308.750 23.083 308.750 38.500 L 308.750 53.917 309.366 53.968 C 309.944 54.016,309.984 54.056,310.032 54.634 L 310.083 55.250 321.750 55.250 L 333.417 55.250 333.468 54.625 C 333.519 54.017,333.538 54.000,334.177 54.000 L 334.833 54.000 334.831 51.292 C 334.828 47.650,334.902 47.833,333.426 47.833 L 332.224 47.833 332.297 47.336 C 332.416 46.529,332.143 46.500,324.406 46.500 L 317.333 46.500 317.333 44.667 L 317.333 42.833 323.844 42.833 C 330.710 42.833,331.000 42.803,331.000 42.077 C 331.000 41.679,331.126 41.601,331.683 41.654 C 332.265 41.709,332.343 41.286,332.296 38.311 L 332.250 35.417 331.625 35.436 C 331.007 35.455,331.000 35.448,331.000 34.811 L 331.000 34.167 324.167 34.167 L 317.333 34.167 317.333 32.333 L 317.333 30.500 323.625 30.479 C 327.085 30.468,330.303 30.474,330.776 30.494 C 331.889 30.539,332.333 30.302,332.333 29.661 C 332.333 29.171,332.341 29.167,333.292 29.164 C 334.752 29.160,334.722 29.217,334.803 26.354 C 334.892 23.213,334.846 23.000,334.080 23.000 C 333.532 23.000,333.500 22.969,333.500 22.435 C 333.500 21.987,333.422 21.850,333.125 21.775 C 332.687 21.665,310.724 21.673,310.292 21.783 M339.375 21.801 C 338.579 21.880,338.530 22.107,338.522 25.795 L 338.515 29.167 339.167 29.167 L 339.818 29.167 339.867 30.292 C 339.916 31.398,339.925 31.419,340.450 31.574 C 340.881 31.701,340.993 31.829,341.034 32.241 C 341.076 32.678,341.158 32.757,341.612 32.801 C 342.085 32.847,342.152 32.922,342.252 33.510 C 342.356 34.125,342.399 34.167,342.931 34.167 C 343.468 34.167,343.500 34.199,343.500 34.740 C 343.500 35.279,343.536 35.316,344.109 35.365 L 344.718 35.417 344.778 36.492 C 344.841 37.607,344.979 37.826,345.625 37.831 C 345.951 37.833,346.000 37.921,346.000 38.500 C 346.000 39.148,345.984 39.167,345.430 39.167 C 344.876 39.167,344.448 39.843,344.721 40.288 C 344.765 40.359,344.575 40.425,344.299 40.435 C 343.646 40.460,343.506 40.714,343.503 41.875 L 343.500 42.833 342.920 42.833 C 342.313 42.833,341.999 43.324,342.227 43.916 C 342.302 44.113,342.181 44.167,341.661 44.167 C 341.017 44.167,341.000 44.181,341.000 44.750 C 341.000 45.306,340.972 45.333,340.417 45.333 C 339.849 45.333,339.833 45.351,339.833 45.990 C 339.833 46.628,339.816 46.648,339.208 46.698 L 338.583 46.750 338.553 47.667 C 338.537 48.171,338.518 48.707,338.512 48.858 C 338.503 49.060,338.356 49.126,337.958 49.108 L 337.417 49.083 337.371 51.542 L 337.324 54.000 337.956 54.000 C 338.575 54.000,338.588 54.012,338.586 54.625 L 338.583 55.250 342.034 55.250 C 345.948 55.250,345.789 55.306,345.939 53.868 L 346.047 52.833 346.607 52.833 C 347.147 52.833,347.167 52.811,347.167 52.177 C 347.167 51.538,347.184 51.519,347.792 51.468 C 348.353 51.422,348.422 51.365,348.466 50.907 C 348.507 50.496,348.619 50.367,349.050 50.241 C 349.574 50.086,349.584 50.064,349.632 48.968 L 349.681 47.853 350.299 47.801 C 350.882 47.753,350.920 47.715,350.968 47.125 C 351.017 46.534,351.051 46.500,351.593 46.500 C 352.026 46.500,352.168 46.429,352.172 46.208 C 352.177 45.931,352.185 45.931,352.347 46.208 C 352.446 46.380,352.715 46.500,352.998 46.500 C 353.434 46.500,353.485 46.559,353.532 47.125 C 353.579 47.696,353.630 47.755,354.125 47.802 C 354.621 47.850,354.667 47.903,354.667 48.427 C 354.667 48.978,354.691 49.000,355.292 49.001 L 355.917 49.003 355.965 50.121 C 356.015 51.281,356.142 51.493,356.792 51.497 C 357.108 51.500,357.167 51.590,357.167 52.081 C 357.167 52.628,357.205 52.669,357.814 52.766 C 358.414 52.862,358.460 52.909,358.439 53.393 C 358.418 53.881,358.458 53.920,359.032 53.968 C 359.610 54.016,359.651 54.056,359.699 54.634 L 359.750 55.250 363.083 55.250 C 367.474 55.250,367.000 55.713,367.000 51.422 L 367.000 47.833 366.417 47.833 L 365.833 47.833 365.833 46.845 C 365.833 45.752,365.579 45.333,364.915 45.333 C 364.592 45.333,364.512 45.235,364.469 44.792 C 364.423 44.318,364.350 44.244,363.884 44.198 C 363.402 44.152,363.347 44.089,363.301 43.532 C 363.255 42.972,363.201 42.912,362.708 42.864 C 362.410 42.836,362.159 42.723,362.149 42.614 C 362.139 42.506,362.120 42.267,362.107 42.083 C 362.089 41.824,361.945 41.739,361.458 41.698 C 360.849 41.648,360.833 41.630,360.833 40.978 C 360.833 40.387,360.790 40.313,360.458 40.340 C 359.764 40.396,359.714 40.336,359.608 39.319 C 359.480 38.089,359.434 38.006,358.865 37.978 C 358.487 37.960,358.508 37.940,359.000 37.853 C 359.511 37.763,359.590 37.682,359.636 37.208 C 359.674 36.811,359.770 36.667,359.997 36.667 C 360.620 36.667,360.833 36.473,360.833 35.909 C 360.833 35.405,360.883 35.350,361.375 35.302 C 361.915 35.250,361.917 35.247,362.070 34.042 L 362.223 32.833 362.778 32.833 C 363.300 32.833,363.333 32.799,363.333 32.260 C 363.333 31.718,363.367 31.684,363.958 31.635 C 364.445 31.595,364.589 31.510,364.607 31.250 C 364.620 31.067,364.639 30.823,364.649 30.708 C 364.659 30.594,364.811 30.500,364.986 30.500 C 365.612 30.500,365.833 30.308,365.833 29.767 C 365.833 29.311,365.911 29.213,366.375 29.076 L 366.917 28.917 366.962 25.958 L 367.008 23.000 366.421 23.000 C 365.863 23.000,365.833 22.971,365.833 22.428 C 365.833 21.693,365.846 21.696,362.500 21.725 L 359.750 21.750 359.699 22.366 C 359.651 22.944,359.610 22.984,359.032 23.032 C 358.489 23.077,358.417 23.136,358.417 23.528 C 358.417 24.087,358.253 24.250,357.694 24.250 C 357.301 24.250,357.244 24.322,357.198 24.875 C 357.150 25.464,357.114 25.500,356.584 25.500 C 356.072 25.500,356.016 25.548,355.969 26.039 C 355.927 26.468,355.815 26.611,355.417 26.745 C 354.734 26.973,354.672 27.099,354.669 28.261 L 354.667 29.273 354.083 29.227 C 353.507 29.181,353.500 29.189,353.500 29.840 C 353.500 30.483,353.485 30.500,352.917 30.500 C 352.123 30.500,352.089 30.478,352.141 29.987 C 352.192 29.497,351.934 29.224,351.339 29.141 C 351.007 29.095,350.926 28.986,350.922 28.583 C 350.917 28.127,350.862 28.079,350.292 28.032 C 349.685 27.981,349.667 27.961,349.667 27.330 C 349.667 26.690,349.658 26.681,349.083 26.727 L 348.500 26.773 348.498 25.928 C 348.494 24.619,348.375 24.356,347.732 24.236 C 347.221 24.140,347.167 24.075,347.167 23.565 C 347.167 23.030,347.135 23.000,346.583 23.000 C 346.030 23.000,346.000 22.970,346.000 22.430 C 346.000 21.940,345.935 21.848,345.542 21.773 C 345.070 21.684,340.340 21.705,339.375 21.801 M370.500 21.792 C 369.668 21.885,369.642 21.946,369.508 24.042 C 369.504 24.110,369.331 24.168,369.125 24.169 C 368.384 24.174,368.318 24.343,368.369 26.092 L 368.417 27.740 369.050 27.917 C 369.398 28.015,369.633 28.145,369.572 28.206 C 369.239 28.539,369.685 29.167,370.253 29.167 C 370.802 29.167,370.833 29.198,370.833 29.732 C 370.833 30.499,370.841 30.500,374.847 30.500 L 378.333 30.500 378.333 41.566 C 378.333 53.554,378.279 52.833,379.180 52.833 C 379.462 52.833,379.500 52.960,379.500 53.911 C 379.500 55.361,379.464 55.348,383.373 55.326 C 386.835 55.306,387.000 55.265,387.000 54.436 C 387.000 53.957,387.045 53.914,387.542 53.915 L 388.083 53.917 388.126 42.208 L 388.169 30.500 391.543 30.482 C 395.992 30.459,395.574 30.529,395.635 29.792 C 395.684 29.201,395.718 29.167,396.260 29.167 C 396.804 29.167,396.833 29.137,396.833 28.583 C 396.833 28.146,396.906 27.996,397.125 27.982 C 398.161 27.919,398.079 28.081,398.133 26.000 C 398.204 23.295,398.132 23.000,397.409 23.000 C 396.866 23.000,396.833 22.968,396.833 22.438 C 396.833 21.916,396.788 21.869,396.202 21.775 C 395.524 21.667,371.475 21.682,370.500 21.792 M84.300 22.135 C 84.510 22.255,84.752 22.537,84.837 22.760 C 84.963 23.091,85.109 23.167,85.621 23.169 C 86.412 23.172,87.019 23.473,87.277 23.991 C 87.387 24.212,87.726 24.473,88.030 24.571 C 88.451 24.707,88.596 24.858,88.635 25.199 C 88.674 25.539,88.821 25.692,89.239 25.830 C 89.693 25.979,89.809 26.117,89.887 26.600 C 89.944 26.949,90.153 27.322,90.402 27.518 C 91.578 28.443,91.543 37.565,90.362 37.874 C 90.130 37.935,90.012 38.170,89.927 38.741 C 89.811 39.516,89.366 40.167,88.953 40.167 C 88.836 40.167,88.656 40.387,88.555 40.657 C 88.433 40.980,88.158 41.235,87.749 41.406 C 87.408 41.549,86.881 41.883,86.578 42.149 C 86.266 42.423,85.733 42.682,85.349 42.747 C 84.958 42.813,84.461 43.058,84.175 43.326 C 83.488 43.967,83.201 44.000,78.229 44.000 L 73.833 44.000 73.833 47.146 C 73.833 50.797,73.779 51.177,73.168 51.832 C 72.918 52.100,72.616 52.553,72.498 52.839 C 71.937 54.191,67.403 54.569,66.693 53.322 C 66.541 53.054,66.335 52.835,66.234 52.834 C 65.393 52.830,65.417 53.256,65.417 37.917 C 65.417 22.487,65.387 23.000,66.276 23.000 C 66.399 23.000,66.500 22.899,66.500 22.776 C 66.500 22.494,66.978 22.062,67.417 21.947 C 68.208 21.739,83.912 21.914,84.300 22.135 M118.771 22.202 C 119.294 22.488,119.833 23.489,119.833 24.174 C 119.833 24.368,120.008 24.587,120.254 24.699 C 120.927 25.005,120.984 25.645,120.384 26.156 C 120.108 26.391,119.831 26.808,119.769 27.083 C 119.298 29.157,119.659 29.074,110.871 29.132 L 103.491 29.180 103.537 31.715 L 103.583 34.250 110.139 34.333 C 117.191 34.423,117.167 34.420,117.167 35.291 C 117.167 35.415,117.381 35.592,117.644 35.684 C 118.291 35.909,118.500 36.455,118.500 37.917 C 118.500 39.378,118.291 39.924,117.644 40.150 C 117.381 40.241,117.167 40.418,117.167 40.543 C 117.167 41.414,117.191 41.410,110.139 41.500 L 103.583 41.583 103.537 44.125 L 103.491 46.667 110.621 46.674 C 119.325 46.683,119.450 46.702,119.755 48.042 C 119.813 48.294,119.965 48.500,120.094 48.500 C 120.969 48.500,121.028 51.810,120.159 52.086 C 120.008 52.134,119.795 52.470,119.686 52.834 C 119.349 53.958,119.809 53.911,108.500 53.968 C 97.018 54.025,96.925 54.020,96.528 53.329 C 96.377 53.065,96.087 52.808,95.884 52.757 C 95.194 52.583,95.169 52.061,95.169 37.917 C 95.169 23.619,95.187 23.252,95.924 23.067 C 96.149 23.010,96.333 22.871,96.333 22.758 C 96.333 22.490,96.825 22.057,97.250 21.951 C 98.289 21.690,118.262 21.923,118.771 22.202 M42.250 27.955 C 41.975 27.994,41.599 28.213,41.415 28.441 C 41.148 28.772,40.856 28.884,39.964 28.994 C 39.048 29.108,38.719 29.238,38.132 29.717 C 37.739 30.038,37.235 30.327,37.014 30.359 C 36.725 30.400,36.557 30.581,36.417 31.000 C 36.271 31.437,36.115 31.596,35.796 31.634 C 35.404 31.681,35.361 31.768,35.258 32.732 C 35.149 33.754,34.675 34.833,34.336 34.833 C 34.229 34.833,34.169 35.709,34.173 37.208 L 34.180 39.583 34.673 40.160 C 35.000 40.543,35.167 40.920,35.167 41.279 C 35.167 41.687,35.333 41.989,35.840 42.507 C 36.211 42.885,36.558 43.413,36.611 43.680 C 36.679 44.022,36.807 44.167,37.039 44.167 C 37.221 44.167,37.718 44.456,38.144 44.809 C 38.776 45.334,39.094 45.471,39.893 45.562 C 41.037 45.693,41.438 45.876,41.583 46.333 C 41.699 46.697,43.500 46.851,43.500 46.498 C 43.500 46.175,44.566 45.682,45.489 45.578 C 46.767 45.433,46.969 45.362,47.079 45.015 C 47.172 44.720,48.092 44.233,48.748 44.131 C 48.930 44.103,49.103 43.930,49.131 43.748 C 49.237 43.063,49.713 42.199,50.074 42.034 C 50.389 41.891,50.465 41.689,50.551 40.770 C 50.658 39.623,51.018 38.713,51.425 38.557 C 51.757 38.430,51.769 36.243,51.439 36.050 C 51.035 35.813,50.632 34.804,50.541 33.798 C 50.464 32.948,50.393 32.787,50.009 32.588 C 49.765 32.462,49.480 32.173,49.377 31.946 C 49.273 31.719,48.837 31.207,48.408 30.808 C 47.979 30.409,47.424 29.883,47.175 29.638 C 46.925 29.391,46.451 29.150,46.112 29.096 C 45.775 29.043,45.245 28.961,44.934 28.912 C 44.623 28.864,44.088 28.602,43.745 28.329 C 43.402 28.056,43.037 27.845,42.935 27.858 C 42.833 27.872,42.525 27.915,42.250 27.955 M73.833 33.000 L 73.833 36.833 76.476 36.833 C 79.008 36.833,79.135 36.817,79.535 36.447 C 79.963 36.050,80.567 35.770,81.375 35.594 C 81.627 35.539,81.833 35.383,81.833 35.247 C 81.833 35.111,81.894 35.000,81.969 35.000 C 83.055 35.000,83.233 32.015,82.206 31.019 C 81.861 30.684,81.251 30.312,80.852 30.192 C 80.453 30.072,79.944 29.793,79.722 29.571 C 79.327 29.176,79.256 29.167,76.576 29.167 L 73.833 29.167 73.833 33.000 M251.591 29.735 C 251.721 30.427,251.923 30.495,253.875 30.498 L 255.333 30.500 255.333 31.048 C 255.333 31.542,255.384 31.600,255.856 31.636 C 256.577 31.691,256.649 31.762,256.559 32.334 C 256.482 32.820,256.499 32.833,257.157 32.833 L 257.833 32.833 257.833 34.083 L 257.833 35.333 258.417 35.333 L 259.000 35.333 259.012 36.250 C 259.081 41.553,259.072 41.639,258.458 41.698 L 257.917 41.750 257.868 42.958 L 257.819 44.167 257.166 44.167 C 256.523 44.167,256.515 44.175,256.560 44.750 C 256.605 45.323,256.594 45.333,255.970 45.333 C 255.341 45.333,255.333 45.341,255.333 45.985 L 255.333 46.637 254.375 46.569 C 252.583 46.440,251.759 46.663,251.698 47.293 C 251.621 48.090,250.424 48.125,250.250 47.335 C 250.104 46.670,250.039 46.644,248.365 46.574 C 247.568 46.541,246.865 46.511,246.802 46.507 C 246.739 46.503,246.664 46.256,246.636 45.958 C 246.588 45.464,246.529 45.412,245.958 45.365 C 245.367 45.316,245.333 45.282,245.333 44.740 C 245.333 44.201,245.300 44.167,244.778 44.167 L 244.223 44.167 244.070 42.958 C 243.917 41.753,243.915 41.750,243.375 41.698 L 242.833 41.646 242.833 37.916 L 242.833 34.187 243.458 34.135 C 244.047 34.086,244.086 34.048,244.134 33.468 C 244.181 32.911,244.236 32.848,244.718 32.802 C 245.181 32.757,245.257 32.681,245.302 32.218 C 245.348 31.736,245.411 31.681,245.968 31.634 C 246.528 31.588,246.588 31.534,246.636 31.042 C 246.685 30.526,246.722 30.500,247.386 30.493 C 249.728 30.471,250.097 30.364,250.250 29.665 C 250.425 28.872,251.440 28.925,251.591 29.735 "
              stroke="none" fill="#ffffff" fill-rule="evenodd"></path>
        <path id="path4"
              d="M37.013 20.927 C 36.699 21.063,36.342 21.319,36.219 21.494 C 36.078 21.695,35.701 21.855,35.206 21.925 C 34.415 22.036,33.729 22.365,33.417 22.780 C 33.325 22.903,32.987 23.133,32.667 23.293 C 32.346 23.453,32.008 23.757,31.917 23.970 C 31.818 24.199,31.554 24.396,31.268 24.454 C 30.939 24.520,30.729 24.701,30.608 25.020 C 30.490 25.332,30.273 25.523,29.958 25.592 C 29.601 25.671,29.461 25.819,29.385 26.199 C 29.314 26.554,29.147 26.749,28.814 26.865 C 28.457 26.989,28.317 27.170,28.234 27.610 C 28.162 27.996,28.001 28.238,27.755 28.331 C 27.360 28.482,27.088 29.038,26.923 30.035 C 26.864 30.393,26.619 30.855,26.343 31.132 C 25.203 32.271,25.409 43.667,26.568 43.667 C 26.719 43.667,26.835 43.987,26.914 44.625 C 27.059 45.790,27.230 46.136,27.760 46.337 C 27.984 46.422,28.167 46.627,28.167 46.792 C 28.167 47.227,28.638 47.833,28.975 47.833 C 29.158 47.833,29.323 48.033,29.424 48.375 C 29.543 48.779,29.691 48.929,30.009 48.966 C 30.326 49.003,30.476 49.153,30.593 49.550 C 30.710 49.946,30.887 50.124,31.284 50.241 C 31.630 50.343,31.836 50.519,31.868 50.741 C 31.899 50.961,32.114 51.147,32.470 51.262 C 32.775 51.361,33.187 51.640,33.387 51.882 C 33.792 52.374,34.452 52.667,35.155 52.667 C 35.422 52.667,35.891 52.881,36.255 53.170 C 37.180 53.906,37.278 53.917,42.924 53.917 C 48.373 53.917,49.000 53.832,49.000 53.095 C 49.000 52.943,49.298 52.824,49.875 52.746 C 50.966 52.599,51.307 52.423,51.504 51.907 C 51.608 51.633,51.788 51.500,52.054 51.500 C 52.770 51.500,53.506 51.139,53.749 50.668 C 53.881 50.414,54.183 50.157,54.422 50.097 C 54.707 50.025,54.938 49.791,55.097 49.411 C 55.249 49.045,55.452 48.833,55.648 48.833 C 56.006 48.833,56.271 48.557,56.357 48.097 C 56.390 47.921,56.642 47.653,56.917 47.501 C 57.307 47.285,57.470 47.025,57.657 46.320 C 57.789 45.823,57.967 45.389,58.053 45.354 C 58.516 45.168,58.817 44.608,58.927 43.725 C 59.021 42.974,59.152 42.659,59.508 42.326 C 60.573 41.331,60.441 32.435,59.357 32.091 C 59.108 32.012,59.025 31.758,58.936 30.800 C 58.841 29.776,58.746 29.511,58.256 28.913 C 57.942 28.530,57.633 28.008,57.569 27.752 C 57.492 27.447,57.284 27.223,56.964 27.102 C 56.634 26.978,56.446 26.769,56.384 26.462 C 56.319 26.135,56.135 25.950,55.730 25.803 C 55.401 25.684,55.167 25.486,55.167 25.326 C 55.167 24.997,54.725 24.583,54.208 24.425 C 54.000 24.362,53.833 24.177,53.833 24.009 C 53.833 23.660,53.580 23.424,53.019 23.252 C 52.800 23.185,52.293 22.879,51.892 22.573 C 51.326 22.141,50.934 21.990,50.150 21.902 C 49.314 21.807,49.108 21.720,48.963 21.402 C 48.660 20.736,48.060 20.666,42.683 20.673 C 38.550 20.678,37.475 20.727,37.013 20.927 M126.537 20.926 C 126.333 21.069,126.167 21.331,126.167 21.509 C 126.167 21.719,126.052 21.833,125.843 21.833 C 124.977 21.833,125.000 21.419,125.000 37.193 C 125.000 52.410,125.008 52.579,125.730 52.760 C 125.973 52.821,126.178 53.023,126.237 53.258 C 126.382 53.836,127.382 54.056,129.417 53.956 C 131.451 53.857,131.592 53.802,132.029 52.938 C 132.220 52.559,132.486 52.186,132.621 52.108 C 133.282 51.723,133.333 51.118,133.336 43.714 C 133.339 36.386,133.396 35.677,133.904 36.747 C 134.062 37.079,134.366 37.417,134.580 37.499 C 134.827 37.593,135.011 37.838,135.084 38.171 C 135.167 38.549,135.335 38.743,135.684 38.864 C 136.001 38.975,136.205 39.186,136.274 39.475 C 136.414 40.062,136.644 40.333,137.002 40.333 C 137.208 40.333,137.330 40.513,137.408 40.932 C 137.573 41.810,137.842 42.314,138.207 42.430 C 138.385 42.486,138.638 42.790,138.770 43.105 C 138.905 43.429,139.190 43.747,139.425 43.836 C 139.704 43.943,139.875 44.168,139.946 44.521 C 140.021 44.898,140.186 45.099,140.526 45.227 C 140.787 45.326,141.002 45.521,141.004 45.662 C 141.011 46.153,141.639 47.302,141.955 47.403 C 142.131 47.458,142.382 47.747,142.512 48.044 C 142.643 48.340,142.947 48.677,143.187 48.791 C 143.469 48.924,143.661 49.181,143.728 49.513 C 143.802 49.886,143.969 50.080,144.332 50.217 C 144.640 50.333,144.833 50.525,144.833 50.714 C 144.833 51.164,145.133 51.682,145.727 52.259 C 146.014 52.538,146.400 52.975,146.583 53.228 C 147.002 53.806,147.780 53.993,149.750 53.989 C 152.373 53.983,153.057 53.720,153.280 52.630 C 153.331 52.381,153.507 52.134,153.670 52.082 C 154.503 51.818,154.500 51.873,154.500 37.258 C 154.500 22.657,154.517 22.955,153.678 22.506 C 153.504 22.413,153.313 22.118,153.254 21.852 C 152.937 20.406,147.856 20.042,147.329 21.427 C 147.244 21.650,147.065 21.833,146.930 21.833 C 146.194 21.833,146.167 22.140,146.164 30.329 C 146.161 38.290,146.108 38.998,145.591 37.908 C 145.430 37.570,145.160 37.257,144.990 37.212 C 144.820 37.168,144.596 36.876,144.493 36.563 C 144.381 36.222,144.116 35.896,143.833 35.750 C 143.528 35.592,143.320 35.321,143.246 34.982 C 143.164 34.610,142.990 34.404,142.649 34.276 C 142.336 34.157,142.166 33.975,142.166 33.755 C 142.165 33.312,141.604 32.401,141.198 32.183 C 141.021 32.089,140.832 31.787,140.778 31.513 C 140.713 31.191,140.508 30.927,140.199 30.767 C 139.903 30.613,139.661 30.312,139.564 29.974 C 139.456 29.598,139.281 29.400,138.996 29.333 C 138.725 29.270,138.564 29.100,138.526 28.841 C 138.456 28.349,137.723 27.167,137.489 27.167 C 137.394 27.167,137.209 26.909,137.077 26.593 C 136.945 26.278,136.634 25.922,136.387 25.802 C 136.103 25.664,135.885 25.384,135.797 25.044 C 135.702 24.676,135.532 24.473,135.262 24.405 C 134.974 24.333,134.836 24.150,134.759 23.741 C 134.635 23.079,132.850 21.125,132.113 20.845 C 131.340 20.551,126.982 20.614,126.537 20.926 M45.551 20.994 C 47.152 21.118,47.649 21.221,48.218 21.550 C 48.602 21.773,49.320 22.050,49.814 22.166 C 50.307 22.282,50.855 22.522,51.032 22.699 C 51.209 22.876,51.702 23.170,52.126 23.352 C 52.551 23.534,53.150 23.942,53.457 24.258 C 53.765 24.574,54.125 24.833,54.258 24.833 C 54.391 24.833,54.500 24.906,54.500 24.995 C 54.500 25.084,55.072 25.740,55.771 26.453 C 56.470 27.167,57.193 28.087,57.378 28.500 C 57.563 28.912,57.886 29.457,58.097 29.709 C 58.312 29.967,58.529 30.516,58.592 30.959 C 58.654 31.394,58.940 32.275,59.228 32.917 L 59.750 34.083 59.750 37.250 L 59.750 40.417 59.228 41.583 C 58.941 42.225,58.658 43.022,58.599 43.355 C 58.540 43.688,58.278 44.257,58.016 44.619 C 57.753 44.981,57.489 45.505,57.428 45.783 C 57.366 46.062,56.983 46.681,56.575 47.158 C 56.167 47.636,55.833 48.098,55.833 48.184 C 55.833 48.270,55.654 48.422,55.435 48.522 C 55.216 48.622,54.937 48.889,54.816 49.116 C 54.694 49.343,54.405 49.627,54.173 49.747 C 53.940 49.868,53.512 50.194,53.221 50.473 C 52.930 50.751,52.381 51.072,52.003 51.186 C 51.624 51.299,51.245 51.520,51.162 51.676 C 51.001 51.976,49.861 52.500,49.369 52.500 C 49.208 52.500,48.816 52.678,48.496 52.895 C 47.047 53.880,38.462 53.983,37.250 53.030 C 37.010 52.841,36.402 52.594,35.899 52.482 C 34.800 52.236,31.941 50.474,31.060 49.500 C 30.935 49.362,30.674 49.091,30.479 48.896 C 30.284 48.701,30.003 48.415,29.854 48.261 C 29.705 48.106,29.349 47.741,29.062 47.448 C 28.776 47.156,28.488 46.743,28.423 46.531 C 28.357 46.318,28.096 45.906,27.843 45.614 C 27.575 45.306,27.293 44.698,27.172 44.167 C 27.058 43.663,26.781 42.978,26.557 42.646 C 25.622 41.256,25.578 33.437,26.499 32.147 C 26.670 31.908,26.973 31.176,27.171 30.522 C 27.370 29.868,27.604 29.333,27.692 29.333 C 27.780 29.333,28.042 28.917,28.275 28.408 C 28.508 27.899,28.846 27.393,29.026 27.283 C 29.205 27.173,29.466 26.846,29.605 26.557 C 29.743 26.267,30.026 25.988,30.233 25.936 C 30.440 25.884,30.694 25.655,30.798 25.427 C 30.902 25.200,31.280 24.864,31.639 24.681 C 31.998 24.497,32.338 24.229,32.393 24.084 C 32.449 23.939,32.874 23.645,33.337 23.430 C 33.801 23.215,34.308 22.925,34.465 22.785 C 34.622 22.645,35.162 22.399,35.667 22.239 C 36.171 22.079,36.896 21.769,37.279 21.549 C 38.346 20.937,41.810 20.704,45.551 20.994 M131.794 21.264 C 132.503 21.728,134.113 23.412,134.425 24.016 C 134.583 24.321,134.889 24.710,135.106 24.881 C 135.323 25.051,135.500 25.268,135.500 25.362 C 135.500 25.455,135.809 25.881,136.187 26.308 C 136.564 26.734,136.991 27.327,137.134 27.625 C 137.278 27.923,137.455 28.167,137.529 28.167 C 137.602 28.167,137.861 28.485,138.104 28.875 C 138.347 29.265,138.648 29.696,138.773 29.833 C 139.315 30.429,140.438 31.901,140.679 32.332 C 140.824 32.590,141.180 33.039,141.471 33.330 C 141.762 33.621,142.000 33.966,142.000 34.097 C 142.000 34.228,142.195 34.504,142.433 34.709 C 142.670 34.915,142.982 35.308,143.124 35.583 C 143.266 35.858,143.523 36.182,143.694 36.303 C 143.865 36.423,144.164 36.836,144.360 37.219 C 144.555 37.603,144.862 38.020,145.042 38.147 C 145.221 38.273,145.474 38.630,145.603 38.938 C 145.858 39.548,146.073 39.650,146.232 39.236 C 146.288 39.091,146.335 35.623,146.337 31.528 C 146.342 23.231,146.370 22.964,147.322 22.012 C 149.190 20.143,152.825 20.665,153.279 22.866 C 153.330 23.114,153.513 23.444,153.686 23.601 C 154.177 24.045,154.177 50.455,153.686 50.899 C 153.513 51.056,153.329 51.394,153.278 51.652 C 152.770 54.189,147.820 54.489,146.327 52.073 C 146.133 51.759,145.878 51.445,145.761 51.376 C 145.644 51.307,145.349 50.931,145.105 50.542 C 144.862 50.152,144.590 49.833,144.502 49.833 C 144.414 49.833,144.218 49.594,144.067 49.302 C 143.916 49.010,143.615 48.578,143.398 48.343 C 142.714 47.602,141.333 45.785,141.333 45.626 C 141.333 45.542,141.072 45.161,140.753 44.778 C 140.434 44.396,139.871 43.723,139.503 43.282 C 139.135 42.841,138.833 42.409,138.833 42.324 C 138.833 42.238,138.568 41.886,138.243 41.542 C 137.918 41.198,137.613 40.758,137.564 40.564 C 137.515 40.370,137.256 40.049,136.987 39.850 C 136.719 39.652,136.500 39.380,136.500 39.245 C 136.500 39.111,136.200 38.691,135.833 38.313 C 135.467 37.936,135.167 37.537,135.167 37.428 C 135.167 37.318,134.932 37.009,134.646 36.740 C 134.360 36.470,134.022 36.009,133.896 35.714 C 133.641 35.118,133.263 35.121,133.102 35.720 C 133.048 35.920,133.004 39.321,133.002 43.279 L 133.000 50.474 132.618 50.946 C 132.407 51.205,132.094 51.740,131.921 52.136 C 130.817 54.660,125.959 53.955,125.313 51.176 C 125.124 50.364,125.136 24.248,125.326 23.430 C 125.517 22.605,126.880 21.195,127.685 20.990 C 128.617 20.751,131.284 20.929,131.794 21.264 M67.417 21.947 C 66.978 22.062,66.500 22.494,66.500 22.776 C 66.500 22.899,66.399 23.000,66.276 23.000 C 65.387 23.000,65.417 22.487,65.417 37.917 C 65.417 53.256,65.393 52.830,66.234 52.834 C 66.335 52.835,66.541 53.054,66.693 53.322 C 67.403 54.569,71.937 54.191,72.498 52.839 C 72.616 52.553,72.918 52.100,73.168 51.832 C 73.779 51.177,73.833 50.797,73.833 47.146 L 73.833 44.000 78.229 44.000 C 83.201 44.000,83.488 43.967,84.175 43.326 C 84.461 43.058,84.958 42.813,85.349 42.747 C 85.733 42.682,86.266 42.423,86.578 42.149 C 86.881 41.883,87.408 41.549,87.749 41.406 C 88.158 41.235,88.433 40.980,88.555 40.657 C 88.656 40.387,88.836 40.167,88.953 40.167 C 89.366 40.167,89.811 39.516,89.927 38.741 C 90.012 38.170,90.130 37.935,90.362 37.874 C 91.067 37.690,91.167 37.083,91.166 32.967 C 91.165 28.799,91.057 28.034,90.402 27.518 C 90.153 27.322,89.944 26.949,89.887 26.600 C 89.809 26.117,89.693 25.979,89.239 25.830 C 88.821 25.692,88.674 25.539,88.635 25.199 C 88.596 24.858,88.451 24.707,88.030 24.571 C 87.726 24.473,87.387 24.212,87.277 23.991 C 87.019 23.473,86.412 23.172,85.621 23.169 C 85.109 23.167,84.963 23.091,84.837 22.760 C 84.518 21.922,84.489 21.919,75.833 21.888 C 71.387 21.872,67.600 21.899,67.417 21.947 M97.250 21.951 C 96.825 22.057,96.333 22.490,96.333 22.758 C 96.333 22.871,96.149 23.010,95.924 23.067 C 95.187 23.252,95.169 23.619,95.169 37.917 C 95.169 52.061,95.194 52.583,95.884 52.757 C 96.087 52.808,96.377 53.065,96.528 53.329 C 96.925 54.020,97.018 54.025,108.500 53.968 C 119.809 53.911,119.349 53.958,119.686 52.834 C 119.795 52.470,120.008 52.134,120.159 52.086 C 121.028 51.810,120.969 48.500,120.094 48.500 C 119.965 48.500,119.813 48.294,119.755 48.042 C 119.450 46.702,119.325 46.683,110.621 46.674 L 103.491 46.667 103.537 44.125 L 103.583 41.583 110.139 41.500 C 117.191 41.410,117.167 41.414,117.167 40.543 C 117.167 40.418,117.381 40.241,117.644 40.150 C 118.291 39.924,118.500 39.378,118.500 37.917 C 118.500 36.455,118.291 35.909,117.644 35.684 C 117.381 35.592,117.167 35.415,117.167 35.291 C 117.167 34.420,117.191 34.423,110.139 34.333 L 103.583 34.250 103.537 31.715 L 103.491 29.180 110.871 29.132 C 119.659 29.074,119.298 29.157,119.769 27.083 C 119.831 26.808,120.108 26.391,120.384 26.156 C 120.984 25.645,120.927 25.005,120.254 24.699 C 120.008 24.587,119.833 24.368,119.833 24.174 C 119.833 23.489,119.294 22.488,118.771 22.202 C 118.262 21.923,98.289 21.690,97.250 21.951 M83.525 22.474 C 83.860 22.584,84.175 22.781,84.226 22.913 C 84.276 23.045,84.752 23.275,85.284 23.424 C 85.815 23.573,86.370 23.833,86.516 24.001 C 86.662 24.169,87.030 24.458,87.333 24.642 C 88.136 25.131,89.626 26.908,89.819 27.609 C 89.911 27.942,90.154 28.392,90.359 28.610 C 91.185 29.490,91.197 36.506,90.373 37.143 C 90.179 37.294,89.914 37.730,89.784 38.112 C 89.473 39.028,88.136 40.575,87.180 41.124 C 86.760 41.366,86.211 41.731,85.960 41.936 C 85.709 42.141,85.073 42.434,84.547 42.587 C 84.021 42.740,83.386 43.011,83.136 43.189 C 82.559 43.599,80.287 43.820,76.555 43.828 C 72.961 43.835,73.333 43.440,73.333 47.245 C 73.333 50.040,73.296 50.506,73.042 50.853 C 72.881 51.071,72.569 51.610,72.347 52.050 C 71.775 53.188,71.174 53.563,69.796 53.640 C 68.065 53.738,67.636 53.600,66.636 52.621 L 65.750 51.753 65.750 37.918 L 65.750 24.083 66.557 23.281 C 67.001 22.839,67.526 22.410,67.724 22.326 C 68.275 22.094,82.777 22.230,83.525 22.474 M117.886 22.359 C 120.155 23.556,120.450 26.583,118.453 28.173 L 117.623 28.833 110.717 28.833 C 106.276 28.833,103.696 28.895,103.489 29.006 C 103.096 29.216,102.988 33.921,103.367 34.300 C 103.514 34.448,105.051 34.500,109.242 34.501 C 115.880 34.502,115.915 34.508,117.125 35.783 L 118.000 36.705 118.000 37.897 L 118.000 39.090 117.125 40.032 C 115.921 41.329,115.905 41.331,109.242 41.332 C 105.051 41.333,103.514 41.386,103.367 41.533 C 103.079 41.821,103.087 46.595,103.375 46.782 C 103.490 46.856,106.859 46.954,110.863 47.000 C 119.164 47.095,118.709 47.011,119.486 48.595 C 119.708 49.047,119.993 49.623,120.121 49.875 C 120.320 50.270,120.318 50.397,120.106 50.792 C 119.970 51.044,119.722 51.613,119.554 52.056 C 118.941 53.679,119.673 53.576,108.333 53.632 C 96.813 53.689,97.580 53.758,96.403 52.562 L 95.500 51.645 95.500 37.926 L 95.500 24.207 96.311 23.356 C 96.758 22.888,97.302 22.434,97.520 22.347 C 98.126 22.104,117.425 22.116,117.886 22.359 M41.417 27.803 C 41.233 27.871,40.821 28.051,40.500 28.203 C 40.179 28.356,39.474 28.611,38.934 28.771 C 38.393 28.930,37.733 29.254,37.468 29.489 C 36.164 30.644,35.167 31.691,35.167 31.905 C 35.167 32.035,34.892 32.654,34.557 33.280 C 33.526 35.203,33.541 39.729,34.583 41.265 C 34.817 41.610,35.055 42.085,35.111 42.321 C 35.167 42.557,35.447 42.991,35.732 43.286 C 36.017 43.581,36.415 43.994,36.618 44.203 C 37.474 45.089,38.171 45.667,38.384 45.667 C 38.758 45.667,40.742 46.355,40.846 46.521 C 41.190 47.073,43.626 47.003,44.833 46.406 C 45.246 46.202,45.846 45.981,46.167 45.914 C 46.832 45.776,47.529 45.447,47.863 45.113 C 47.988 44.988,48.408 44.685,48.795 44.441 C 49.183 44.196,49.500 43.895,49.500 43.772 C 49.500 43.649,49.686 43.348,49.914 43.102 C 50.470 42.502,50.647 42.144,50.935 41.039 C 51.069 40.524,51.344 39.836,51.546 39.510 C 52.158 38.520,52.038 35.736,51.337 34.667 C 51.247 34.529,51.051 33.977,50.903 33.440 C 50.740 32.852,50.417 32.222,50.092 31.856 C 49.795 31.523,49.484 31.125,49.401 30.972 C 49.075 30.370,47.310 29.007,46.622 28.825 C 46.234 28.723,45.504 28.447,45.000 28.212 C 44.052 27.771,42.105 27.549,41.417 27.803 M43.745 28.329 C 44.088 28.602,44.623 28.864,44.934 28.912 C 45.245 28.961,45.775 29.043,46.112 29.096 C 46.451 29.150,46.925 29.391,47.175 29.638 C 47.424 29.883,47.979 30.409,48.408 30.808 C 48.837 31.207,49.273 31.719,49.377 31.946 C 49.480 32.173,49.765 32.462,50.009 32.588 C 50.393 32.787,50.464 32.948,50.541 33.798 C 50.632 34.804,51.035 35.813,51.439 36.050 C 51.769 36.243,51.757 38.430,51.425 38.557 C 51.018 38.713,50.658 39.623,50.551 40.770 C 50.465 41.689,50.389 41.891,50.074 42.034 C 49.713 42.199,49.237 43.063,49.131 43.748 C 49.103 43.930,48.930 44.103,48.748 44.131 C 48.092 44.233,47.172 44.720,47.079 45.015 C 46.969 45.362,46.767 45.433,45.489 45.578 C 44.566 45.682,43.500 46.175,43.500 46.498 C 43.500 46.851,41.699 46.697,41.583 46.333 C 41.438 45.876,41.037 45.693,39.893 45.562 C 39.094 45.471,38.776 45.334,38.144 44.809 C 37.718 44.456,37.221 44.167,37.039 44.167 C 36.807 44.167,36.679 44.022,36.611 43.680 C 36.558 43.413,36.211 42.885,35.840 42.507 C 35.333 41.989,35.167 41.687,35.167 41.279 C 35.167 40.920,35.000 40.543,34.673 40.160 L 34.180 39.583 34.173 37.208 C 34.169 35.709,34.229 34.833,34.336 34.833 C 34.675 34.833,35.149 33.754,35.258 32.732 C 35.361 31.768,35.404 31.681,35.796 31.634 C 36.115 31.596,36.271 31.437,36.417 31.000 C 36.557 30.581,36.725 30.400,37.014 30.359 C 37.235 30.327,37.739 30.038,38.132 29.717 C 38.719 29.238,39.048 29.108,39.964 28.994 C 40.856 28.884,41.148 28.772,41.415 28.441 C 41.599 28.213,41.975 27.994,42.250 27.955 C 42.525 27.915,42.833 27.872,42.935 27.858 C 43.037 27.845,43.402 28.056,43.745 28.329 M73.625 29.003 C 73.257 29.230,73.173 36.439,73.533 36.800 C 74.003 37.270,80.115 37.018,80.701 36.505 C 80.819 36.401,81.329 36.103,81.833 35.842 C 82.884 35.300,83.169 34.743,83.206 33.168 C 83.254 31.162,82.998 30.688,81.365 29.758 L 79.917 28.932 76.917 28.878 C 74.968 28.843,73.814 28.887,73.625 29.003 M79.722 29.571 C 79.944 29.793,80.453 30.072,80.852 30.192 C 81.251 30.312,81.861 30.684,82.206 31.019 C 83.233 32.015,83.055 35.000,81.969 35.000 C 81.894 35.000,81.833 35.111,81.833 35.247 C 81.833 35.383,81.627 35.539,81.375 35.594 C 80.567 35.770,79.963 36.050,79.535 36.447 C 79.135 36.817,79.008 36.833,76.476 36.833 L 73.833 36.833 73.833 33.000 L 73.833 29.167 76.576 29.167 C 79.256 29.167,79.327 29.176,79.722 29.571 "
              stroke="none"  fill-rule="evenodd"></path>
    </g>
</svg>