<?xml version="1.0" encoding="UTF-8"?>
<svg width="100px" height="40px" viewBox="0 0 112 44" version="1.1" xmlns="http://www.w3.org/2000/svg" xmlns:xlink="http://www.w3.org/1999/xlink">
    <g id="Logo-eduID-2020-export" stroke="none" stroke-width="1" fill="none" fill-rule="evenodd">
        <g id="Logo">
            <rect id="Rectangle" fill="#173552" x="0" y="0" width="112" height="44" rx="4"></rect>
            <g id="eduID" transform="translate(11.258000, 7.959000)" fill-rule="nonzero">
                <path d="M8.211,25.279 C8.83433333,25.279 9.46333333,25.2251667 10.098,25.1175 C10.7326667,25.0098333 11.3475,24.8483333 11.9425,24.633 C12.5375,24.4176667 13.0956667,24.1428333 13.617,23.8085 C14.1383333,23.4741667 14.586,23.0803333 14.96,22.627 L14.96,22.627 L14.11,21.522 C13.974,21.3293333 13.7813333,21.233 13.532,21.233 C13.3393333,21.233 13.1098333,21.3208333 12.8435,21.4965 C12.5771667,21.6721667 12.2456667,21.862 11.849,22.066 C11.4523333,22.27 10.9791667,22.4598333 10.4295,22.6355 C9.87983333,22.8111667 9.22533333,22.899 8.466,22.899 C7.65,22.899 6.91333333,22.7658333 6.256,22.4995 C5.59866667,22.2331667 5.032,21.8308333 4.556,21.2925 C4.08,20.7541667 3.706,20.0826667 3.434,19.278 C3.162,18.4733333 3.01466667,17.527 2.992,16.439 L2.992,16.439 L14.45,16.439 C14.7333333,16.439 14.926,16.3596667 15.028,16.201 C15.13,16.0423333 15.181,15.725 15.181,15.249 C15.181,14.025 15.0025,12.9341667 14.6455,11.9765 C14.2885,11.0188333 13.7926667,10.2141667 13.158,9.5625 C12.5233333,8.91083333 11.7696667,8.41216667 10.897,8.0665 C10.0243333,7.72083333 9.07233333,7.548 8.041,7.548 C6.79433333,7.548 5.67233333,7.76616667 4.675,8.2025 C3.67766667,8.63883333 2.83333333,9.2395 2.142,10.0045 C1.45066667,10.7695 0.920833333,11.6733333 0.5525,12.716 C0.184166667,13.7586667 -7.10542736e-15,14.8806667 -7.10542736e-15,16.082 C-7.10542736e-15,17.5666667 0.204,18.8813333 0.612,20.026 C1.02,21.1706667 1.5895,22.1311667 2.3205,22.9075 C3.0515,23.6838333 3.9185,24.2731667 4.9215,24.6755 C5.9245,25.0778333 7.021,25.279 8.211,25.279 Z M12.461,14.552 L3.094,14.552 C3.298,13.056 3.81933333,11.8858333 4.658,11.0415 C5.49666667,10.1971667 6.647,9.775 8.109,9.775 C8.80033333,9.775 9.41516667,9.89116667 9.9535,10.1235 C10.4918333,10.3558333 10.948,10.6845 11.322,11.1095 C11.696,11.5345 11.9793333,12.0388333 12.172,12.6225 C12.3646667,13.2061667 12.461,13.8493333 12.461,14.552 L12.461,14.552 Z M24.293,25.279 C25.517,25.279 26.6021667,25.0098333 27.5485,24.4715 C28.4948333,23.9331667 29.3363333,23.2163333 30.073,22.321 L30.073,22.321 L30.345,24.412 C30.4583333,24.8313333 30.7303333,25.041 31.161,25.041 L31.161,25.041 L32.963,25.041 L32.963,-3.55271368e-15 L29.937,-3.55271368e-15 L29.937,9.554 C29.3476667,8.908 28.679,8.4065 27.931,8.0495 C27.183,7.6925 26.282,7.514 25.228,7.514 C24.0606667,7.514 23.018,7.7435 22.1,8.2025 C21.182,8.6615 20.4028333,9.29333333 19.7625,10.098 C19.1221667,10.9026667 18.632,11.8518333 18.292,12.9455 C17.952,14.0391667 17.782,15.2206667 17.782,16.49 C17.782,17.918 17.935,19.1816667 18.241,20.281 C18.547,21.3803333 18.9833333,22.2983333 19.55,23.035 C20.1166667,23.7716667 20.8023333,24.3298333 21.607,24.7095 C22.4116667,25.0891667 23.307,25.279 24.293,25.279 Z M25.296,22.831 C24.5933333,22.831 23.97,22.712 23.426,22.474 C22.882,22.236 22.423,21.8591667 22.049,21.3435 C21.675,20.8278333 21.3916667,20.1705 21.199,19.3715 C21.0063333,18.5725 20.91,17.612 20.91,16.49 C20.91,14.3706667 21.3406667,12.7386667 22.202,11.594 C23.0633333,10.4493333 24.2986667,9.877 25.908,9.877 C26.7126667,9.877 27.4465,10.0271667 28.1095,10.3275 C28.7725,10.6278333 29.3816667,11.152 29.937,11.9 L29.937,11.9 L29.937,20.23 C29.3136667,21.0573333 28.6308333,21.6976667 27.8885,22.151 C27.1461667,22.6043333 26.282,22.831 25.296,22.831 Z M43.401,25.313 C44.6023333,25.313 45.6676667,25.0608333 46.597,24.5565 C47.5263333,24.0521667 48.365,23.3863333 49.113,22.559 L49.113,22.559 L49.351,24.412 C49.4643333,24.8313333 49.7363333,25.041 50.167,25.041 L50.167,25.041 L51.969,25.041 L51.969,7.82 L48.943,7.82 L48.943,20.519 C48.2856667,21.267 47.566,21.8506667 46.784,22.27 C46.002,22.6893333 45.169,22.899 44.285,22.899 C43.0723333,22.899 42.1656667,22.542 41.565,21.828 C40.9643333,21.114 40.664,20.1053333 40.664,18.802 L40.664,18.802 L40.664,7.82 L37.638,7.82 L37.638,18.802 C37.638,19.7766667 37.7598333,20.6663333 38.0035,21.471 C38.2471667,22.2756667 38.6126667,22.9613333 39.1,23.528 C39.5873333,24.0946667 40.1908333,24.5338333 40.9105,24.8455 C41.6301667,25.1571667 42.4603333,25.313 43.401,25.313 Z" id="edu" fill="#FFFFFF"></path>
                <path d="M61.336,25.041 L61.336,0.68 L58.038,0.68 L58.038,25.041 L61.336,25.041 Z M76.976,25.041 C78.7666667,25.041 80.3986667,24.7491667 81.872,24.1655 C83.3453333,23.5818333 84.609,22.7573333 85.663,21.692 C86.717,20.6266667 87.533,19.346 88.111,17.85 C88.689,16.354 88.978,14.6936667 88.978,12.869 C88.978,11.0443333 88.689,9.384 88.111,7.888 C87.533,6.392 86.717,5.1085 85.663,4.0375 C84.609,2.9665 83.3453333,2.13916667 81.872,1.5555 C80.3986667,0.971833333 78.7666667,0.68 76.976,0.68 L76.976,0.68 L67.864,0.68 L67.864,25.041 L76.976,25.041 Z M76.976,22.372 L71.179,22.372 L71.179,3.349 L76.976,3.349 C78.2793333,3.349 79.4636667,3.56433333 80.529,3.995 C81.5943333,4.42566667 82.501,5.049 83.249,5.865 C83.997,6.681 84.575,7.67833333 84.983,8.857 C85.391,10.0356667 85.595,11.373 85.595,12.869 C85.595,14.365 85.391,15.7023333 84.983,16.881 C84.575,18.0596667 83.997,19.0541667 83.249,19.8645 C82.501,20.6748333 81.5943333,21.2953333 80.529,21.726 C79.4636667,22.1566667 78.2793333,22.372 76.976,22.372 L76.976,22.372 Z" id="ID" fill="#5BA5FB"></path>
            </g>
        </g>
    </g>
</svg>