<?xml version="1.0" encoding="UTF-8"?>
<svg width="140px" height="34px" viewBox="0 0 206 49" version="1.1" xmlns="http://www.w3.org/2000/svg" xmlns:xlink="http://www.w3.org/1999/xlink">
    <!-- Generator: Sketch 62 (91390) - https://sketch.com -->
    <title>Edubadges logo</title>
    <desc>Created with Sketch.</desc>
    <g id="Logo-Edubadges-export" stroke="none" stroke-width="1" fill="none" fill-rule="evenodd">
        <g id="Logo-Copy" transform="translate(0.000000, 2.000000)">
            <rect id="Rectangle" fill="#173552" x="0" y="3" width="191" height="44" rx="4"></rect>
            <g id="edubadges" transform="translate(11.258000, 10.959000)" fill-rule="nonzero">
                <path d="M8.211,25.279 C8.83433333,25.279 9.46333333,25.2251667 10.098,25.1175 C10.7326667,25.0098333 11.3475,24.8483333 11.9425,24.633 C12.5375,24.4176667 13.0956667,24.1428333 13.617,23.8085 C14.1383333,23.4741667 14.586,23.0803333 14.96,22.627 L14.96,22.627 L14.11,21.522 C13.974,21.3293333 13.7813333,21.233 13.532,21.233 C13.3393333,21.233 13.1098333,21.3208333 12.8435,21.4965 C12.5771667,21.6721667 12.2456667,21.862 11.849,22.066 C11.4523333,22.27 10.9791667,22.4598333 10.4295,22.6355 C9.87983333,22.8111667 9.22533333,22.899 8.466,22.899 C7.65,22.899 6.91333333,22.7658333 6.256,22.4995 C5.59866667,22.2331667 5.032,21.8308333 4.556,21.2925 C4.08,20.7541667 3.706,20.0826667 3.434,19.278 C3.162,18.4733333 3.01466667,17.527 2.992,16.439 L2.992,16.439 L14.45,16.439 C14.7333333,16.439 14.926,16.3596667 15.028,16.201 C15.13,16.0423333 15.181,15.725 15.181,15.249 C15.181,14.025 15.0025,12.9341667 14.6455,11.9765 C14.2885,11.0188333 13.7926667,10.2141667 13.158,9.5625 C12.5233333,8.91083333 11.7696667,8.41216667 10.897,8.0665 C10.0243333,7.72083333 9.07233333,7.548 8.041,7.548 C6.79433333,7.548 5.67233333,7.76616667 4.675,8.2025 C3.67766667,8.63883333 2.83333333,9.2395 2.142,10.0045 C1.45066667,10.7695 0.920833333,11.6733333 0.5525,12.716 C0.184166667,13.7586667 2.13162821e-14,14.8806667 2.13162821e-14,16.082 C2.13162821e-14,17.5666667 0.204,18.8813333 0.612,20.026 C1.02,21.1706667 1.5895,22.1311667 2.3205,22.9075 C3.0515,23.6838333 3.9185,24.2731667 4.9215,24.6755 C5.9245,25.0778333 7.021,25.279 8.211,25.279 Z M12.461,14.552 L3.094,14.552 C3.298,13.056 3.81933333,11.8858333 4.658,11.0415 C5.49666667,10.1971667 6.647,9.775 8.109,9.775 C8.80033333,9.775 9.41516667,9.89116667 9.9535,10.1235 C10.4918333,10.3558333 10.948,10.6845 11.322,11.1095 C11.696,11.5345 11.9793333,12.0388333 12.172,12.6225 C12.3646667,13.2061667 12.461,13.8493333 12.461,14.552 L12.461,14.552 Z M24.293,25.279 C25.517,25.279 26.6021667,25.0098333 27.5485,24.4715 C28.4948333,23.9331667 29.3363333,23.2163333 30.073,22.321 L30.073,22.321 L30.345,24.412 C30.4583333,24.8313333 30.7303333,25.041 31.161,25.041 L31.161,25.041 L32.963,25.041 L32.963,0 L29.937,0 L29.937,9.554 C29.3476667,8.908 28.679,8.4065 27.931,8.0495 C27.183,7.6925 26.282,7.514 25.228,7.514 C24.0606667,7.514 23.018,7.7435 22.1,8.2025 C21.182,8.6615 20.4028333,9.29333333 19.7625,10.098 C19.1221667,10.9026667 18.632,11.8518333 18.292,12.9455 C17.952,14.0391667 17.782,15.2206667 17.782,16.49 C17.782,17.918 17.935,19.1816667 18.241,20.281 C18.547,21.3803333 18.9833333,22.2983333 19.55,23.035 C20.1166667,23.7716667 20.8023333,24.3298333 21.607,24.7095 C22.4116667,25.0891667 23.307,25.279 24.293,25.279 Z M25.296,22.831 C24.5933333,22.831 23.97,22.712 23.426,22.474 C22.882,22.236 22.423,21.8591667 22.049,21.3435 C21.675,20.8278333 21.3916667,20.1705 21.199,19.3715 C21.0063333,18.5725 20.91,17.612 20.91,16.49 C20.91,14.3706667 21.3406667,12.7386667 22.202,11.594 C23.0633333,10.4493333 24.2986667,9.877 25.908,9.877 C26.7126667,9.877 27.4465,10.0271667 28.1095,10.3275 C28.7725,10.6278333 29.3816667,11.152 29.937,11.9 L29.937,11.9 L29.937,20.23 C29.3136667,21.0573333 28.6308333,21.6976667 27.8885,22.151 C27.1461667,22.6043333 26.282,22.831 25.296,22.831 Z M43.401,25.313 C44.6023333,25.313 45.6676667,25.0608333 46.597,24.5565 C47.5263333,24.0521667 48.365,23.3863333 49.113,22.559 L49.113,22.559 L49.351,24.412 C49.4643333,24.8313333 49.7363333,25.041 50.167,25.041 L50.167,25.041 L51.969,25.041 L51.969,7.82 L48.943,7.82 L48.943,20.519 C48.2856667,21.267 47.566,21.8506667 46.784,22.27 C46.002,22.6893333 45.169,22.899 44.285,22.899 C43.0723333,22.899 42.1656667,22.542 41.565,21.828 C40.9643333,21.114 40.664,20.1053333 40.664,18.802 L40.664,18.802 L40.664,7.82 L37.638,7.82 L37.638,18.802 C37.638,19.7766667 37.7598333,20.6663333 38.0035,21.471 C38.2471667,22.2756667 38.6126667,22.9613333 39.1,23.528 C39.5873333,24.0946667 40.1908333,24.5338333 40.9105,24.8455 C41.6301667,25.1571667 42.4603333,25.313 43.401,25.313 Z" id="edu" fill="#FFFFFF"></path>
                <path d="M64.804,25.279 C65.96,25.279 66.9998333,25.0495 67.9235,24.5905 C68.8471667,24.1315 69.6291667,23.5025 70.2695,22.7035 C70.9098333,21.9045 71.4,20.9581667 71.74,19.8645 C72.08,18.7708333 72.25,17.5893333 72.25,16.32 C72.25,14.892 72.097,13.6311667 71.791,12.5375 C71.485,11.4438333 71.0486667,10.5258333 70.482,9.7835 C69.9153333,9.04116667 69.2296667,8.483 68.425,8.109 C67.6203333,7.735 66.7193333,7.548 65.722,7.548 C64.532,7.548 63.4751667,7.80016667 62.5515,8.3045 C61.6278333,8.80883333 60.809,9.47466667 60.095,10.302 L60.095,10.302 L60.095,0 L57.052,0 L57.052,25.041 L59.007,25.041 C59.4376667,25.041 59.6983333,24.8256667 59.789,24.395 L59.789,24.395 L59.942,22.831 C60.52,23.6016667 61.1971667,24.2023333 61.9735,24.633 C62.7498333,25.0636667 63.6933333,25.279 64.804,25.279 Z M64.124,22.933 C63.308,22.933 62.5685,22.78 61.9055,22.474 C61.2425,22.168 60.639,21.641 60.095,20.893 L60.095,20.893 L60.095,12.563 C60.7183333,11.7356667 61.4011667,11.0953333 62.1435,10.642 C62.8858333,10.1886667 63.75,9.962 64.736,9.962 C65.4273333,9.962 66.045,10.081 66.589,10.319 C67.133,10.557 67.592,10.9338333 67.966,11.4495 C68.34,11.9651667 68.6261667,12.6253333 68.8245,13.43 C69.0228333,14.2346667 69.122,15.198 69.122,16.32 C69.122,18.4393333 68.6913333,20.0713333 67.83,21.216 C66.9686667,22.3606667 65.7333333,22.933 64.124,22.933 Z M79.849,25.313 C80.5063333,25.313 81.1041667,25.2563333 81.6425,25.143 C82.1808333,25.0296667 82.688,24.8625 83.164,24.6415 C83.64,24.4205 84.0933333,24.1485 84.524,23.8255 C84.9546667,23.5025 85.3966667,23.137 85.85,22.729 L85.85,22.729 L86.19,24.327 C86.2466667,24.6216667 86.3656667,24.8143333 86.547,24.905 C86.7283333,24.9956667 86.9663333,25.041 87.261,25.041 L87.261,25.041 L88.604,25.041 L88.604,14.025 C88.604,13.0616667 88.4736667,12.1776667 88.213,11.373 C87.9523333,10.5683333 87.567,9.88266667 87.057,9.316 C86.547,8.74933333 85.918,8.30733333 85.17,7.99 C84.422,7.67266667 83.5663333,7.514 82.603,7.514 C81.2656667,7.514 80.0473333,7.74066667 78.948,8.194 C77.8486667,8.64733333 76.823,9.333 75.871,10.251 L75.871,10.251 L76.415,11.22 C76.5056667,11.3786667 76.6275,11.5118333 76.7805,11.6195 C76.9335,11.7271667 77.112,11.781 77.316,11.781 C77.5766667,11.781 77.8401667,11.6875 78.1065,11.5005 C78.3728333,11.3135 78.6901667,11.1038333 79.0585,10.8715 C79.4268333,10.6391667 79.8631667,10.4295 80.3675,10.2425 C80.8718333,10.0555 81.4923333,9.962 82.229,9.962 C83.351,9.962 84.1981667,10.3048333 84.7705,10.9905 C85.3428333,11.6761667 85.629,12.6876667 85.629,14.025 L85.629,14.025 L85.629,15.368 C83.6796667,15.4133333 82.0306667,15.5918333 80.682,15.9035 C79.3333333,16.2151667 78.2425,16.6146667 77.4095,17.102 C76.5765,17.5893333 75.973,18.1475 75.599,18.7765 C75.225,19.4055 75.038,20.06 75.038,20.74 C75.038,21.522 75.1655,22.1991667 75.4205,22.7715 C75.6755,23.3438333 76.0183333,23.817 76.449,24.191 C76.8796667,24.565 77.3868333,24.8455 77.9705,25.0325 C78.5541667,25.2195 79.1803333,25.313 79.849,25.313 Z M80.75,23.188 C80.3533333,23.188 79.985,23.1398333 79.645,23.0435 C79.305,22.9471667 79.0103333,22.7941667 78.761,22.5845 C78.5116667,22.3748333 78.3133333,22.1056667 78.166,21.777 C78.0186667,21.4483333 77.945,21.0573333 77.945,20.604 C77.945,20.128 78.0838333,19.6973333 78.3615,19.312 C78.6391667,18.9266667 79.084,18.5923333 79.696,18.309 C80.308,18.0256667 81.1013333,17.7961667 82.076,17.6205 C83.0506667,17.4448333 84.235,17.3343333 85.629,17.289 L85.629,17.289 L85.629,20.876 C85.289,21.2386667 84.9405,21.5616667 84.5835,21.845 C84.2265,22.1283333 83.8525,22.3691667 83.4615,22.5675 C83.0705,22.7658333 82.654,22.9188333 82.212,23.0265 C81.77,23.1341667 81.2826667,23.188 80.75,23.188 Z M98.447,25.279 C99.671,25.279 100.756167,25.0098333 101.7025,24.4715 C102.648833,23.9331667 103.490333,23.2163333 104.227,22.321 L104.227,22.321 L104.499,24.412 C104.612333,24.8313333 104.884333,25.041 105.315,25.041 L105.315,25.041 L107.117,25.041 L107.117,0 L104.091,0 L104.091,9.554 C103.501667,8.908 102.833,8.4065 102.085,8.0495 C101.337,7.6925 100.436,7.514 99.382,7.514 C98.2146667,7.514 97.172,7.7435 96.254,8.2025 C95.336,8.6615 94.5568333,9.29333333 93.9165,10.098 C93.2761667,10.9026667 92.786,11.8518333 92.446,12.9455 C92.106,14.0391667 91.936,15.2206667 91.936,16.49 C91.936,17.918 92.089,19.1816667 92.395,20.281 C92.701,21.3803333 93.1373333,22.2983333 93.704,23.035 C94.2706667,23.7716667 94.9563333,24.3298333 95.761,24.7095 C96.5656667,25.0891667 97.461,25.279 98.447,25.279 Z M99.45,22.831 C98.7473333,22.831 98.124,22.712 97.58,22.474 C97.036,22.236 96.577,21.8591667 96.203,21.3435 C95.829,20.8278333 95.5456667,20.1705 95.353,19.3715 C95.1603333,18.5725 95.064,17.612 95.064,16.49 C95.064,14.3706667 95.4946667,12.7386667 96.356,11.594 C97.2173333,10.4493333 98.4526667,9.877 100.062,9.877 C100.866667,9.877 101.6005,10.0271667 102.2635,10.3275 C102.9265,10.6278333 103.535667,11.152 104.091,11.9 L104.091,11.9 L104.091,20.23 C103.467667,21.0573333 102.784833,21.6976667 102.0425,22.151 C101.300167,22.6043333 100.436,22.831 99.45,22.831 Z M118.099,31.246 C119.357,31.246 120.484667,31.0845 121.482,30.7615 C122.479333,30.4385 123.323667,30.0078333 124.015,29.4695 C124.706333,28.9311667 125.236167,28.3163333 125.6045,27.625 C125.972833,26.9336667 126.157,26.2196667 126.157,25.483 C126.157,24.6896667 125.992667,24.0436667 125.664,23.545 C125.335333,23.0463333 124.899,22.6553333 124.355,22.372 C123.811,22.0886667 123.193333,21.8846667 122.502,21.76 C121.810667,21.6353333 121.105167,21.5475 120.3855,21.4965 C119.665833,21.4455 118.960333,21.4086667 118.269,21.386 C117.577667,21.3633333 116.96,21.3066667 116.416,21.216 C115.872,21.1253333 115.435667,20.9751667 115.107,20.7655 C114.778333,20.5558333 114.614,20.247 114.614,19.839 C114.614,19.5896667 114.7075,19.3346667 114.8945,19.074 C115.0815,18.8133333 115.356333,18.5696667 115.719,18.343 C116.433,18.5356667 117.192333,18.632 117.997,18.632 C118.937667,18.632 119.801833,18.5016667 120.5895,18.241 C121.377167,17.9803333 122.057167,17.6063333 122.6295,17.119 C123.201833,16.6316667 123.6495,16.0451667 123.9725,15.3595 C124.2955,14.6738333 124.457,13.9116667 124.457,13.073 C124.457,12.1663333 124.264333,11.3446667 123.879,10.608 L123.879,10.608 L125.834,10.336 C126.31,10.234 126.548,9.996 126.548,9.622 L126.548,9.622 L126.548,8.5 L121.873,8.5 C121.340333,8.18266667 120.748167,7.94183333 120.0965,7.7775 C119.444833,7.61316667 118.745,7.531 117.997,7.531 C117.045,7.531 116.1695,7.66133333 115.3705,7.922 C114.5715,8.18266667 113.883,8.55383333 113.305,9.0355 C112.727,9.51716667 112.2765,10.1008333 111.9535,10.7865 C111.6305,11.4721667 111.469,12.2343333 111.469,13.073 C111.469,14.127 111.709833,15.0478333 112.1915,15.8355 C112.673167,16.6231667 113.339,17.255 114.189,17.731 C113.826333,17.9123333 113.509,18.122 113.237,18.36 C112.965,18.598 112.7355,18.8473333 112.5485,19.108 C112.3615,19.3686667 112.222667,19.6321667 112.132,19.8985 C112.041333,20.1648333 111.996,20.4226667 111.996,20.672 C111.996,21.3066667 112.1405,21.8138333 112.4295,22.1935 C112.7185,22.5731667 113.106667,22.8763333 113.594,23.103 C112.653333,23.4543333 111.913833,23.9275 111.3755,24.5225 C110.837167,25.1175 110.568,25.84 110.568,26.69 C110.568,27.2906667 110.723833,27.8658333 111.0355,28.4155 C111.347167,28.9651667 111.814667,29.4496667 112.438,29.869 C113.061333,30.2883333 113.846167,30.6226667 114.7925,30.872 C115.738833,31.1213333 116.841,31.246 118.099,31.246 Z M117.997,16.626 C117.396333,16.626 116.863667,16.541 116.399,16.371 C115.934333,16.201 115.543333,15.963 115.226,15.657 C114.908667,15.351 114.667833,14.9855 114.5035,14.5605 C114.339167,14.1355 114.257,13.668 114.257,13.158 C114.257,12.104 114.577167,11.2653333 115.2175,10.642 C115.857833,10.0186667 116.784333,9.707 117.997,9.707 C119.221,9.707 120.153167,10.0186667 120.7935,10.642 C121.433833,11.2653333 121.754,12.104 121.754,13.158 C121.754,13.668 121.674667,14.1355 121.516,14.5605 C121.357333,14.9855 121.119333,15.351 120.802,15.657 C120.484667,15.963 120.090833,16.201 119.6205,16.371 C119.150167,16.541 118.609,16.626 117.997,16.626 Z M118.15,29.036 C117.311333,29.036 116.583167,28.9651667 115.9655,28.8235 C115.347833,28.6818333 114.835,28.4891667 114.427,28.2455 C114.019,28.0018333 113.715833,27.7128333 113.5175,27.3785 C113.319167,27.0441667 113.22,26.6843333 113.22,26.299 C113.22,25.687 113.421167,25.16 113.8235,24.718 C114.225833,24.276 114.75,23.902 115.396,23.596 C115.951333,23.6866667 116.535,23.749 117.147,23.783 C117.759,23.817 118.359667,23.8481667 118.949,23.8765 C119.538333,23.9048333 120.099333,23.953 120.632,24.021 C121.164667,24.089 121.635,24.1938333 122.043,24.3355 C122.451,24.4771667 122.774,24.6783333 123.012,24.939 C123.25,25.1996667 123.369,25.5453333 123.369,25.976 C123.369,26.4293333 123.25,26.843 123.012,27.217 C122.774,27.591 122.431167,27.914 121.9835,28.186 C121.535833,28.458 120.989,28.6676667 120.343,28.815 C119.697,28.9623333 118.966,29.036 118.15,29.036 Z M136.561,25.279 C137.184333,25.279 137.813333,25.2251667 138.448,25.1175 C139.082667,25.0098333 139.6975,24.8483333 140.2925,24.633 C140.8875,24.4176667 141.445667,24.1428333 141.967,23.8085 C142.488333,23.4741667 142.936,23.0803333 143.31,22.627 L143.31,22.627 L142.46,21.522 C142.324,21.3293333 142.131333,21.233 141.882,21.233 C141.689333,21.233 141.459833,21.3208333 141.1935,21.4965 C140.927167,21.6721667 140.595667,21.862 140.199,22.066 C139.802333,22.27 139.329167,22.4598333 138.7795,22.6355 C138.229833,22.8111667 137.575333,22.899 136.816,22.899 C136,22.899 135.263333,22.7658333 134.606,22.4995 C133.948667,22.2331667 133.382,21.8308333 132.906,21.2925 C132.43,20.7541667 132.056,20.0826667 131.784,19.278 C131.512,18.4733333 131.364667,17.527 131.342,16.439 L131.342,16.439 L142.8,16.439 C143.083333,16.439 143.276,16.3596667 143.378,16.201 C143.48,16.0423333 143.531,15.725 143.531,15.249 C143.531,14.025 143.3525,12.9341667 142.9955,11.9765 C142.6385,11.0188333 142.142667,10.2141667 141.508,9.5625 C140.873333,8.91083333 140.119667,8.41216667 139.247,8.0665 C138.374333,7.72083333 137.422333,7.548 136.391,7.548 C135.144333,7.548 134.022333,7.76616667 133.025,8.2025 C132.027667,8.63883333 131.183333,9.2395 130.492,10.0045 C129.800667,10.7695 129.270833,11.6733333 128.9025,12.716 C128.534167,13.7586667 128.35,14.8806667 128.35,16.082 C128.35,17.5666667 128.554,18.8813333 128.962,20.026 C129.37,21.1706667 129.9395,22.1311667 130.6705,22.9075 C131.4015,23.6838333 132.2685,24.2731667 133.2715,24.6755 C134.2745,25.0778333 135.371,25.279 136.561,25.279 Z M140.811,14.552 L131.444,14.552 C131.648,13.056 132.169333,11.8858333 133.008,11.0415 C133.846667,10.1971667 134.997,9.775 136.459,9.775 C137.150333,9.775 137.765167,9.89116667 138.3035,10.1235 C138.841833,10.3558333 139.298,10.6845 139.672,11.1095 C140.046,11.5345 140.329333,12.0388333 140.522,12.6225 C140.714667,13.2061667 140.811,13.8493333 140.811,14.552 L140.811,14.552 Z M151.708,25.313 C152.762,25.313 153.691333,25.1713333 154.496,24.888 C155.300667,24.6046667 155.980667,24.2165 156.536,23.7235 C157.091333,23.2305 157.510667,22.6468333 157.794,21.9725 C158.077333,21.2981667 158.219,20.5643333 158.219,19.771 C158.219,19.0796667 158.0915,18.4875 157.8365,17.9945 C157.5815,17.5015 157.244333,17.085 156.825,16.745 C156.405667,16.405 155.929667,16.1216667 155.397,15.895 C154.864333,15.6683333 154.3175,15.4615 153.7565,15.2745 C153.1955,15.0875 152.648667,14.9118333 152.116,14.7475 C151.583333,14.5831667 151.107333,14.3933333 150.688,14.178 C150.268667,13.9626667 149.9315,13.7076667 149.6765,13.413 C149.4215,13.1183333 149.294,12.75 149.294,12.308 C149.294,11.9566667 149.3705,11.6308333 149.5235,11.3305 C149.6765,11.0301667 149.8975,10.7666667 150.1865,10.54 C150.4755,10.3133333 150.824,10.1348333 151.232,10.0045 C151.64,9.87416667 152.099,9.809 152.609,9.809 C153.198333,9.809 153.708333,9.87416667 154.139,10.0045 C154.569667,10.1348333 154.940833,10.2765 155.2525,10.4295 C155.564167,10.5825 155.827667,10.7213333 156.043,10.846 C156.258333,10.9706667 156.451,11.033 156.621,11.033 C156.904333,11.033 157.114,10.9083333 157.25,10.659 L157.25,10.659 L157.93,9.554 C157.272667,8.93066667 156.4935,8.4405 155.5925,8.0835 C154.6915,7.7265 153.674333,7.548 152.541,7.548 C151.566333,7.548 150.699333,7.684 149.94,7.956 C149.180667,8.228 148.540333,8.5935 148.019,9.0525 C147.497667,9.5115 147.101,10.0441667 146.829,10.6505 C146.557,11.2568333 146.421,11.8886667 146.421,12.546 C146.421,13.2826667 146.5485,13.9088333 146.8035,14.4245 C147.0585,14.9401667 147.395667,15.3736667 147.815,15.725 C148.234333,16.0763333 148.713167,16.3681667 149.2515,16.6005 C149.789833,16.8328333 150.3395,17.0396667 150.9005,17.221 C151.4615,17.4023333 152.011167,17.5751667 152.5495,17.7395 C153.087833,17.9038333 153.566667,18.0965 153.986,18.3175 C154.405333,18.5385 154.7425,18.8048333 154.9975,19.1165 C155.2525,19.4281667 155.38,19.822 155.38,20.298 C155.38,20.6833333 155.309167,21.046 155.1675,21.386 C155.025833,21.726 154.807667,22.0263333 154.513,22.287 C154.218333,22.5476667 153.85,22.7545 153.408,22.9075 C152.966,23.0605 152.450333,23.137 151.861,23.137 C151.169667,23.137 150.5945,23.0576667 150.1355,22.899 C149.6765,22.7403333 149.2855,22.5646667 148.9625,22.372 C148.6395,22.1793333 148.364667,22.0036667 148.138,21.845 C147.911333,21.6863333 147.696,21.607 147.492,21.607 C147.288,21.607 147.123667,21.6466667 146.999,21.726 C146.874333,21.8053333 146.766667,21.9186667 146.676,22.066 L146.676,22.066 L145.962,23.222 C146.642,23.834 147.469333,24.3355 148.444,24.7265 C149.418667,25.1175 150.506667,25.313 151.708,25.313 Z" id="badges" fill="#39B8DF"></path>
            </g>
            <g id="Group" transform="translate(178.000000, 0.000000)" fill-rule="nonzero">
                <path d="M23.3221117,20.4752189 C23.1280857,20.7925414 23.0105743,20.9803662 22.9705388,21.0393352 C22.5582367,21.6860424 22.4566383,21.8411097 22.4092808,21.9073204 C20.5174134,24.3664988 20.3936585,24.4932637 20.2084491,24.6839292 C20.0238401,24.8739767 19.8065028,25.091199 19.5563871,25.3355461 C19.3045104,25.5816135 19.0825733,25.7920886 18.8906678,25.9670694 C18.4323272,26.3574332 18.2875188,26.4733196 18.0599496,26.6592604 C17.8331584,26.8445656 17.6947188,26.9573493 17.6357211,27.0047041 C16.1766123,28.1425503 16.0674557,28.2217351 15.9930893,28.273269 C12.2068635,29.8124267 12.1432229,29.4884956 11.9205437,29.383899 C9.24822128,27.7150743 9.11295636,27.6068706 8.99680286,27.5172548 C8.87962351,27.4268475 8.70830843,27.2899334 8.48296276,27.1063786 C8.2789682,26.9402154 8.14870577,26.8356605 8.09158463,26.7934977 C8.02641928,26.7453972 7.88342536,26.6325446 7.66309707,26.454284 C6.77510949,25.6790628 6.6434357,25.5549691 6.56824541,25.4809253 C6.49486865,25.4086674 6.33343368,25.2481005 6.08395269,24.9992122 C5.81857156,24.7344616 5.66000596,24.571598 5.60175684,24.5059273 C5.07726747,23.9025751 5.02001276,23.8297507 4.96207795,23.7546831 C2.96438026,20.9661433 2.86967504,20.8101987 2.71587768,20.5566997 C2.56274408,20.3042947 2.44790294,20.113643 2.37133615,19.9847553 C2.08706621,19.470068 2.00166288,19.2941726 1.89151429,19.059826 C1.46083959,18.086762 1.37854896,17.8963169 1.31972236,17.7568567 C1.25868272,17.6121502 1.17301534,17.3923911 1.06314248,17.0974082 C0.955042964,16.8071864 0.846914145,16.4978091 0.738814499,16.1692558 C0.631035164,15.8416759 0.511159169,15.4431567 0.379428278,14.9736235 C0.24731572,14.5027299 0.154468062,14.1522408 0.100422521,13.9222716 C0.0473799145,13.6965701 -0.0263155365,13.3687711 -0.12061354,12.9388632 C-0.220845021,12.4819044 -0.27893299,12.1818183 -0.297723887,12.0390377 C-0.315694453,11.9024903 -0.355146552,11.4847126 -0.415049562,10.7855768 C-0.474321366,10.0938079 -0.512698681,9.57227031 -0.530480163,9.22098258 C-0.547852585,8.87777617 -0.568122356,8.51344949 -0.591285585,8.1280023 C-0.614725302,7.73795422 -0.646982673,7.0994523 -0.688002186,6.21249346 C-0.72955482,5.31400704 -0.75,4.6780272 -0.75,4.30456295 L-0.75,3.16155978 C0.262704007,2.91453373 0.55518812,2.87076075 0.960386271,2.81280584 C1.25527805,2.7706279 1.7033939,2.70206217 2.30474167,2.60716182 C2.90944335,2.51173219 3.34261948,2.44281335 3.60426925,2.40040018 C3.85804221,2.35926383 4.19355016,2.29479693 4.61086206,2.20738295 C5.03043709,2.11949491 5.3933358,2.03687233 5.69951329,1.95932378 C6.00108244,1.88294243 6.2608027,1.8117765 6.47860427,1.74557883 C6.70732643,1.67606201 6.88673601,1.6224321 7.01681001,1.58463301 C7.48337299,1.44103878 7.71001624,1.36351866 8.04910644,1.24499781 C8.38601534,1.12723939 8.70188783,1.00825333 8.99668395,0.887934598 C10.1918359,0.404417058 10.4373661,0.299088772 10.6568909,0.20427413 C10.8760924,0.109599096 11.0924099,0.0149244311 11.305843,-0.079750603 C11.5159046,-0.172930101 11.7770322,-0.294645744 12.0892851,-0.444767889 L12.8401316,-0.805753071 L13.8883614,-0.467732148 C14.2347577,-0.304093788 14.4619698,-0.197605973 14.5700306,-0.148340641 C14.6735897,-0.101127697 15.0260214,0.0522174887 15.6272382,0.311888203 C16.1093022,0.520095739 16.3546174,0.653142665 16.3709169,0.655265812 C16.398703,0.658885176 16.623749,0.722968018 17.039767,0.890747775 C17.3309042,1.00816319 17.5547942,1.09511596 17.7115619,1.15127171 C17.8701621,1.20808388 18.0995949,1.28547004 18.3998014,1.3835998 C18.6974381,1.48088957 18.8894168,1.5435961 18.9759043,1.57171531 C19.9174932,1.84751868 20.1567503,1.91005783 20.4470701,1.98272488 C20.7344565,2.05465769 21.0133861,2.11890306 21.2838676,2.17542175 C21.5586831,2.23284602 21.7361612,2.26942308 21.8163158,2.28508426 C21.8960239,2.3006582 22.1494093,2.34463451 22.5764148,2.41731254 C23.0034583,2.48999704 23.2710508,2.53427212 23.3792357,2.54984744 C23.4903582,2.5658457 23.7623165,2.60583817 24.1951096,2.66983121 C24.554243,2.72293289 24.7362261,2.75742166 24.7410894,2.75742166 C24.7481277,2.75742166 25.0022039,2.79077072 25.5032614,2.88085731 C26.2231719,3.01029213 26.4962124,3.17607555 26.500957,3.18040171 C26.5044984,3.18363085 26.6113752,3.32742343 26.7465127,3.69330043 L26.7235899,4.94289037 C26.7059615,5.74121836 26.6619865,6.77261929 26.5914727,8.03708642 C26.5210201,9.30045666 26.4651384,10.183737 26.4240411,10.6869432 C26.3817077,11.2052846 26.3330703,11.6491503 26.2786423,12.0186018 C26.2235246,12.3927346 26.1591336,12.7473062 26.0856438,13.0823486 C26.0140815,13.4086037 25.9365597,13.7375785 25.8530704,14.0692712 C25.7707863,14.3961754 25.6973134,14.6828851 25.6326617,14.929403 C25.5659465,15.1837887 25.4871562,15.457546 25.3961807,15.7506434 C25.3100247,16.0282135 25.258306,16.1957955 25.2410748,16.2534044 C24.9756815,16.9967962 24.9011782,17.1920241 24.8000428,17.4469742 C24.6976061,17.7052045 24.6131737,17.9112086 24.5468914,18.0650474 C24.4814642,18.2169016 24.4011818,18.3985908 24.3060149,18.6101021 C24.2094239,18.8247784 24.085762,19.0835367 23.9348378,19.3862869 C23.772959,19.7110118 23.6741921,19.8989621 23.6418246,19.9520854 C23.612627,20.000006 23.5060564,20.1743841 23.3221117,20.4752189 Z" id="Shape" stroke="#FFFFFF" stroke-width="1.5" fill="#33AFDB"></path>
                <path d="M5.696,18.12 C5.83466667,18.12 5.96533333,18.0946667 6.088,18.044 C6.21066667,17.9933333 6.31733333,17.9226667 6.408,17.832 C6.49866667,17.7413333 6.56933333,17.636 6.62,17.516 C6.67066667,17.396 6.696,17.264 6.696,17.12 C6.696,16.9813333 6.67066667,16.8506667 6.62,16.728 C6.56933333,16.6053333 6.49866667,16.4986667 6.408,16.408 C6.31733333,16.3173333 6.21066667,16.2453333 6.088,16.192 C5.96533333,16.1386667 5.83466667,16.112 5.696,16.112 C5.55733333,16.112 5.42666667,16.1386667 5.304,16.192 C5.18133333,16.2453333 5.076,16.3173333 4.988,16.408 C4.9,16.4986667 4.83066667,16.6053333 4.78,16.728 C4.72933333,16.8506667 4.704,16.9813333 4.704,17.12 C4.704,17.264 4.72933333,17.396 4.78,17.516 C4.83066667,17.636 4.9,17.7413333 4.988,17.832 C5.076,17.9226667 5.18133333,17.9933333 5.304,18.044 C5.42666667,18.0946667 5.55733333,18.12 5.696,18.12 Z M9.984,18 L9.984,12.032 C10.2933333,11.6853333 10.6306667,11.4106667 10.996,11.208 C11.3613333,11.0053333 11.7546667,10.904 12.176,10.904 C12.752,10.904 13.18,11.0733333 13.46,11.412 C13.74,11.7506667 13.88,12.2266667 13.88,12.84 L13.88,12.84 L13.88,18 L15.304,18 L15.304,12.84 C15.304,12.3813333 15.2453333,11.9626667 15.128,11.584 C15.0106667,11.2053333 14.8386667,10.8813333 14.612,10.612 C14.3853333,10.3426667 14.1026667,10.1346667 13.764,9.988 C13.4253333,9.84133333 13.0346667,9.768 12.592,9.768 C12.0213333,9.768 11.5186667,9.888 11.084,10.128 C10.6493333,10.368 10.256,10.6826667 9.904,11.072 L9.904,11.072 L9.792,10.192 C9.73866667,9.99466667 9.61066667,9.896 9.408,9.896 L9.408,9.896 L8.56,9.896 L8.56,18 L9.984,18 Z M19.04,18 L19.04,6.216 L17.616,6.216 L17.616,18 L19.04,18 Z" id=".nl" fill="#FFFFFF"></path>
            </g>
        </g>
    </g>
</svg>