<svg xmlns="http://www.w3.org/2000/svg" viewBox="0 0 150 150" fill="none">
    <path d="M70.9491 49.8666L70.9623 49.9312M42.0215 98.1611C46.126 118.244 65.768 131.192 85.838 127.091C105.908 122.989 118.894 103.373 114.79 83.2894C110.685 63.2061 91.0436 50.2573 70.9738 54.359C50.9038 58.4608 37.9171 78.0779 42.0215 98.1611Z" stroke="#E4D3E6" stroke-width="7.94358" stroke-linecap="round" stroke-linejoin="round"/>
    <path d="M91.082 74.3997L79.0605 99.8091C78.6663 100.641 77.9305 101.261 77.0437 101.509C76.1569 101.756 75.2063 101.607 74.438 101.1L62.4961 93.2143" stroke="#E4D3E6" stroke-width="6.35487" stroke-linecap="round" stroke-linejoin="round"/>
    <path d="M53.8733 61.9327L33.5164 38.9643C32.0329 37.2638 32.9382 34.5911 35.1494 34.1392L48.5125 31.4082C49.5626 31.1936 50.6485 31.566 51.3462 32.3805L69.2988 52.6362" stroke="#E4D3E6" stroke-width="7.94358" stroke-linecap="round" stroke-linejoin="round"/>
    <path d="M70.9436 52.5084L79.857 25.7901C80.1513 24.7097 81.0299 23.8885 82.1257 23.6645L94.6791 21.141C96.8256 20.7077 98.6804 22.6795 98.109 24.8L88.3414 54.0782" stroke="#E4D3E6" stroke-width="7.94358" stroke-linecap="round" stroke-linejoin="round"/>
</svg>
